<svg xmlns="http://www.w3.org/2000/svg" viewBox="0 0 1160.7 1160.7"><defs><style>.cls-1,.cls-2,.cls-3,.cls-7{fill:none;}.cls-2{stroke:#49aa84;}.cls-2,.cls-3,.cls-7{stroke-linecap:round;stroke-linejoin:round;}.cls-3,.cls-7{stroke:#688c61;}.cls-4{fill:#688c61;}.cls-5{fill:#49aa84;}.cls-6{fill:#c6d2c4;}.cls-7{stroke-width:2px;}</style></defs><title>Asset 73</title><g id="Layer_2" data-name="Layer 2"><g id="SVGs_Himpanzee_colours" data-name="SVGs + Himpanzee colours"><rect class="cls-1" width="1160.7" height="1160.7"/><line class="cls-2" x1="571.97" y1="305.66" x2="545.9" y2="369.74"/><line class="cls-2" x1="497.17" y1="332.88" x2="545.9" y2="369.74"/><polyline class="cls-2" points="195.62 473.93 237.84 486.78 206 514.1"/><polyline class="cls-3" points="911.44 805.55 842.08 805.55 862.37 773.97"/><polyline class="cls-2" points="856.42 439.05 822.86 437.09 837.45 402.81"/><polyline class="cls-2" points="739.05 361.47 703.65 369.74 695.55 348.34"/><polyline class="cls-3" points="390.44 740.76 414.72 769.69 316.34 795.41"/><polyline class="cls-3" points="253.76 765.31 258.98 780.99 231.35 762.37"/><polyline class="cls-3" points="670.62 721.94 700.29 745.97 612.42 732.17"/><circle class="cls-4" cx="916.57" cy="805.55" r="5.14"/><circle class="cls-4" cx="612.42" cy="732.17" r="5.14"/><circle class="cls-4" cx="316.34" cy="795.41" r="5.14"/><circle class="cls-4" cx="231.35" cy="762.37" r="5.14"/><circle class="cls-5" cx="739.05" cy="361.47" r="5.14"/><circle class="cls-5" cx="497.17" cy="332.88" r="5.14"/><path class="cls-4" d="M393.47,741.37a2.94,2.94,0,1,1-2.94-2.93A2.94,2.94,0,0,1,393.47,741.37Z"/><circle class="cls-4" cx="254.09" cy="765.31" r="2.93"/><path class="cls-4" d="M673.56,721.94a2.94,2.94,0,1,1-2.94-2.94A2.94,2.94,0,0,1,673.56,721.94Z"/><circle class="cls-4" cx="862.29" cy="773.97" r="2.93"/><path class="cls-5" d="M859.35,439.35a2.93,2.93,0,1,1-2.93-2.93A2.94,2.94,0,0,1,859.35,439.35Z"/><path class="cls-5" d="M840.29,402.81a2.94,2.94,0,1,1-2.94-2.94A2.94,2.94,0,0,1,840.29,402.81Z"/><path class="cls-5" d="M698.48,348.34a2.94,2.94,0,1,1-2.93-2.94A2.93,2.93,0,0,1,698.48,348.34Z"/><path class="cls-5" d="M208.13,514.85a2.94,2.94,0,1,1-2.94-2.94A2.94,2.94,0,0,1,208.13,514.85Z"/><polyline class="cls-6" points="305.87 588.38 306.07 612.16 302.51 638.02 293.24 663.23 269 702.08 233.36 731.31 223.07 734.96 211.8 734.96 210.06 728.36 223.07 723.44 237.74 711.08 249.4 701.8 262.33 683.54 274.69 659.84 273.55 633.88"/><polyline class="cls-6" points="302.36 601.78 291.65 618.69 277.34 635.34 259.28 648.93 224.41 665.33 185.88 669.73 176.94 667.62 168.98 662.47 170.76 657.01 182.2 659.47 198.22 657.43 210.69 656.19 228.16 649.18 247.72 638.07 285.06 593.75"/><path class="cls-6" d="M426.24,588.15s-14.42,16.38-9.92,31.05,2.87,17.41,4.52,34.83,19.64,23,15.71,34.85-12.93,18.65-5.62,25.85,24.17,5.62,23-10.12-3.78-21.39,0-26.71-16.6-4.77-19.28-31.73,36.87-41.42,45.82-63.54S432.79,557.09,426.24,588.15Z"/><path class="cls-6" d="M428.1,612.08s-3,21.61,8.83,31.38,12,12.95,23,26.57,29.09,8.41,32.31,20.43-.51,22.69,9.55,24.67S525,706.51,515.41,694s-14.94-15.77-14.68-22.33-16.48,5.17-33.58-15.86,8-54.88,3.25-78.27S416.46,582.55,428.1,612.08Z"/><path class="cls-6" d="M453.35,710.78l7.08,2.26,3.1-5.79h12.59s3,12.82-11.39,26.59-14.7,29.52-6.92,52.82,15.27,31.75,4.4,38,10.32,3.88,10.32,11.61,6.54,19-3.2,20.85-48.05-2.62-55.49,0-26.18,5.81-24.69.47,12.46-10.21,21-8,11.57-2.38,15.69-7.87,9.66-9,13.49-9,9.26-5.62,9.12-10.87-14.74,2.62-9.12-16.11-15.13-48.33-6.63-63.32-23.84-13.29-2.22-41Z"/><path class="cls-6" d="M517.68,699.91l7.08,2.27,3.09-5.79s12.47,13-1.94,26.77-11.55,29.34-3.77,52.64,15.27,31.75,4.4,38,10.32,3.87,10.32,11.61,6.54,19-3.2,20.85-48-2.62-55.5,0-26.18,5.81-24.68.47,12.46-10.21,21-8,11.57-2.38,15.69-7.86,9.66-9,13.49-9,9.25-5.61,9.12-10.86-14.74,2.62-9.12-16.11-15.14-48.33-6.63-63.32-23.84-13.29-2.22-41Z"/><path class="cls-6" d="M501.88,428.44c-14.67-21.11-26.55-3.14-40,0s-10.49,27-10.49,27l-6,17,3-21.12-6.46,1.5-2.51,11.51-4.14,6.59v-19.6l-5,.32-1.76,15.79-3.76,3.37L421.17,466s3.95-16.86,0-24.35-11.41,3.72-11.41,3.72,1.13,61.47-15.17,4.23S324,399.09,315.35,403s-6.75,15.74-23,30.35S285.4,448.65,281.77,465s5.1,4.74,9.6,32.08-8.62,65.57-8.62,65.57l-6.36,7-2.83,11.62,5.67,9L277.83,617l-4.27,16.85,32.31-45.5,12.66-.23a13.18,13.18,0,0,0-4.33-11.27c-5.4-4.85,0-10.79,0-10.79s17.26,9.09,48.58-5.58,24.67-40.74,24.21-58.7,0-24.2,0-24.2l9,4.11,5.46,9,3.6,3.23,10.12,2.42,3,4.63,5.42,4.64,8.57.56,9.58-4.42-4.48,13.32-2.43,12.51,7,8.49v9l-15.65,6.6s-6,20.79,0,36.4,27.17,4.06,46.29-1.55c.41-.12.79-.25,1.17-.38-1.39,11.44-2.36,29.69,5,33,10.86,4.86,17.23,1.18,18.36-20.58C498,581,492.48,555.37,493,538.9a17,17,0,0,1,7.18-6.62c1.19,8.06,8.31,57.33,5.17,70.05-3.42,13.86-7.38,25.63-12.74,31.55s8.8,14.69,16.4-5.25,7.08-56.76,0-100c14.22-4.71,32.57-7.87,36.94-24.67C553,476.8,516.56,449.55,501.88,428.44Z"/><path class="cls-6" d="M508.52,522.12a2.23,2.23,0,0,0-.55,2l3.93-1.84a2.37,2.37,0,0,0-.67-.9C510.19,520.49,509.23,521.31,508.52,522.12Z"/><path class="cls-6" d="M600,583.68c-.08-.76-.26-1.5-.37-2.26-.15-1.07,0-2.19-.13-3.27a29.52,29.52,0,0,0-2-7.29c-.37-1-.55-2.1-.95-3.09-.32-.81-.81-1.56-1.17-2.36a12.47,12.47,0,0,1-.46-1.55c-.14-.44-.39-.84-.53-1.29-.24-.82-.67-1.55-.89-2.34-.12-.45-.46-.9-.63-1.36s-.59-1.12-.85-1.7c-.65-1.46-1.32-2.88-2.11-4.27-.4-.7-.8-1.39-1.23-2.06a24.81,24.81,0,0,1-1.32-2.75c-.42-.89-.94-1.69-1.31-2.61-.6-1.47-1-3-1.65-4.47a63.73,63.73,0,0,0-3.44-6.61,43.63,43.63,0,0,1-3.52-9.14c-1.11-3.83-2.41-7.72-3.89-11.42a49.53,49.53,0,0,1-2.79-7.64A13.4,13.4,0,0,0,570,504c-.26-.69-.36-1.42-.58-2.12a45.14,45.14,0,0,0-2.14-5.53c-.43-.91-.87-1.82-1.24-2.75-.26-.67-.68-1.25-.91-1.93-.4-1.24-.84-2.47-1.3-3.69-.53-1.4-1.37-2.67-1.86-4.08s-.9-3.05-1.48-4.54c-.52-1.33-1.32-3.28-2.9-3.56a14,14,0,0,0-2.42,0h-3.68a11.71,11.71,0,0,0-2,0c-1.43.27-2.4,2.27-2.86,3.47-.7,1.8-1.18,3.71-1.75,5.55a13.38,13.38,0,0,0-.77,3.48,23.24,23.24,0,0,1-.13,3c-.19,1.14-.59,2.22-.72,3.37a34.28,34.28,0,0,0-.2,4.06,16.7,16.7,0,0,1-.11,4.36,9.6,9.6,0,0,1-1.82,2.93,20.76,20.76,0,0,1-3.3,3.26c-.44.36-.9.71-1.34,1.06.07.26.15.53.22.8a32.05,32.05,0,0,1,.93,3.87c.16,1,.43,2.06.59,3.1.09.55.15,1.14.29,1.68s.42,1.13.55,1.76c.19.94.32,1.89.58,2.82s.61,2,.8,3.07.38,2,.58,3c.23,1.2.66,2.29,1,3.48.52,2.13.69,4.32,1.3,6.44a62.66,62.66,0,0,1,1.51,6.15c.5,2.66,1.36,5.27,2,7.91.53,2.29,1.29,4.54,1.73,6.85.54,2.76,1.13,5.52,1.57,8.29.21,1.37.6,2.68.89,4,.26,1.18.4,2.37.7,3.53a42.67,42.67,0,0,1,1.39,7.76c.13,1.61.62,3.18.87,4.77.19,1.2.38,2.4.56,3.6.15,1,1.6,9.87-.84,9.13-.24-.83-.4-1.7-.64-2.53-.47-1.63-.48-3.28-.85-4.92s-.9-3-1.38-4.54-.83-3.16-1.17-4.74c-.36-1.73-1-3.36-1.47-5.06-.3-1.17-.52-2.35-.85-3.51s-.78-2.29-1.18-3.42c-1-2.78-1.64-5.6-2.44-8.42-.35-1.23-.8-2.41-1.17-3.63s-.62-2.55-.9-3.82c-.67-3.15-1.36-6.3-2-9.45-.55-2.61-1.17-5.24-1.88-7.82a30.32,30.32,0,0,1-1.18-7.51c0-2.38-.75-4.61-.95-7a61.32,61.32,0,0,0-.86-7.65c-.41-1.89-.92-3.77-1.24-5.68-1,.79-1.85,1.65-2.85,2.39a34.67,34.67,0,0,1-3.44,2.14c-1.44.83-2.75,1.69-4.43,1.74-1.49.05-2.91.06-4.42.2l-6.43,3a8.94,8.94,0,0,1,.61,2.33,27.51,27.51,0,0,1,.33,3.84c0,1.38.22,2.73.21,4.11,0,2.75.14,5.46.23,8.21.11,3.35.41,6.68.4,10a61,61,0,0,0,.16,6.63c.2,2,.35,3.9.52,5.85.09,1,.12,2,.2,3,.11,1.28.44,2.54.55,3.83.24,2.69.07,5.42.47,8.09a43.38,43.38,0,0,1,.4,4.56c.06,1.73.37,3.43.43,5.16.1,3.06.55,6.08.68,9.14s.45,5.9.6,8.86c.27,5.13,1,10.32-.21,15.39-.2.81-.32,1.66-.54,2.46s-.67,1.64-1,2.48a19.82,19.82,0,0,1-.83,2c-.38.84-.61,1.74-1,2.58a14.78,14.78,0,0,1-3.39,4.78,21.58,21.58,0,0,0-3.89,4.68c-.63,1-1.16,2.83.21,3.35a5,5,0,0,0,3.29-.24,9.06,9.06,0,0,0,1.77-1.45,13.32,13.32,0,0,0,1.29-1.41c.64-.78,1-1.75,1.67-2.5a27.48,27.48,0,0,0,1.71-2.16c.33-.45.62-.93.91-1.4a20.16,20.16,0,0,0,1.37-2.08c.4-.84.84-1.68,1.21-2.53a5,5,0,0,1,1-1.8,1.59,1.59,0,0,1,1-.64,1.17,1.17,0,0,1,1.26.85,6,6,0,0,1,.11,2,4.47,4.47,0,0,1-.62,2.42c-.53,1-1,2.08-1.49,3.14-.58,1.26-1.33,2.41-2,3.64-1,1.86-2.29,3.5-3.21,5.39-.41.82-.51,1.41.49,1.75a5.52,5.52,0,0,0,3.41.07,14.73,14.73,0,0,0,2.22-1.28c1.09-.73,3.08-.54,4.33-.41,1.64.16,3.23.68,4.86.81,2.89.23,5.7.88,8.61.87a19.16,19.16,0,0,0,4.34-.32c.93-.22,1.82-.48,2.73-.76.43-.14.86-.09,1.26-.19s.53-.34.82-.49a40,40,0,0,1,3.91-2,32.14,32.14,0,0,0,3.62-1.45c1.54-.82,3-1.66,4.61-2.42s3.2-2,4.82-2.91,2.85-1.81,4.25-2.8,2.53-2,3.8-3a40.42,40.42,0,0,0,4.47-4.21c4.14-4.43,9.29-8.1,12.79-13.09.88-1.26,1.8-2.5,2.66-3.78a32.16,32.16,0,0,0,1.61-2.94c.52-.95.82-2,1.26-2.95.56-1.25,1-2.54,1.48-3.83a26.19,26.19,0,0,0,1.3-4.26,29.85,29.85,0,0,0,.35-3.65c.08-1.31.21-2.66.23-4A31.37,31.37,0,0,0,600,583.68ZM535,627a22.44,22.44,0,0,1-2.43,4.11c-.37.59-.86,1.08-1.25,1.66a13.67,13.67,0,0,1-.85,1.29,5.85,5.85,0,0,1-1.79,1.38,5.29,5.29,0,0,1-.79.51c-.95.22-.33-1.66-.27-2.12a23.31,23.31,0,0,1,1-4.2c.19-.55.47-1.1.64-1.66.21-.73.23-1.49.4-2.23a37,37,0,0,0,.84-4.7,56.79,56.79,0,0,0,.28-6.4c0-2.2.09-4.42-.1-6.63-.25-2.65-.23-5.33-.67-8-.51-3-.58-6.07-.86-9.08q-.89-9.3-2-18.56c-.55-4.6-1.23-9.13-1.48-13.76-.13-2.25-.42-4.51-.66-6.76a50.24,50.24,0,0,0-1.06-5.44c-.43-2-.56-4-.88-6a34.31,34.31,0,0,1-.45-5.81,17.88,17.88,0,0,0-.08-3c-.14-.94-.47-1.85-.63-2.8a44.87,44.87,0,0,0-1.06-5.38c-.23-.79-.35-1.34.46-1.88a2.58,2.58,0,0,1,1.54-.19l.66.22c-.17.52.54.55.89.67s.56.16.82.65a16.15,16.15,0,0,1,1.58,4.06c.57,2.45,1.07,4.92,1.65,7.37s.83,5.22,1.24,7.83c.44,2.84.93,5.63,1.16,8.5s.58,5.67.76,8.52a78.49,78.49,0,0,0,.89,8.93,43.63,43.63,0,0,0,1.21,6.41c1.46,4.36,3.24,8.53,4.09,13.08.3,1.6.37,3.18.52,4.8.13,1.4.51,2.71.71,4.09a52.75,52.75,0,0,1,.15,7.44c0,2.82-.41,5.65-.62,8.46a44.82,44.82,0,0,1-.87,7.12A67,67,0,0,1,535,627Zm12.5-2.6a7,7,0,0,1-1.53,4.2,15.26,15.26,0,0,1-1.67,1.23c-.8.59-1.5,1.35-2.25,2-1.22,1.06-2.51,2.33-4.21,2.15a3.35,3.35,0,0,1,.4-1.28,15.33,15.33,0,0,1,1.12-2.17c.9-1.56,1.82-3.12,2.6-4.74a24.38,24.38,0,0,0,1.6-5.3c.35-1.49.76-3,1-4.49.05-.39.12-.79.17-1.2l.19-2.19a12.54,12.54,0,0,1-.19,2.19l0,.46a1.7,1.7,0,0,1,1.72.44,10.46,10.46,0,0,1,.54,2.94A27.33,27.33,0,0,1,547.51,624.36Zm19.61-9.79c-.11,1-.39,2.08-.58,3.11a5.41,5.41,0,0,1-2.29,3.05c-2.07,1.63-4.4,2.87-6.37,4.64-.76.67-1.62,1.85-2.72,1.92-.39,0-1.27-.1-1.43-.59-.1-.31.17-.64.25-.93s.15-.7.25-1a12.65,12.65,0,0,1,.78-1.39c1.49-2.78,2.36-5.89,3.66-8.75,1.22-2.66,2.44-5.3,3.59-8a3.28,3.28,0,0,0,.48-1.71l0,0-1.51,1.94a4.6,4.6,0,0,1,1.51-1.94l0,0v0a4.78,4.78,0,0,1,.91-.52,2.81,2.81,0,0,1,2.13,1.1c1.33,1.52,1.38,3.95,1.39,5.84A32.68,32.68,0,0,1,567.12,614.57Zm2.66-35.66c-.56-2.34-1.42-4.6-1.92-7-.59-2.78-1.21-5.58-2-8.31-1-3.38-2.16-6.72-3.09-10.14s-1.74-6.73-2.81-10c-1-3-1.86-6-2.81-8.93s-1.54-5.85-2.34-8.78c-.33-1.22-.73-2.42-1.06-3.64-.41-1.51-.69-3-1.1-4.57-.65-2.42-1.5-4.8-2-7.26-.23-1.2-.41-2.41-.65-3.61-.2-1-.54-2-.69-3a20,20,0,0,0-.36-2.32c-.36-1.37-.72-2.73-1-4.12l-.39,3.35a13.37,13.37,0,0,1-.2-4.59,10.62,10.62,0,0,1,.6-2.36c.9-.15,1,3.1,1.11,3.56a31.36,31.36,0,0,0,1.2,4.86c.7,2.36,1.1,4.81,1.86,7.15.69,2.15,1.3,4.33,2,6.49.87,2.85,1.55,5.76,2.35,8.62.28,1,.7,2,1,3,.33,1.3.53,2.6,1,3.87.5,1.49,1.13,2.91,1.58,4.42s.91,3,1.43,4.55a69,69,0,0,1,2.17,6.61c.34,1.42.67,2.79,1.08,4.19.36,1.23.62,2.51.91,3.76.25,1.09.46,2.2.75,3.28a16.13,16.13,0,0,0,1.49,3.31,7.35,7.35,0,0,1,.66,1.8,17,17,0,0,0,1.05,2.35c.52,1.1,1.07,2.2,1.48,3.35a31.16,31.16,0,0,1,1.39,6.19c.26,1.79.57,3.57.72,5.37a42.17,42.17,0,0,0,1.42,8.19,39,39,0,0,1,1.6,10.18c0,1.3-.07,2.59-.16,3.88s0,3.15-.8,4.41c-.17.27-1.06,1.4-1.39,1.33a7.65,7.65,0,0,1,.07-2.7,29.69,29.69,0,0,0,.08-4.9,52,52,0,0,0-1.26-9.3C571.61,587.27,570.78,583.07,569.78,578.91Zm19.6,28.88a4.18,4.18,0,0,1-1.07,1.6c-2.23,2.71-5.47,4.29-8.13,6.54a13.49,13.49,0,0,1-5.32,3.15,3.35,3.35,0,0,1-1.51.07c-.09-.38.65-1.18.85-1.44.52-.7,1-1.43,1.55-2.11a22.92,22.92,0,0,0,1.71-2.71,15,15,0,0,0,1.4-2.58c1.16-3.06,2.35-6.11,3.42-9.2,1-2.9,2.08-5.79,2.84-8.77,0-.12.06-.26.09-.41a3.85,3.85,0,0,0-1.08-.08l1.54-1.11a2.21,2.21,0,0,0-.46,1.19,3.45,3.45,0,0,1,1.57.74,3.4,3.4,0,0,1,2,2.3,16.84,16.84,0,0,1,.35,3.95c.07,2.13.24,4.27.27,6.4A11.34,11.34,0,0,1,589.38,607.79Z"/><path class="cls-6" d="M536.5,510.36a9.82,9.82,0,0,0-.54-1.49c-.38-.79-.68-1.28-1.6-1.4l1,1a3,3,0,0,0-1.16.11c-1.39.63-1,2.3-.82,3.51,0,.23.07.45.11.68l.25-.21C534.63,511.8,535.57,511.08,536.5,510.36Z"/><path class="cls-6" d="M761.78,635.77q4.68-6.35,8.72-13.11l2.58-4.8c1.56-2.91,3.1-5.82,4.9-8.6,1.49-2.33,3.26-4.45,4.76-6.77a45.31,45.31,0,0,0,4.12-8.74c1.14-3.08,2.27-6.26,3.18-9.41a53.23,53.23,0,0,0,1.6-26.86c-.28-1.3-.3-2.69-.47-4a18.31,18.31,0,0,0-1.46-4.13c-.51-1.29-.73-2.68-1.3-4a10.65,10.65,0,0,0-1.34-1.92,30.77,30.77,0,0,0-2.13-2.52c-.48-.5-.73-1.11-1.42-1.27a5.84,5.84,0,0,0-2,.05,11,11,0,0,0,0,2.57,20.13,20.13,0,0,1-.36,4.24,36.75,36.75,0,0,1-1,3.87,6.17,6.17,0,0,1-2.18,2.86,2.78,2.78,0,0,1-2.61.87c-1-.3-1.56-1.4-2.51-1.84s-2.29-.46-3.38-.9a9.94,9.94,0,0,1-3-2.08,6.34,6.34,0,0,1-1.65-3.09,14.33,14.33,0,0,1-.74-3.41,43.53,43.53,0,0,1,.82-7.62c.43-3.14,1.72-6,2.06-9.17.17-1.66.49-3.28.73-4.93s.11-3.16.35-4.74c.33-2.11.85-4.2,1.29-6.3a36.1,36.1,0,0,0,.53-4.16c.3-3.42,2.22-7.22-.62-10.08-.23-.22-1-1-1.43-1s-.67,1.07-.81,1.48a69.13,69.13,0,0,0-2.51,9.39,67.87,67.87,0,0,0-1.16,7.76c-.1,1.76-.34,3.52-.51,5.28-.33,3.42-.92,6.79-1.47,10.18a57.49,57.49,0,0,0-.74,9.44c0,1.44.39,3.61-.41,4.92-.67,1.1-1.64,1.77-2.1,3a7.65,7.65,0,0,0-.23,2.78c0,1.11,0,2.21-.11,3.31-.24,2.48-.93,5.06-3.07,6.6a6,6,0,0,1-4.54.81c-2.47-.57-2.38-3.47-2.55-5.46a65.77,65.77,0,0,0-1.2-8.16,21.46,21.46,0,0,1-.23-4.67c0-1.47-.1-3,0-4.42.16-1.73.62-3.42.81-5.16s.38-3.3.66-4.94c.31-1.87.83-3.69,1.29-5.53.51-2,1-4.05,1.54-6.07a36.07,36.07,0,0,0,1.14-10.35c0-2.89.09-5.8,0-8.68-.06-2-.42-4-.5-6a9,9,0,0,0-.5-2.42,14.33,14.33,0,0,1-.73-1.88,3,3,0,0,1,1.49-3.32c.34-.17.36-.05.6-.39a2.78,2.78,0,0,0,.36-1.26c.18-1.55-.52-3-.94-4.5-.57-2-.29-3.63,1.41-4.95a4.42,4.42,0,0,1,2.26-.76c.85-.16,1.71-.18,2.56-.36s1.94-.65,2.92-.76c1.2-.12,2.39.08,3.59-.13.69-.12,1.64-.15,1.28-1-.27-.65-.88-1.5-1.62-1.61l.09-.12-.42.69a4.89,4.89,0,0,1-2.53-.46,3.08,3.08,0,0,0-.7-.3c-.63-.2-1.26-.41-1.89-.64a9.89,9.89,0,0,1-2.49-1.6c-.7-.54-1.68-1.13-2-2a3.27,3.27,0,0,0-2-1.85,1.2,1.2,0,0,0-1.16.53,3.83,3.83,0,0,1-2.09.9c-1.34.07-2-.82-2.73-1.78a6.73,6.73,0,0,0-1.54-1.7,9.83,9.83,0,0,1-1.52-1.64,4.58,4.58,0,0,0-2.58-.51c-.8-.08-1.61-.15-2.42-.21a2.33,2.33,0,0,0-.52,1.32c-.22.74-.4,1.48-.55,2.24.06.6.27.56.74,1.17,3.34,4.24,7.78,7.58,10.06,12.61.66,1.44,1.42,3.05.78,4.62-.32.79-.51.93-1.33,1a10.19,10.19,0,0,1-4.46-.37,16.38,16.38,0,0,1-2.39-1.48,12.93,12.93,0,0,1-3.1-2.94c-.52-.8-1.06-1.6-1.6-2.39s-1.16-1.39-1.77-2.06c-2.12-2.48-4-5.14-6-7.71a29.92,29.92,0,0,0-1.88-2.33c-.71-.62-1.44-1.21-2.2-1.77-1.07-.92-2-2-3.08-2.9a5,5,0,0,0-2.79-1.61c-.48.07-1,.12-1.47.15a4.31,4.31,0,0,0-.95,0,3.5,3.5,0,0,0,.62,1.29q.62.8,1.2,1.62c.52.91,1.05,1.81,1.58,2.71a60.56,60.56,0,0,1,3.78,6.09,7.63,7.63,0,0,0,.61,1.4c.2.23.54.32.78.51a16.63,16.63,0,0,1,1.27,1.51c.66.73,1.29,1.48,1.87,2.26.79,1.15,1.59,2.3,2.4,3.43a13.29,13.29,0,0,1,1.67,2.61,9.91,9.91,0,0,1,.2,5.1c-1.91,0-3.6,2.15-5.56,1.09a9.47,9.47,0,0,1-2.61-2.06,10.81,10.81,0,0,1-1.53-3.69c-.66-1.91-2.08-3.43-2.6-5.43-.35-1.31-.36-3.07-1.24-4.15s-1.92-1.33-2.92-2a4.94,4.94,0,0,0-2.65-1.2,1.3,1.3,0,0,0-1,.36,13.14,13.14,0,0,0,1.74,2.83c.94,1.44,2.24,2.58,3.19,4a40.21,40.21,0,0,1,2.71,4.78,14,14,0,0,1,1.58,4.35c.18,1.46.14,3.14-1.33,3.77-1.17.5-2.59.23-3.73.79a4.13,4.13,0,0,0-1.51,1.91c-.2.59.22,1.07.1,1.62-.07.29-.17.27-.47.36a4.3,4.3,0,0,0-1,.44,7,7,0,0,1-2.09.67,5.89,5.89,0,0,0-2.15.8,3.37,3.37,0,0,0-.7.38,3.62,3.62,0,0,0-.23.68,4.28,4.28,0,0,0-.52,1.45c-.64.1-1.3.12-1.94.24s-1.39.44-2.13.51c-1.48.13-1.86-.45-2.37-1.78a23.8,23.8,0,0,1-.81-3.2c-.23-1-.68-2-.9-3a30.62,30.62,0,0,0-1.08-3.53c-.48-1.38-.69-2.84-1.1-4.23s-1.12-2.89-1.7-4.35-.69-2.86-1.6-4a22.09,22.09,0,0,0-2.36-2.38,6.54,6.54,0,0,0-2.53-1.76,3.8,3.8,0,0,0-2.38.17c-.47.23-1.5.7-1.74,1.21s.91,1.55,1.24,1.94c1.43,1.71,2.74,3.53,4,5.33a20,20,0,0,0,1.56,2.1,10.52,10.52,0,0,1,1.66,2.51c1.47,2.82,3,5.62,4.58,8.4,1.24,2.19,1.53,4.73,2.59,7a9.23,9.23,0,0,1,1,4,1.27,1.27,0,0,1-.18.92,2,2,0,0,1-.94.35,13.3,13.3,0,0,1-2.35.19c-.75.06-1.44.35-2.19.37-.53,0-1.07,0-1.6,0a3.93,3.93,0,0,1-1.13-.13c-.42-.13-.42-.2-.62-.57a15,15,0,0,1-.66-1.92c-.3-.78-.75-1.49-1.06-2.27-.86-2.08-2.08-4.07-3.11-6.08-1.31-2.58-2.95-4.95-4.49-7.39-.57-.89-1.11-1.8-1.64-2.71-.63-1.08-.9-2.28-1.51-3.37a23.18,23.18,0,0,0-2.6-3.48c-.81-1-1.47-2-2.3-3a9.25,9.25,0,0,0-2.89-2.31,4,4,0,0,0-2.36-.43c-.91.41,0,2.55.28,3.15a41.51,41.51,0,0,0,3.1,5.81c1.28,2,2.46,4,3.59,6,.53,1,.95,2,1.41,3,.35.74.84,1.38,1.26,2.08.56.94,1,1.92,1.63,2.83a15,15,0,0,1,1.49,2.65c.51,1.2,1.13,2.32,1.67,3.5a20.66,20.66,0,0,1,1.06,3.92,26.78,26.78,0,0,1,.87,4.33c.07,1.08.44,2.1.52,3.17a5.55,5.55,0,0,1-.78,2.91c-.17.34-.37,1.05-.75,1.18a5.61,5.61,0,0,1-1.53,0h-1.79a14.39,14.39,0,0,1-3.65-.26c-.61-.15-1.63.07-2-.53a3,3,0,0,1-.19-1.25,12.5,12.5,0,0,0-.79-2.66c-.78-2.29-1-4.74-2-7s-1.94-4.43-3.05-6.57c-.57-1.1-1.21-2.09-1.86-3.14a16.32,16.32,0,0,1-1.15-2.88c-.84-2.2-2.18-4.19-3.07-6.38-.48-1.19-1.32-2.16-1.87-3.31a15.61,15.61,0,0,0-1.14-2.23,27.87,27.87,0,0,0-2.77-3.54c-.33-.34-1.11-1.28-1.68-1.14a5.75,5.75,0,0,0,.89,1.63,11.82,11.82,0,0,1,.86,1.84c.74,1.84,1.65,3.63,2.55,5.4a42.58,42.58,0,0,0,2.35,4,13.77,13.77,0,0,1,1.51,2.8,7.88,7.88,0,0,1,.72,3.48c0,.57-.37,1.46-.15,2,.08.2.4.52.5.74.19.39.39.76.6,1.14.68,1.26,1.12,2.63,1.71,3.93,1.12,2.48,1.42,5.19,2.42,7.71a31.54,31.54,0,0,1,1.44,3.68c.4,1.57.66,3.18.93,4.77a25.23,25.23,0,0,0,.92,3.22c.27.87.36,1.88.54,2.78s.22,1.64.37,2.45a9.09,9.09,0,0,1,.34,2.93c0,.35-.16.69-.22,1a6.32,6.32,0,0,1-.15,1.09c-.13.3-.29.37-.55.55s-.68.59-1,.77-.57,0-1,0a13.07,13.07,0,0,0-1.77,0,10.14,10.14,0,0,1-1.72-.55,8.42,8.42,0,0,0-1.42,0,5.74,5.74,0,0,1-1.49-.18c-.23,0-.84-.18-1-.37-.28-.39.12-1.51.19-2,.36-2.28-.26-4.28-.8-6.5a44.24,44.24,0,0,0-3.55-9.35c-1.75-3.5-3.13-7.19-5-10.65-.83-1.54-1.73-3.05-2.41-4.66a37,37,0,0,0-2.76-5.44c-1.14-1.8-2.57-3.39-3.62-5.25a31.62,31.62,0,0,1-1.69-3.7,19.16,19.16,0,0,0-2.17-4.57,13.28,13.28,0,0,0-2.53-2.05c-.57-.44-.81-.32-1.35,0-.31.2-.56.28-.72.59-.26.49-.17,1.41-.69,1.74a1.77,1.77,0,0,1-.54-.88c-.16-.46-.53-.78-.69-1.23a7.31,7.31,0,0,1-.36-1.12c-.14-.67.24-1.08-.57-1.24a8,8,0,0,0-1.47,0c-.57,0-.9,0-1.06.69a2.72,2.72,0,0,0,.32,1.38,10.18,10.18,0,0,0,1.5,2.57,41.69,41.69,0,0,1,2.23,4.3c.93,1.72,2.19,3.23,3.16,4.92s1.79,3.18,2.75,4.72a23.22,23.22,0,0,1,1.78,3c.51,1.17.93,2.38,1.43,3.55.65,1.55,1.5,3,2,4.61.29.85.55,1.68.9,2.5.49,1.12,1.07,2.17,1.47,3.33s.89,2.47,1.37,3.7c.82,2.1.89,4.32,1.6,6.44a29.16,29.16,0,0,0,1.39,2.8c.46,1,.81,2,1.19,3.06.52,1.39.64,2.88,1.16,4.26.17.46.42.89.6,1.35.32.82.53,1.7.8,2.54a18,18,0,0,1,1,3.13,23.6,23.6,0,0,1,0,2.66,11.65,11.65,0,0,1-.09,2c-.09.51-.07.77-.63.8a15.3,15.3,0,0,1-2.61-.27c-.5,0-1,0-1.54-.13a5.72,5.72,0,0,0-1.64-.3,3.61,3.61,0,0,1-2.4-.21c-.35-.16-.87-.18-1.13-.48s-.18-.84-.3-1.19a11.16,11.16,0,0,1-.51-1.61,33.54,33.54,0,0,0-1-3.57c-.51-1.55-1-3.06-1.63-4.56-.34-.8-.59-1.62-.92-2.42s-.75-1.41-1.12-2.12c-.72-1.38-1.29-2.84-2-4.23a23.59,23.59,0,0,0-1.72-2.69c-.57-.8-1.08-1.63-1.61-2.46s-1.18-1.6-1.72-2.44c-2.39-3.76-4.6-7.65-6.9-11.46-1.46-2.42-2.63-5-4.11-7.39a56,56,0,0,1-3.35-5.5c-.48-1-.82-2.12-1.33-3.13a12.07,12.07,0,0,1-1.19-2.71,23.77,23.77,0,0,0-1.82-4.36,27.59,27.59,0,0,0-2.94-5.62c-.38-.5-1.53-1.54-2.22-1-.49.41-.32,1.8-.25,2.31a16.4,16.4,0,0,0,1.59,4.73,55.43,55.43,0,0,0,3.66,5.64c1.28,2,2.26,4.09,3.44,6.12,1,1.76,1.85,3.6,3,5.32,1.26,2,2.29,4.05,3.45,6.1a51.39,51.39,0,0,0,3.55,5.33,60.55,60.55,0,0,1,3.67,5.95c.37.64.75,1.28,1.08,1.94.66,1.32,1,2.76,1.64,4.08a23.94,23.94,0,0,1,1.5,3.54c.41,1.3.83,2.59,1.24,3.89.32,1,.47,2.05.74,3.08s.64,1.8.89,2.74a17.87,17.87,0,0,0,1.94,4.7,37.41,37.41,0,0,1,1.87,4,22.84,22.84,0,0,1,1.46,4.72,12.17,12.17,0,0,1,.13,3.81A2.57,2.57,0,0,1,646,550.2a8.67,8.67,0,0,1-1.58.92,6.63,6.63,0,0,1-2.87.17,9.34,9.34,0,0,0-1.67-.14,4.36,4.36,0,0,1-1,0c-.86-.19-1.49-1.36-1.72-2.16-.41-1.46-.48-3.16-1.89-4.09a12.11,12.11,0,0,0-2.13-1,4.15,4.15,0,0,1-1.63-1.59,9,9,0,0,1-1.07-1.31,15,15,0,0,1-.71-1.71c-.46-1.22-.76-2.5-1.13-3.75a138.8,138.8,0,0,0-8.76-21.06,73.31,73.31,0,0,0-4.08-7.1c-1.09-1.69-2-3.46-3.13-5.13-1.34-2-2.6-4.09-4-6.09-1.16-1.71-2.1-3.52-3.14-5.29-.78-1.32-1.42-2.74-2.27-4-.55-.82-1.2-1.57-1.68-2.44-.82-1.46-1.36-3.1-2-4.64-.77-1.78-1.35-3.66-2.17-5.42a12.09,12.09,0,0,0-1.82-3.08c-.26-.27-1.36-.82-1.78-.53-.16.11-.31.73-.44.9s-.45.39-.5.55a4.27,4.27,0,0,0,.21,1.65c.14.7.32,1.4.5,2.08a16.9,16.9,0,0,0,.9,2.77c.31.69.74,1.32,1.08,2,1.88,3.75,3.57,7.56,5.73,11.17,1.1,1.85,2.4,3.57,3.59,5.36,1.39,2.09,3,4,4.5,6,.93,1.28,1.66,2.7,2.47,4s1.53,2.44,2.2,3.72,1.51,2.8,2.21,4.22,1.11,2.65,1.64,4c.47,1.16,1,2.32,1.36,3.5.53,1.56.8,3.18,1.19,4.77.7,2.81,1.57,5.58,2.35,8.37a31.23,31.23,0,0,0,1.67,4.31c.52,1.19.92,2.41,1.43,3.6,1,2.27,2.1,4.52,2.92,6.85.62,1.74,1,3.57,1.67,5.29.34.89.74,1.76,1.09,2.65a14.06,14.06,0,0,1,1,3,6.92,6.92,0,0,1-.54,4.11,1.47,1.47,0,0,1-.79.63,11.69,11.69,0,0,1-1.52.81,7.8,7.8,0,0,1-2.6.08c-1,0-2-.73-3-.75-2.24,0-3.53-1.39-3.82-3.66a11.24,11.24,0,0,0-.43-2.37c-.2-.6-.42-1.18-.6-1.78-.51-1.74-1.1-3.42-1.73-5.12-1-2.57-1.81-5.18-2.81-7.74-.44-1.11-.72-2.26-1.07-3.39-.49-1.59-1.16-3.11-1.7-4.67a34.45,34.45,0,0,0-1.58-4.06c-.56-1.11-1.12-2.22-1.73-3.3-1-1.74-1.89-3.56-3-5.23a67.45,67.45,0,0,0-4.43-6.18,38.49,38.49,0,0,1-3.88-5.51c-1.41-2.4-2.75-4.83-4.18-7.23-1.24-2.09-2.33-4.22-3.46-6.38-1.57-3-3.25-6-4.63-9.16-.83-1.86-1.84-3.66-2.58-5.55-.38-1-.63-2-1.08-2.94-.34-.73-.75-1.44-1.09-2.18a25.61,25.61,0,0,0-1.8-4.16,30,30,0,0,0-2.06-2.56,3.09,3.09,0,0,0-1.42-1.05c-.64-.15-1,.1-1.08.71a4.7,4.7,0,0,0,.54,2.16c.33,1,.92,1.76,1.2,2.72a19.52,19.52,0,0,0,1,2.07c.55,1.32,1.11,2.67,1.58,4s1.22,2.78,1.69,4.24,1.1,2.57,1.51,3.93c.59,2,1.71,3.71,2.45,5.61.43,1.11.72,2.25,1.14,3.36.56,1.49,1.24,2.93,1.8,4.43,2.38,6.47,5.91,12.4,8.36,18.83,1.93,5.06,3.64,10.24,5.94,15.14,1.21,2.58,2.1,5.28,3.44,7.8a53.68,53.68,0,0,1,3.09,6.72c.66,1.8,1.17,3.74,2,5.47.44.94,1,1.74,1.52,2.65s.89,1.77,1.3,2.65a6.05,6.05,0,0,1,.21,4,7.54,7.54,0,0,1-1.24,1.79c-.33.41-.69.77-1,1.19-.13.17-.25.15-.33.34a2.71,2.71,0,0,0,0,.57,25.87,25.87,0,0,0,.61,2.88,9.11,9.11,0,0,1,.1,3,5.53,5.53,0,0,1-.73,2.11,7.94,7.94,0,0,1-.85.78,2,2,0,0,1-.47.44,4,4,0,0,1-1.58.4,3.06,3.06,0,0,1-1.87,0,3.64,3.64,0,0,0-1.2-.37,1.51,1.51,0,0,1-1.13-.57,6.89,6.89,0,0,1-1.51-2.09,9.41,9.41,0,0,1-.3-2.43c-.07-.66-.19-1.32-.31-2-.28-1.56-.81-3-1.22-4.56-.71-2.7-1.85-5.21-2.7-7.86-.63-2-1.21-3.92-1.89-5.87-.59-1.68-1.07-3.37-1.82-5-.55-1.18-1.07-2.36-1.63-3.52-1-2-1.92-4-2.74-6.05-.92-2.27-1.68-4.61-2.66-6.86s-1.82-4.33-2.66-6.49c-1.93-5-3.34-10.19-5.3-15.18-.8-2.06-1.8-4.06-2.6-6.13-.57-1.46-1.07-2.93-1.67-4.37-.8-1.93-1.5-3.91-2.22-5.87-.44-1.19-.75-2.41-1.22-3.59-.36-.92-.53-1.9-.9-2.82-.3-.74-.65-1.46-1-2.19s-.74-1.53-1.13-2.29c-.54-1.05-1.74-2.57-3.07-2.09-.8.29-.65,1.31-.66,2s.56,1.58,0,1.89c-42.2,24.09-70.25-67.84-70.25-67.84v-6.35l1.06-3.36,3.23-1,4.07.84L506,412.1s-1.13,5.76-1.41,6.18-2,6.46-2,6.46,3.94,7,5.62.84S507.92,412,510.73,410s4.34-2,5.83.42,6.26-2.39,2.46,6-14.81,26.57-7.47,24,8.47-28.6,14.08-28.88,9.69,2.25,4.77,10.54-14.55,21.84-13,24.83l1.89,1.65c1.79.58,3.2-1,4.27-2.15a6.64,6.64,0,0,0,.55-.51,1.42,1.42,0,0,0,.18-.55c.26-.88.49-1.75.8-2.61.66-1.84,1.17-3.73,2-5.51.69-1.51,1.38-3,2.11-4.51,1.21-2.46,2.72-4.67,4.16-7,1.08-1.74,1.64-3.7,2.7-5.45.56-.92,1.07-1.86,1.67-2.76.28-.44.46-.9.74-1.34,1.05-1.63,2.84-1.57,4.09-.25.94,1,2.38,1.72,2.06,3.33a8.38,8.38,0,0,1-.67,1.5c-.26.6-.4,1.23-.64,1.83a49.85,49.85,0,0,1-2.31,4.48c-.77,1.46-1.41,3-2.16,4.41s-1.83,2.89-2.52,4.44a29.92,29.92,0,0,1-2.2,4.29c-1.07,1.65-2.15,3.31-3.08,5.05-.46.86-.9,1.75-1.34,2.63a6.8,6.8,0,0,0-.51,2.65c0,.31-.14,1.37.11,1.61s.62,0,.64,0c.63-.18,1.37-1.14,1.73-1.58,1.6-1.93,3-4.05,4.4-6.12,1.16-1.71,2.42-3.35,3.55-5.08,1.46-2.21,2.78-4.52,4.18-6.78.39-.63.76-1.27,1.17-1.89a24.9,24.9,0,0,0,1.87-2.88,35.07,35.07,0,0,1,1.78-3.38,12.35,12.35,0,0,1,2.35-3.06c.81-.65,2.4-1.77,3.57-1.34.58.21.77.8,1,1.32a5.41,5.41,0,0,1,.38,2.14,9.48,9.48,0,0,1-1.47,4.38,52,52,0,0,1-3.5,5.76c-1.14,1.59-2.38,3.14-3.58,4.68-1,1.27-1.95,2.55-3,3.79s-2,2.69-3,4c-.52.67-1,1.36-1.51,2.06a33.73,33.73,0,0,0-2.28,3.77c-.21.39-3.71,5.19-2.09,5.32.37,0,.87-.41,1.15-.59a33.49,33.49,0,0,0,2.62-2.14,35.29,35.29,0,0,0,5.59-5.74c1.6-2.06,3.08-4.19,4.56-6.33,1.11-1.6,2-3.3,3.07-4.93.6-.94,1.32-1.8,1.93-2.74.41-.64.81-1.28,1.19-2,.94-1.61,2-3.15,3-4.71a26.23,26.23,0,0,1,2.17-2.75,15.28,15.28,0,0,1,2.23-2.32,1.4,1.4,0,0,1,.86-.3,4.66,4.66,0,0,1,2.36,1.4c.61.62.32,2,.2,2.77a9.34,9.34,0,0,1-1.13,3.24,47.89,47.89,0,0,1-2.81,4.6c-.52.74-1.08,1.45-1.58,2.21a24.36,24.36,0,0,1-2.09,2.89,58.46,58.46,0,0,0-4.42,4.76c-1.14,1.61-2.48,3-3.7,4.57s-2.4,3-3.65,4.48a14.62,14.62,0,0,0-1.57,2.11c-.22.39-.46.76-.72,1.13a1,1,0,0,0-.32.76v.19a1.06,1.06,0,0,0,1,.29,3.88,3.88,0,0,0,2.73-1.16,43.08,43.08,0,0,0,5.26-5.78c1.9-2.28,3.78-4.53,5.55-6.91a39.15,39.15,0,0,0,3.75-5.49,21.41,21.41,0,0,1,1.87-3.3c.35-.46.73-.89,1.08-1.34a25,25,0,0,1,2.56-3c1-1,2.2-1.87,3.28-2.81a12.15,12.15,0,0,1,2.4-1.55,5.76,5.76,0,0,1,1-.43c.49-.16.65-.2,1.07.06a2.93,2.93,0,0,1,1.52,2.57,5,5,0,0,1-.46,1.24,16.76,16.76,0,0,1-1.69,2.9c-1.5,2.1-3.11,4.06-4.79,6-1.28,1.48-2.76,2.74-4.15,4.11-.64.64-1.18,1.38-1.77,2.07-1,1.19-2.17,2.29-3.17,3.51-.48.59-.91,1.19-1.35,1.8a39.92,39.92,0,0,1-2.63,3,11.26,11.26,0,0,0-2.88,4.44,5,5,0,0,0,3,0,9.1,9.1,0,0,0,2.59-1.95,35.14,35.14,0,0,0,2.55-2.48c2.17-2.4,4.29-4.86,6.33-7.37,1.51-1.87,3.09-3.69,4.55-5.6,1.22-1.6,2.44-3.19,3.65-4.79.83-1.09,1.78-2.06,2.59-3.17a14.78,14.78,0,0,1,2.42-2.81,19.65,19.65,0,0,1,1.73-1.31c.49-.35,1-.75,1.54-.43.78.42.73,1,.66,1.86a3.19,3.19,0,0,1-.6,1.56c-.71,1.06-1.64,2-2.39,3.07-1.36,1.86-2.92,3.46-4.45,5.17s-3.34,3.08-4.89,4.75c-.82.87-1.57,1.8-2.36,2.69a17.61,17.61,0,0,0-1.53,1.94,27.81,27.81,0,0,0-2.53,4.09c-.28.63-.53,1.27-.82,1.89a2.75,2.75,0,0,0-.32.91c.11.09.23,0,.38,0a7.18,7.18,0,0,0,1.73-.14,6.62,6.62,0,0,0,2.42-1.4c1.16-.94,2.26-1.95,3.39-2.92a31.35,31.35,0,0,0,3-2.94c.8-.88,1.7-1.67,2.51-2.54s1.74-1.81,2.51-2.8a36.15,36.15,0,0,1,2.63-3.05,32.52,32.52,0,0,0,3.19-4.66c.55-.8,1.19-1.53,1.73-2.33a14.88,14.88,0,0,1,2-2.4c.83-.82,1.63-1.66,2.47-2.47a3.76,3.76,0,0,1,1-.62c.41-.22.87-.54,1.33-.32a1.11,1.11,0,0,1,.56,1,10.3,10.3,0,0,1-.29,2.87,15.64,15.64,0,0,1-3.49,6.5c-1.21,1.39-2.4,2.83-3.71,4.14-.8.82-1.71,1.51-2.57,2.26a24.93,24.93,0,0,0-2.37,2.45,20.29,20.29,0,0,0-2.22,2.67c-.35.57-1,1.62-.68,2.36.07.2.3.26.5.32a4,4,0,0,0,2.6-.3,9.38,9.38,0,0,0,2.48-1.71c.89-.78,1.77-1.57,2.65-2.37a25.5,25.5,0,0,0,2.92-3.05,40.27,40.27,0,0,1,2.93-3.19c1-1,1.86-2.22,2.88-3.25.66-.67,1.34-1.33,2-2,.93-.93,2-1.77,2.84-2.74a13.75,13.75,0,0,0,1.28-2.28,8.74,8.74,0,0,1,.74-1,3.83,3.83,0,0,1,1.28-1.22c.2-.08.43-.13.64-.2a4.74,4.74,0,0,1,1.51-.39c0,.44.08.88.13,1.32a6,6,0,0,1-.47,2.7,22.83,22.83,0,0,1-1.85,4.17,35.24,35.24,0,0,1-3.28,3.95c-1,1.13-1.94,2.29-2.89,3.45-.52.64-1,1.28-1.56,1.88a8.29,8.29,0,0,0-1.06,1.23c-.14.23.71,2.39,1.84,2.62a4.86,4.86,0,0,0,3.58-1.15c.87-.69,1.69-1.43,2.56-2.14,1.58-1.28,3.45-2.34,4.65-4,.46-.64.78-1.26,1.25-1.92.73-1,1.35-2.13,2-3.16.88-1.33,1.57-2.79,2.47-4.11.64-.93,4.8-8.1,6.34-5.5.42.72,0,1.92-.17,2.63a9.38,9.38,0,0,1-1.17,3c-1.34,2.06-3.11,3.85-4.55,5.84-1,1.44-2.21,2.84-3.12,4.36-.7,1.18-1.26,2.44-1.91,3.65-.3.57-2.53,3.67-.63,3.47,1.19-.12,2.45-1.52,3.24-2.26,1.63-1.54,2.86-3.39,4.54-4.89,2.31-2.08,3.74-4.72,5.74-7.07a15.1,15.1,0,0,0,2.6-4.18,14.21,14.21,0,0,1,1.54-2.48,7.48,7.48,0,0,1,2.6-2.84c.51-.28,1.42-.92,2-.83a5.32,5.32,0,0,1,.36,2.69c0,1.94-1.45,3.87-2.4,5.47-1.29,2.17-2.43,4.39-3.57,6.65a29.79,29.79,0,0,0-1.49,3.25,5.24,5.24,0,0,0-.54,2c1.59.85,2.8-.43,3.69-1.73.76-1.1,1.5-2.2,2.24-3.32,1.31-2,3-3.66,4.28-5.71.82-1.34,1.79-2.56,2.64-3.87.65-1,1.18-2.07,1.89-3a16.15,16.15,0,0,1,2.38-2.51c.43-.37.91-1,1.49-1.16a1.76,1.76,0,0,1,1.22.31c.56.34.59.63.6,1.3,0,2.71-2.17,4.84-3.54,7a80.74,80.74,0,0,0-4.77,8c-.29.58-2.42,4.12-1.32,4.94.6.46,2-.8,2.55-1.11a15.52,15.52,0,0,0,3-2.23,22.58,22.58,0,0,0,3.16-3.6c.88-1.31,1.64-2.68,2.45-4,1.36-2.24,2.49-4.6,3.79-6.87,1-1.74,2.56-4,4.57-4.68,1-.33,1.63-.16,1.88.94a3.3,3.3,0,0,1-.2,1.91,31.41,31.41,0,0,1-2.1,4.18c-1.5,2.64-3.09,5.15-4.43,7.88-.55,1.11-1.18,2.13-1.82,3.19-.45.74-1.67,2.43-1.18,3.35.83,1.58,3.78-1.68,4.22-2.11,1.14-1.13,2.27-2.28,3.4-3.41a48.5,48.5,0,0,0,5-5.08c1.39-1.89,2.26-4,3.79-5.84a63.91,63.91,0,0,1,4.61-5.13c.4-.38,1.82-1.81,2.54-1.5,1.14.49.24,2.81-.07,3.5-1,2.18-2.18,4.35-3.32,6.45a9.07,9.07,0,0,0-1.47,5c0,.37-.12.61.25.74s1.5-.63,1.8-.92c1.56-1.52,1.56-4.05,3-5.64a4.2,4.2,0,0,1,2.38-1.19c1.28,0,1.2,1.51,1.19,2.38a3.21,3.21,0,0,0,1.29,2.79,7.19,7.19,0,0,0,2.87,1.67,8.13,8.13,0,0,0,3-.15,8.34,8.34,0,0,0,1.88-.52c.48-.26.64-.68.94-1.12a39.53,39.53,0,0,0,3.15-5.06,15.61,15.61,0,0,1,2.32-3.81,3.84,3.84,0,0,0,.93-1.59c.34-1,.95-1.9,1.27-2.91.24-.76.34-1.55.6-2.32.32-1,.7-1.9,1-2.9a3.89,3.89,0,0,1,1.13-2c.45-.41,1.57-1.38,2.17-1,.26.18.31.87.4,1.14a4.56,4.56,0,0,1,.5,2.58,16.47,16.47,0,0,1-1.09,2.69,23.56,23.56,0,0,0-1.1,3.36c-.32,1.28-.57,2.56-.89,3.83a27.56,27.56,0,0,0-1,4.17c-.1,1-.36,2.87.79,3.41.88.42,2.53-.76,3-1.47s.9-1.79,1.5-2.61c.9-1.23,2-2.32,2.85-3.61s1.3-2.68,2.08-3.95a36.7,36.7,0,0,0,2.17-4.29,20.86,20.86,0,0,0,1.21-3.68c.25-1,0-1.76,1-2.3,1.84-1.06,5.46-2,5.81,1a10.32,10.32,0,0,1-.17,3.51c-.21.79-.66,1.48-.86,2.28-.32,1.19-.24,2.47-.46,3.69-.15.82-.34,1.63-.46,2.45a8.8,8.8,0,0,0,.1,2.94c.17,1.06-.12,2.56.65,3.41.95,1,2-.22,2.6-1.06.86-1.24,1.34-2.75,2.13-4s1.64-2.25,2.48-3.37c1-1.39,1.7-3,2.59-4.43a7.23,7.23,0,0,0,1.1-2.39,6.81,6.81,0,0,1,.22-1.34,3.22,3.22,0,0,1,4.36-1.69,1.86,1.86,0,0,1,1.1,1.63,15.52,15.52,0,0,1-.41,4.61c-.21.88-.38,1.77-.58,2.66-.27,1.23-.8,2.31-1.11,3.52a15.4,15.4,0,0,0-.28,4c0,.94-.08,1.92,0,2.85.12,1.28,1.36,1.51,2.56,1.49a1.07,1.07,0,0,0,1.17-.6,20.33,20.33,0,0,0,1.76-3.75c.93-2.27,2-4.44,3-6.64a19.65,19.65,0,0,1,1.51-2.53,21.68,21.68,0,0,0,1-2.34,12.52,12.52,0,0,1,1.09-1.32c.24-.35.33-.85.64-1.15a3.3,3.3,0,0,1,2.4-.36c.44.15.65.83.9,1.22a6.81,6.81,0,0,1,1.06,1.92c.32,1.29-.47,2.15-.95,3.32s-.78,2.35-1.32,3.48c-.92,1.95-1.89,3.88-2.84,5.81-.33.67-.77,1.62-.1,2.11.47.35,1.49.23,2,.23a13.22,13.22,0,0,0,3.14-.3A2.87,2.87,0,0,0,747,433a36.05,36.05,0,0,0,3.2-3.68,20.61,20.61,0,0,0,3-7.44,22.63,22.63,0,0,1,1.55-5.35,1.25,1.25,0,0,1,1.47-.7c1.17.27,1.12,2.7,1.11,3.71a17.49,17.49,0,0,1-.44,5.5c-.26.78-.43,1.59-.73,2.34s-.73,1.3-1,2a5.55,5.55,0,0,0-.16,2.2c0,.36-.13.95.14,1.18s1.4-.09,1.64-.29l-2-.18a3.08,3.08,0,0,0,1.36.93c1.21.39,2.4-.54,3.28-1.25a5.08,5.08,0,0,0,.85-.82,4.21,4.21,0,0,0,.55-.65c.24-.45.37-1.05.57-1.52.36-.89.73-1.78,1.11-2.66.26-.58.38-1.18.61-1.77a5.76,5.76,0,0,1,2.86-2.71,4.43,4.43,0,0,1,1.5-.07,1.68,1.68,0,0,1,1,.37,14.37,14.37,0,0,1,1.4.74,3,3,0,0,1,.93,1.72,8.41,8.41,0,0,1,.11,1.42c0,.48.16.94.18,1.42a5,5,0,0,1-.66,2.65c-.22.41-.42.83-.66,1.22s-.65.77-.85,1.16a1.23,1.23,0,0,0,0,1.32,3,3,0,0,0,1.07.47,14.86,14.86,0,0,0,1.85.5c.85.16,1.69.24,2.53.36.53.08,1,.05,1.55.12s.9.35,1.43-.24c.13-.15.29-.29.41-.44a10.13,10.13,0,0,0,.86-1.59c.95-1.5,3.12-2.09,4.77-2.29a7.55,7.55,0,0,1,3.43.65,1.9,1.9,0,0,1,1.05.87c.42.55,1,1,1.38,1.52a4,4,0,0,1,.68,2.53,2.41,2.41,0,0,1-1,1.87c-.8.67-2.61,1.31-2.63,2.55,0,1.45,2.31,2.53,3.51,2.76a1.85,1.85,0,0,0,1.78-.64,12.53,12.53,0,0,0,.81-1.48,3.41,3.41,0,0,1,1.31-1.3,5,5,0,0,1,.94-.61,5.13,5.13,0,0,1,.67-.09,4.47,4.47,0,0,1,2.85.4,6.43,6.43,0,0,1,2,1.81,2.59,2.59,0,0,1,.29,1.91,6.75,6.75,0,0,1-.55,1.34,6.34,6.34,0,0,1-.74,1.47,25.57,25.57,0,0,1-2.15,2A13.39,13.39,0,0,0,795,450a3.06,3.06,0,0,0-.18,2.44c.82,2,3.86-.55,4.7-1.27.39-.33.73-.55,1.13-.84a3.94,3.94,0,0,0,.86-.95,9,9,0,0,1,1.59-1.55,3.83,3.83,0,0,1,2.18-.8,4.32,4.32,0,0,1,2.33.67,4.6,4.6,0,0,1,1.61,1.11c.17.21.39.45.55.66a4.65,4.65,0,0,1,.54,1.89,5.34,5.34,0,0,1-1.12,4.35,12.28,12.28,0,0,1-2,2.39c-.51.38-.59.46-.56,1.09s.22.65.76.46,1-.84,1.37-1.26a16,16,0,0,1,1.61-1.77c.7-.57,1.47-1,2.2-1.54a4.13,4.13,0,0,1,3.44-.52,12.26,12.26,0,0,1,2.47,1c.5.24.47.26.65.71.34.8.82,1.52,1.18,2.32a2.13,2.13,0,0,1,.09,1.92c-.43,1.05-1.09,1.89-1.6,2.89a2,2,0,0,1-.33.57h-.15a4,4,0,0,0-.76.77,8.33,8.33,0,0,1-2.18,1.64c-.5.31-.92.7-1.42,1a2.21,2.21,0,0,0-.84.7,4.85,4.85,0,0,0-.62,1.73,9.41,9.41,0,0,0-.13,1.05c0,.33,0,.33.18.53a3.85,3.85,0,0,0,1.28.49,1.64,1.64,0,0,0,1.81-.5c.4-.46.7-.94,1.13-1.38a14.63,14.63,0,0,0,1.23-1.48,18.25,18.25,0,0,1,3.25-3.08c.38-.31.76-.66,1.15-1a4.17,4.17,0,0,1,2-.72,4.46,4.46,0,0,1,1.78-.11c.44.14.57.61.81,1a14.32,14.32,0,0,1,1.37,2.13,2.61,2.61,0,0,1,.13,1.18,6.09,6.09,0,0,1-.31,2.4c-.13.21-.35.28-.55.41a4.61,4.61,0,0,0-1.17,1.28c-.46.61-.51.68-.24,1.31s0,1.75.79,1.65a4.2,4.2,0,0,0,1.35-.54,12.91,12.91,0,0,0,1.74-1.3,3.06,3.06,0,0,1,2.7-.76c.59.09,1.63.14,1.77.82.31,1.5-.76,4.21-2.48,4.24l1.15-.49c-.24,0-.4.22-.54.37-.3.32-.62.61-.94.9a2.5,2.5,0,0,0-1.16,1.93c0,.75.71,1,1.38,1.07a3.87,3.87,0,0,0,2.59-1,4.3,4.3,0,0,1,1.88-.74,2.56,2.56,0,0,1,2,.67c.56.37,1,.56,1.11,1.25a7.47,7.47,0,0,1,0,2c-.06.57-.53,1-.65,1.55-.06.31-.2,1.19.12,1.42.48.35,1.17-.48,1.39-.82a10,10,0,0,0,.74-1.5,5.66,5.66,0,0,1,.51-1.25,1.76,1.76,0,0,1,1.62-.51,2,2,0,0,1,1.67.48c.52.48,1.22.84,1.5,1.52a2.5,2.5,0,0,1,0,2c-.66,1.19-2.17,1.81-2.59,3.12-.27.82.2,1.3,1,1.43a3.48,3.48,0,0,0,2.67-.84,3,3,0,0,1,1.76-.79,2.84,2.84,0,0,1,2.34,1c.9.95.83,2.23.79,3.45,0,.87.55,1.18,1.27,1.56a3.78,3.78,0,0,0,2.56.44c.78-.1,1.52,0,2.3-.17a.93.93,0,0,1,1.1.31c.35.37.64.82,1,1.22a4.28,4.28,0,0,1,.86,1.86,1.87,1.87,0,0,0,.69,1,10.79,10.79,0,0,0,1.1,1.14c.45.31,1.47.15,2,.14a2,2,0,0,1,1.94.79c.38.38.67.64.69,1.18a3.85,3.85,0,0,1-.15,1.62c-.25.58-.63.92-.68,1.59-.1,1.09,1.29,1.4,2.18,1.2.69-.15,1.17-.67,1.95-.45a3,3,0,0,1,.73.48,10,10,0,0,0,1.38.62c.53.25.39.87.53,1.4a5.55,5.55,0,0,0,.79,1.48c.25.35.47.64.94.38.26-.14.41-.38.69-.51a3.76,3.76,0,0,1,1.32-.28c1.21,0,2.74,1.69,2.94,2.84.11.64-.46,1.18-.47,1.83,0,.86-.52,1.89.22,2.59.24.22.52.33.77.52a7.22,7.22,0,0,1,.9,1c.46.49,1.3.25,1.86.14a4.44,4.44,0,0,1,1.34-.23,1.13,1.13,0,0,1,.61.24,11.68,11.68,0,0,1,1.21.88,6.15,6.15,0,0,1,1.14,2c.11.22.24.43.34.65a2.79,2.79,0,0,1,.15,1.28c0,.86-.1,1.67-.17,2.51a1,1,0,0,0,.32,1c.49.44,1.06.52,1.46,1.11a2.14,2.14,0,0,0,1.86,1.21c1,0,1.55-1.1,2.63-.49.54.31,1.2.54,1.47,1.13a1.81,1.81,0,0,1,.16.48c0,.22,0,.44,0,.66a1.86,1.86,0,0,0,.14.73c.15,1.09-.13,2.25,0,3.34.1.76.54.91,1.15,1.18.32.14.55.36.84.52a1.14,1.14,0,0,0,.65.15,1.64,1.64,0,0,1,.79.11c.25.13.32.34.5.54.54.57,1.3.63,1.71,1.33a6.54,6.54,0,0,1,.95,2.78c0,.28,0,.59,0,.87a6.2,6.2,0,0,1-.42,1.41c-.25.94.3,1.42,1.1,1.76a15.45,15.45,0,0,1,1.59.63c.53.3.93.82,1.49,1.07.92.41,1.89-.07,2.6.81a4.81,4.81,0,0,1,.9,2.67,5.64,5.64,0,0,1,0,2.68c-.1.24-.22.52-.34.76s-.5.6-.67,1c-.33.66.2,1,.54,1.51a6.33,6.33,0,0,1,.77,1.24l-.15,0,.18-.2c.43,0,.73.72.94,1a5,5,0,0,0,1.16,1.1c.22.17.63.28.73.56s-.35,1.07-.54,1.39a10.85,10.85,0,0,0-.82,2.51,1.27,1.27,0,0,0,0,1.24,6.6,6.6,0,0,0,1.72,1.33,4.11,4.11,0,0,1,1.37,1.15,3.78,3.78,0,0,1,.36,2.12,10.53,10.53,0,0,0,0,1.59,8.2,8.2,0,0,1,.18,1.48c0,.38-.31,1.15-.18,1.5s1,.74,1.22,1a21.6,21.6,0,0,1,2.19,1.42,1.76,1.76,0,0,1,0,1.81c-.3.43-.78.74-.9,1.28-.18.76.27,1,.81,1.42a6.2,6.2,0,0,1,1.85,1.64,1.39,1.39,0,0,1-.15,1.52,3.48,3.48,0,0,0-.64,2,13.2,13.2,0,0,0,.05,2.27c.1.48.39.89.5,1.37a19.35,19.35,0,0,1,0,3.23c0,.86.48.91,1.14,1.38a2.16,2.16,0,0,1,1,1.9c0,1.33-.18,2.62-.22,3.95a7.42,7.42,0,0,0,0,1.33,7.85,7.85,0,0,0,.8,1.68,6.7,6.7,0,0,1,.31,2.52,7.32,7.32,0,0,0,.53,2.08c.18.48.51.86.73,1.32a3.17,3.17,0,0,1,.28,1.44c0,.91,0,1.75.14,2.66.13,1.23-.14,2.51.79,3.49.63.66,1.24,1,1.45,2,.28,1.29-.35,2.41-.47,3.67s.45,1.76,1.22,2.61a1.29,1.29,0,0,1,.46,1.28c-.19,1.14-.89,2.34-.35,3.49.43.92,1.33,1.52,1.73,2.46a5.14,5.14,0,0,1-.22,3.3,8.82,8.82,0,0,0-.12,3.79c.23.84,1.07,1.15,1.28,1.91.3,1.07-.55,2.2-.76,3.21-.31,1.45.72,2.11,1.35,3.19.34.6,0,1.21,0,1.85a5.18,5.18,0,0,0,.15,2.35c.32.75,1,1.19,1.16,2,.2,1.29-.93,2.43-.74,3.75a1.4,1.4,0,0,0,.75,1.13,3.77,3.77,0,0,1,.6.31c.33.33.16,1.11.16,1.58a3.14,3.14,0,0,0,0,.81c.11.49.39.56.73.84.8.65.58,1.3.44,2.22a4.19,4.19,0,0,0,.47,2.85c.31.45,1.18,1,.92,1.57-.42,1-1.11.15-1.59-.26a1.46,1.46,0,0,1-.66-1,4.91,4.91,0,0,0-.56-1.54c-.31-.48-.84-.78-1.12-1.28a9.3,9.3,0,0,1-.48-2c-.21-.75-.39-1.51-.64-2.24a7.26,7.26,0,0,1-.77-2.71,8.41,8.41,0,0,0-.23-2.69c-.24-.8-.89-1.34-.93-2.21s.07-1.67,0-2.5-.69-1.37-1-2.15c-.2-.46-.1-.6.06-1.06a6.61,6.61,0,0,0,.31-.95c0-.41-.08-.4-.48-.68s-.93-.51-1-1.1a2.15,2.15,0,0,1,.12-.67,4.74,4.74,0,0,0,.29-1.67,6.29,6.29,0,0,0-1-2.43,7.17,7.17,0,0,0-.82-1.14c-.27-.36-.31-.39-.11-.78.35-.7,1.59-1.76,1.34-2.65a6,6,0,0,0-.56-1c-.25-.49-.54-1-.75-1.46a4.28,4.28,0,0,1-.36-2.59c.2-1.15.69-1.39-.24-2.38-.43-.45-.88-.87-1.31-1.31-.14-.14-.41-.34-.42-.57s.17-.4.24-.55a6.93,6.93,0,0,0,.94-2c-.54-.5-1.2-1-1.78-1.43a2.93,2.93,0,0,0-1.07-.67,1,1,0,0,1-.58-.36c-.33-.86,1.52-1.36,1.72-2,.1-.33-.18-.62-.33-.88a4.5,4.5,0,0,0-.53-1,2,2,0,0,0-.71-.4c-.3-.43-.14-.5.24-1a6.74,6.74,0,0,0,1.27-1.65c-.15-.28-.75-.5-1-.68a13,13,0,0,1-1.93-1.53,2,2,0,0,1-.67-.84c-.15-.71.82-1.59,1.24-2s.68-.58.71-1-.58-1.16-.94-1.5-1-.52-1.24-.89-.08-1,.1-1.41c.45-1.12,1.66-1.91.93-3.21a3.27,3.27,0,0,0-1.34-1.16c-.31-.16-.68-.21-.79-.57-.29-1,1.49-1.78,1.42-2.7,0-.36-.7-1-.88-1.14-.45-.43-1-.74-1.44-1.16-.59-.57.38-1.74.72-2.26.19-.3.5-.48.34-.81s-1.4-.74-1.66-.9a2,2,0,0,1-1.12-1.38,3.13,3.13,0,0,1,.18-1.84c.33-.59,2-1.36,1.91-2.16-.16-1.53-2.57-1.94-3.44-2.81s-.28-2.41.55-3.09c2-1.67-.45-4.66-2.44-5-.17-.38.54-.74.69-1,.48-1-.6-1.2-1.3-1.39a10.27,10.27,0,0,1-2.61-.87c-.63-.4-.36-.63.07-1.23s1.34-1.57,1-2.3c-.21-.52-1.3-.73-1.77-.85-.67-.17-1.37-.17-2-.31-3-.61,3-4.65,2.66-5.67a4.16,4.16,0,0,0-1.93-.21,12,12,0,0,1-2.32,0c-.85-.22,0-1.54.23-2s1.4-1.71.39-2c-1.69-.45-3.13,1.05-4.75,1.12-.13-.84,1-1.83,1.43-2.45s1.31-1.59,1.11-2.44c-.13-.53-.83-.54-1.3-.6-.83-.09-1.67,0-2.5-.07-.54-.05-1.53,0-1.65-.66s.5-1.59.77-2.08c.56-1,1.62-2.45-.34-2.56a4.73,4.73,0,0,0-1.3.05l-1.32.17c-.39-.07-.41-.15-.44-.6a8.31,8.31,0,0,1,.21-2c.09-.5.47-1.64.08-2.12s-2.09-.28-2.62-.27a4.37,4.37,0,0,1-2.22-.19c-1.55-.94.16-3.78.41-5a3.73,3.73,0,0,0-2.17,0,8.93,8.93,0,0,1-2.3.58c-.53-.83.31-2.12-.29-2.9-.24-.31-.94-.48-1.25-.76a7.72,7.72,0,0,1-1-1.41c-.75-1.15-1.8-2-2.36-3.3-.45-1-.69-2.06-2-2.29-.77-.14-1.72.37-1.92-.61-.1-.55,0-1-.09-1.59-.06-.74-.72-.73-1.33-.72a9.55,9.55,0,0,0-1.69.23c-.4.08-1.22.43-1.58,0-.64-.74.21-2-.81-2.48a5.54,5.54,0,0,1-.73-.37c-.26-.2-.39-.45-.71-.6-.93-.43-2,.16-2.92-.4a16.59,16.59,0,0,1-2.45-1.88,4.54,4.54,0,0,0-1.66-.86,2.73,2.73,0,0,1-1.35-1,12.3,12.3,0,0,0-.9-1.15c-.14-.13-.58-.32-.66-.44-.19-.31.08-.75-.15-1.11-.68-1-2-.3-2.93-.36-.34,0-.81-.36-1.15-.21s-.22.61-.55.83c-.92.62-3.13-.08-3.41-1.18a7.64,7.64,0,0,0-.2-1.33,5.4,5.4,0,0,1-.41-.79c-.1-.38-.06-.82-.19-1.22a2.34,2.34,0,0,0-1.24-1.27c-.62-.29-1,0-1.62.26a4.41,4.41,0,0,1-1.53.33c-.44,0-.47-.06-.79-.33a10.68,10.68,0,0,1-1.26-1.34c-.44-.56-.33-1.47-.4-2.14a2.53,2.53,0,0,0-1.72-2.3,12.85,12.85,0,0,0-2.48,0c-.82,0-1.3.56-2.07.73a1.53,1.53,0,0,1-1.41-.44c-.63-.48-1.21-1.11-1.79-1.65a1.37,1.37,0,0,1-.41-1.47c.1-.37.36-.86-.08-1.14s-.94.12-1.31,0-.74-.75-.9-1.09a2.93,2.93,0,0,1-.24-1c0-.42.19-.74.19-1.11-1.1-.78-2.22.18-3,.88-.13.12-.41.42-.6.44-.34,0-.75-.38-1-.59a6.64,6.64,0,0,1-1.73-2.11c-.32-.74,0-1.46-.17-2.19-.09-.34-.16-.32-.57-.3-1,0-1.3.78-2,1.35a.76.76,0,0,1-.53.23c-.21,0-.08-.14-.21-.22a9.17,9.17,0,0,1-1.11-.77,4.15,4.15,0,0,1-1.3-2.09c-.15-.61-.15-1.35-.8-1.63a1.56,1.56,0,0,0-1,0c-.3.05-.62.07-.91.13a2.61,2.61,0,0,1-2.34-.17,11.52,11.52,0,0,1-3.57-4.15,6.1,6.1,0,0,0-.61-1.16c-.25-.28-.59-.54-.86-.8a12.63,12.63,0,0,0-1.88-1.54,28.25,28.25,0,0,0-2.94-1.26,9.92,9.92,0,0,1-3-2.62,3.05,3.05,0,0,1-.46-.82c-.21-.44-.53-.78-.78-1.2a2.78,2.78,0,0,0-1.12-1.34,5.64,5.64,0,0,0-5,0,5.47,5.47,0,0,1-2.46,1c-.57,0-1.14,0-1.7,0a2.15,2.15,0,0,1-.76,0c-.12-.05-.27-.24-.36-.26-.34-.07-.5.36-.78.6,0,.07,0,.5,0,.67a4.38,4.38,0,0,0,.43,2.14,64.4,64.4,0,0,1,3.15,7.24c.85,2.38,1.87,4.72,2.88,7a21.76,21.76,0,0,0,5.64,7.59,32.64,32.64,0,0,1,2.59,2.67A29,29,0,0,0,807,506.6c1.61,1.27,3.17,2.57,4.67,4a19.67,19.67,0,0,1,1.67,1.62c.49.59.87,1.24,1.32,1.86a28.34,28.34,0,0,1,1.44,2.5,18.88,18.88,0,0,0,2.13,2.91,14,14,0,0,0,2.88,2.49c1.41,1,2.51,2.34,3.87,3.39a11.16,11.16,0,0,0,3.52,2.1c.67.21,1.34.33,2,.58s1.42.71,2.12,1a16.83,16.83,0,0,0,3.67,1.4c2.14.44,4.45.11,6.61.15,1.84,0,3.61.45,5.43.55s3.48-.06,5.15.57a19.42,19.42,0,0,1,5.15,2.73,12.33,12.33,0,0,1,3.67,5.16c1.92,4.44,1.36,9.54.49,14.17a67.07,67.07,0,0,1-2,8.28,13.28,13.28,0,0,1-1.89,3.76c-1,1.44-2.28,2.7-3.22,4.21-.61,1-1.07,2.16-1.63,3.2-.68,1.25-1.4,2.48-2.1,3.72a16.28,16.28,0,0,1-1.64,2.58,9.09,9.09,0,0,1-1.76,1.38c-4,2.61-8.53.37-12.11-1.78a4.18,4.18,0,0,1-1.34-1.27c-.37-.55-.35-1-1.1-1.13-1.79-.31-3.43.67-4.77,1.71-.43.33-.87.63-1.31.94a10,10,0,0,0-1.82,1.8,18.64,18.64,0,0,1-2.17,2,65,65,0,0,0-5.24,4.46,84,84,0,0,0-8.7,9.49A69.19,69.19,0,0,0,803.31,608a48.76,48.76,0,0,0-3.45,11.22c-1.46,6.9-3.05,13.78-4.58,20.66l-.13-.88a26.47,26.47,0,0,1-.54,3.72,46.81,46.81,0,0,0,0,6c0,3.42.14,6.87,0,10.28-.13,2.76-.27,5.55-.54,8.3-.31,3-.85,6.06-1.2,9.1-.26,2.28-.22,4.56-.34,6.85-.09,2-.4,3.92-.49,5.89-.12,2.66.17,5.28.25,7.93a38,38,0,0,0,1,6c.31,1.54,1,3.12,1.07,4.69a2,2,0,0,1-1.18,1.77c-.18.12-.49.11-.58.31s.27.61.44.78a14.28,14.28,0,0,1,2.84,4c.87,1.69,2,3.35,1.52,5.35a11.79,11.79,0,0,1-2.26,4.25,9,9,0,0,1-1.51,1.69,10.91,10.91,0,0,1-2.39,1.07c-2.28.94-4.55,2.12-7.07,2.2a17.68,17.68,0,0,1-6.65-.62c-1.46-.52-2.87-.76-3.86-2.1-.51-.7-1-1.28-1.49-2a6.6,6.6,0,0,0-2.33-1.75c-.44-.27-1-.38-1.41-.64s-.74-.62-1.14-.88c-2.94-2-4.05-6.19-4.59-9.49-.36-2.15-.83-4.67.07-6.73a8.57,8.57,0,0,1,1.3-2.12,16.22,16.22,0,0,0,2.08-2.23c.88-1.55.48-3.31.57-5a35.37,35.37,0,0,1,.86-4.88,43.74,43.74,0,0,1,1.3-5.4c1.17-3.45,2.81-6.85,3.76-10.35a22.48,22.48,0,0,0,.73-4,26.79,26.79,0,0,1,.74-4.28,23.59,23.59,0,0,0,.15-3,19.67,19.67,0,0,0,.31-2c0-1.31,0-2.62,0-3.92s.27-2.3.32-3.47c0-.75-.07-1.5,0-2.24a22.64,22.64,0,0,1,.46-2.59,15.19,15.19,0,0,0,.13-2.78c0-6.06,0-12.11,0-18.16,0-1-.29-1.9-.3-2.87a3.67,3.67,0,0,0-.21-1.54,8.36,8.36,0,0,1-.6-1.37,15.39,15.39,0,0,1-.06-3.11,6,6,0,0,1,.17-2.08c.4-1.19,1.06-2.29,1.52-3.46.81-2,1.41-4.17,2.09-6.25"/><path class="cls-6" d="M792.24,721.28c.41-.1.35.13.67.21a8.46,8.46,0,0,1,2.19.69c1.66,1,2.31,3.17,3,4.85a12.35,12.35,0,0,1,.85,4.61,57.08,57.08,0,0,0,1,8.65c.81,4.64,1.43,9.31,2.26,14a74,74,0,0,0,1.68,7.65c1,3.51,1.55,7.15,2.46,10.69.84,3.27,1.82,6.5,2.67,9.76.4,1.56.67,3.14,1.09,4.69.52,1.9,1.32,3.7,1.85,5.6A122.77,122.77,0,0,0,819,810.56c.86,1.84,2.41,3.19,3.21,5.05.57,1.31.92,2.72,1.5,4,.28.62,1,1.3,1.08,2s0,.46-.26,1-.12,1.7-.55,2.23-1,.27-1.53.34c-2.25.35-4,1.73-5.65,3.14a6.72,6.72,0,0,0-2.12,2.69c-.39.93-.37,2-1,2.9-2.38,3.42-8.12,2.36-10.52-.44a12.47,12.47,0,0,1-2.7-5c-.57-2.41.19-5.14.18-7.6,0-3.73.12-7.48,0-11.21a32.72,32.72,0,0,0-1.16-7.16c-.82-3-1.62-6-2.34-9.1-1.48-6.33-4.67-12.3-7.31-18.21-.47-1.07-.84-2.07-1.21-3.19s-1-2-1.34-3.13a29.59,29.59,0,0,0-2.26-5.69c-1.47-2.76-3.46-5.17-4.85-8a50.18,50.18,0,0,0-4-6.74,75.33,75.33,0,0,1-4-7.32,21.38,21.38,0,0,1-2-5.26c-.28-1.15.4-2.11.84-3.13s.21-1.77.53-2.7.85-1.53,1.15-2.36a15.56,15.56,0,0,1,.9-2.53c.42-.74.94-1.42,1.4-2.13a5,5,0,0,1,1.51-1.77,10.75,10.75,0,0,1,5.32-1.41c1.55,0,3-.3,4.59-.29a9.26,9.26,0,0,1,4.36.87Z"/><path class="cls-6" d="M817.26,823.39c1.28-.24,2.36-1.51,3.74-1.13,1.19.33,1.82,1.92,2.38,2.89a4,4,0,0,0,1.86,2,4.79,4.79,0,0,0,2.34.32c.84,0,1.63.29,2.47.31,1.48,0,2.43,0,3.51,1.12,1.3,1.3,1.9,3.29,2.47,5a18.2,18.2,0,0,1,1,5.93c0,1.24.33,2.94-.33,4-.54.87-1.24,2.5-2.34,2.81s-2.74.07-4,.33a10.39,10.39,0,0,1-1.81.31,16.79,16.79,0,0,0-3.66.33c-1.28.31-2.57.6-3.84,1a10.42,10.42,0,0,1-4.65.68c-1.37-.24-2.75-.69-4.09-1.05s-2.51-.49-3.75-.93c-3-1-5.85-.89-9-.88-3.36,0-6.69,0-10,.21a41.28,41.28,0,0,0-5.87.72c-1.38.3-2.74.68-4.12,1-1.54.32-3.11.42-4.64.76-1.91.43-3.85,1.05-5.71,1.66a50.1,50.1,0,0,1-6.31,1.43c-1.59.31-3.21.35-4.81.59a10.52,10.52,0,0,1-3.83-.57c-1.58-.4-2.77-1.6-4.29-2.14s-2.74-1-3-2.77c-.39-2.29,1.16-3.49,2.5-5.13a8.8,8.8,0,0,1,3.93-2.8,13.31,13.31,0,0,1,5-1.08c1.59,0,3-.61,4.53-.58,1.73,0,3.49-.1,5.23,0,2.18.11,4.29.62,6.5.6a16.41,16.41,0,0,0,4.37-.26,15,15,0,0,0,2.93-1.22c1.31-.67,2.54-1.62,4-1.76.68-.06,1.34-.13,2-.22a9.62,9.62,0,0,1,2.6-.3,28.84,28.84,0,0,0,2.91.8c1.13.1,2.27,0,3.41.05s1.52,0,2-.82a31.29,31.29,0,0,1,3.31-5c1.11-1.2,2.39-2.26,3.5-3.45.52-.55.91-1.18,1.42-1.74a6.56,6.56,0,0,1,1.86-1.74,9.78,9.78,0,0,1,1.69-.22c.92-.14,1.74-.42,2.63-.62a3.25,3.25,0,0,1,2.57.53Z"/><path class="cls-6" d="M783.8,645.94l.2-.21a4.8,4.8,0,0,1-.8.94c-1,1.07-1.9,2.18-2.85,3.3-2.53,3-5.19,5.81-7.56,9a140.54,140.54,0,0,0-12.15,20.38c-1.27,2.46-2.92,4.69-4.21,7.13a21.21,21.21,0,0,0-1,2.38c-.54,1.36-1.32,2.59-1.86,3.95-1.27,3.26-2,6.74-4.13,9.59s-1.87,6.14-1.76,9.52c.07,2,.32,4,.31,6a12.75,12.75,0,0,1-.19,3.65,4.39,4.39,0,0,1-1.52,2.34,15.4,15.4,0,0,1-4.28,2.21,7.91,7.91,0,0,1-3.28-.15,26.34,26.34,0,0,0-4.34-.32c-2.65.05-3.78-1.87-4.72-4.12a4.92,4.92,0,0,0-2.76-2.52,8,8,0,0,0-3.86-.62c-1.19,0-2.11-.61-3.32-.62a4.41,4.41,0,0,0-2.88.89c-.81.57-1.42,1.63-2.57,1.44a7.45,7.45,0,0,1-1.47-.6,38,38,0,0,1-4.09-1.91,57.35,57.35,0,0,1-6.85-4.34,4.66,4.66,0,0,1-1.28-1.3,6.42,6.42,0,0,1-.34-2.89,12.23,12.23,0,0,1,8.16-11.19,32.17,32.17,0,0,0,6.15-2.81c2-1.24,3.51-3.09,5.39-4.5,2.25-1.68,4.23-3.68,6.36-5.49a94.14,94.14,0,0,0,9.26-8.83c3.47-3.86,6.95-7.55,9.72-12a65.91,65.91,0,0,0,4.16-7.66c1.2-2.61,2.34-5.25,3.65-7.79.36-.72.73-1.4,1-2.15.48-1.21.66-2.58,1.19-3.77a11,11,0,0,1,1.3-1.9c.49-.67.84-1.42,1.29-2.12a12.66,12.66,0,0,1,1.37-1.95c.54-.55,1.24-1,1.82-1.48.76-.68,1.62-1.32,2.34-2s1-1.75,2-1.81a1.71,1.71,0,0,1,.36-.89,21.72,21.72,0,0,0,1.38-2.5,34.24,34.24,0,0,1,4-7.23,22.83,22.83,0,0,1,6.81-6.39,42.88,42.88,0,0,0,4-3,8.9,8.9,0,0,1,3.3-2c1.86-.37,3.57,1.75,4.37,3.16,1.89,3.3,1.23,7.74.61,11.29a96.68,96.68,0,0,1-2.62,10.31,44.46,44.46,0,0,1-3,7.28c-.81,1.64-1.55,3.35-2.52,4.9Z"/><path class="cls-6" d="M708.17,717.79c0-.26,0-.52,0-.79a14.26,14.26,0,0,0-.82,1.88c-.67,2.6-.27,5.36.07,8a73.62,73.62,0,0,0,3.94,15.74c.77,2.1,1.6,4.17,2.29,6.3,1,3.23,1.6,6.59,2.57,9.84,1.27,4.26,3.33,8.22,4.55,12.48,1,3.45,1.82,6.94,2.82,10.38,1.11,3.85,1.26,7.85,1.52,11.82a62.56,62.56,0,0,1,0,11.53,21.35,21.35,0,0,1-.73,4.43,19.18,19.18,0,0,1-1.61,3.16c-.84,1.48-1.53,2.93-2.48,4.35a9.64,9.64,0,0,0-1.64,4.49c-.27,2-.75,4.5-.2,6.52.73,2.7,3.32,5,6.24,4.22,2.09-.55,2.4-4.6,3-6.33a4.64,4.64,0,0,1,1.85-2.69,7,7,0,0,1,3.88-1.17c1.24,0,2.47,0,3.71,0s2.47.24,3.53-.48a34.95,34.95,0,0,0,2.35-3,8.27,8.27,0,0,0,.23-3.9c-.14-1.78-.51-3.55-.82-5.31-.65-3.67-1.69-7.24-2.3-10.92-.38-2.25-.7-4.52-1.09-6.77a88.75,88.75,0,0,1-1-12.19A51.86,51.86,0,0,1,739,767c.89-4.25,2.28-8.31,3.38-12.5a97.87,97.87,0,0,1,2.92-10.37c.65-1.68,1.33-3.35,1.91-5.05.45-1.34.66-2.78,1.17-4.1.62-1.6,1.64-3,2.26-4.64s.3-3.25.32-4.81-.3-2.88-1.82-3.56a6.28,6.28,0,0,1-1-.39,11.24,11.24,0,0,1-1.28-1,7.61,7.61,0,0,0-.64-.48c-2.56-1.76-5.32-3.3-7.95-5-.69-.45-1.47-.77-2.18-1.19a18.46,18.46,0,0,0-2.64-1.47,28.41,28.41,0,0,0-6.18-1.94c-6.42-.9-14.16.63-18.16,6.14Z"/><path class="cls-6" d="M727.37,817.28a4.49,4.49,0,0,1-1.24-.57,6.55,6.55,0,0,0-3.8-.58,7.82,7.82,0,0,0-3,1.73c-1.43,1.07-2.73,2.3-4.22,3.29a32.34,32.34,0,0,1-8.25,3.51,33.37,33.37,0,0,0-5.16,2.54c-2,1.06-4.19,1.81-6.21,2.88a44.14,44.14,0,0,1-9.17,3.77c-3.28.91-6.45,2-9.76,2.79a9.52,9.52,0,0,0-5.25,3,2.81,2.81,0,0,0-.72,2.1,1.81,1.81,0,0,0,1.15,2c1.34.73,2.85.58,4.33.57a23.49,23.49,0,0,0,4.89-.09c1.89-.44,3.67-1.35,5.51-1.94a25,25,0,0,1,7.87-1.21,54.67,54.67,0,0,1,8.77.56c2.64.48,5.17,1.47,7.81,1.94,2,.36,4.06.73,6.09,1.19,1.38.32,2.79.31,4.17.56a7.73,7.73,0,0,0,5-.48c2.16-1.26,2.49-4,3.77-5.92a8,8,0,0,0,1.26-2.19,4.63,4.63,0,0,1,.56-1.68,4.51,4.51,0,0,1,1.68-1c.79-.42,1.32-1,2.24-1.12,1.13-.12,2.25.09,3.39-.14a28.25,28.25,0,0,0,3.49-1,11,11,0,0,0,5.16-3.46,7.35,7.35,0,0,0,.26-6.91,10.55,10.55,0,0,0-3.34-4c-1.73-1.11-4.57-1.35-6.59-1.39l-5,.47A40.26,40.26,0,0,1,727.37,817.28Z"/><polyline class="cls-3" points="220.1 568.64 384.49 508.54 295.31 576.88 258.23 443.12 394.21 569.38 328.94 601.58 374.17 376.97 237.75 487.14 358.73 604.53 294.17 413.77 399.16 416.87 304.64 393.27"/><polyline class="cls-3" points="743.12 835.42 750.14 855.3 842.08 805.55 786.52 807.79 821.51 855.3 819.81 721.92 774.59 764.13 842.08 805.55"/><polyline class="cls-3" points="475.12 753.23 533.28 776.35 537.08 760.81 478.7 726.34 539.27 740.96 493.92 796.3 545.28 817.83 497.43 831.25 557.7 844.08 497.06 815.14 554.2 829.38 543.51 855.3 527.67 822.77 481.61 771.16 492.74 685.5 534.89 696.75 483.93 711.13 534.89 714.73 501.88 676.14 531.23 669.02 539.27 690.38 505.68 641.67 600.62 567.27 525.91 589.86 616.41 624.3 499.05 502.24 499.96 540.51 580.63 521.11 521.41 573.11 545.9 479.22 521.41 478.05 618.34 408.21 711.31 513.02 584.57 509.33 635.5 501.02 553.79 398.23 633.95 361.47 679.39 417.66 755.42 388.42 707.32 421.98 755.42 520.01 819.64 439.35 861.53 536.81 767.82 659.61 859.36 604.53 787.51 683.21 648.5 602.95 662.19 702.37 713.49 559.73 799.04 526.91 801.75 700.27 792.6 747.32 756.6 707.25 819.81 721.92 797.42 778.14"/><polyline class="cls-3" points="478.51 679.78 464.68 651.47 437.42 716.33 456.5 772.56 459.28 721.63 431.86 635.82 480.96 576.4 432.3 563.37 499.96 540.51 487.21 528.52 580.63 521.11 566.84 445.32 467.7 384.91 582.34 434.15 424.75 379.78 445.73 399.09 439.92 376.97 418 403.99 410.78 387.65 399.16 416.87 394.21 385.57 326.97 415.09 333.14 376.97 394.59 449.56 360.6 444.33 301.44 435.24 384.49 508.54 359.06 451.99 394.21 484.24 409.55 462.78 467.11 465.81 505.94 481.5"/><polyline class="cls-3" points="515.92 769.45 543.38 798.34 481.61 771.16 508.95 744.2 534.89 714.73 478.7 726.34"/><polyline class="cls-3" points="210.07 728.36 223.07 734.96 223.07 723.44 233.36 731.31 237.75 711.08 258.2 711.08 249.41 701.8 267.67 703.17 261.96 684.06 285.19 676.13 274.7 659.84 293.24 663.23 273.56 633.88 302.51 638.02 277.62 617.23 306.06 611.46 279.23 590.21 295.31 576.88 277.94 614.9 305.87 588.38 274.7 659.84"/><polyline class="cls-3" points="285.29 635.55 293.24 663.23 268.61 671.5 267.67 703.17 237.75 711.08 223.07 734.96"/><polyline class="cls-3" points="884.83 508.29 883.41 539.01 878.65 514.92 892.96 515.42 899.2 558.72 917.43 549.69 912.3 579.1 925.29 580.6 919.3 619.2 929.9 619.2 927.28 662.41 935.41 640.17 935.41 655.53 933.34 675.57 939.53 672.96 942.11 692.37 949.65 692.58"/><polyline class="cls-3" points="883.41 539.01 906.9 536.13 912.3 579.1 929.9 619.2 922.27 635.3 935.41 640.17"/><polyline class="cls-3" points="884.52 515.13 896.13 537.45 909.04 553.14 925.29 580.6"/><polyline class="cls-3" points="630.57 675.4 569.11 681.57 592.03 640.51 578.24 609.77 636.47 588.45 694.84 572.14 711.31 513.02 679.39 417.66 755.42 520.01 776.72 432.71 789.18 407.51 794.87 470.46 769.79 522.28 756 543.42 767.82 659.61 715.67 641.74 662.19 702.37 630.57 675.4 552.66 604.85"/><polyline class="cls-3" points="636.47 588.45 643.87 511.06 713.49 559.73"/><polyline class="cls-3" points="873.53 538.71 635.5 501.02 819.81 721.92 789 852.59 765.03 826.71 846.8 844.08 774.87 781.89 839.39 771.16 762.97 731.51 820.86 684.87 545.9 671.19 864.02 459.62 859.36 604.53 755.42 388.42 756.6 707.25 819.64 439.35 467.7 384.91 719.51 688.6 704.62 369.74 545.9 671.19 545.9 369.74 637.72 701.24 633.95 361.47 531.23 669.02 510.54 622.36 409.94 625.37 494.4 665.65 414.63 736.6 480.25 800.51 428.51 868.34 391.17 846.05 500.59 844.08 390.33 867.11 497.43 831.25 484.28 865.45 419.41 832.04 499.59 857.41 432.13 823.3 478.7 726.34 414.63 710.79 490.78 824.64 421.17 786.66 472.53 773.59 414.63 769.85 492.74 685.5 409.01 651.82 521.41 573.11 392.73 583.6 499.96 540.51 414.46 702.01 525.91 589.86 410.6 606.71 432.3 563.37 399.16 416.87 516.55 449.56 499.05 502.24 394.21 484.24 452.03 536.18 418 403.99 394.21 569.38 496.31 424.32 521.41 478.05 384.49 508.54 487.21 528.52 445.73 399.09 394.59 449.56 274.06 457.81 396 552.13 231.93 527.64 264.45 465.57 325.12 505.23 283.8 535.38"/><polyline class="cls-3" points="285.91 578.62 231.93 527.64 295.31 576.88 293.24 541.9 304.61 583.76 333.31 579.87 371.73 548.5 358.73 604.53"/><polyline class="cls-3" points="325.12 505.23 247.96 497.05 264.03 552.58 261.64 583.79 228.12 598.7 277.62 617.23 234.22 663.23 261.96 684.06 261.46 624.51 268.3 681.89 294.23 710.94 270.76 743.69 301.44 742.83 268.4 765.23 246.9 801.16 294.13 775.05 268.4 765.23 258.88 820.07 211.14 849.9 187.43 845.63 188.71 826.05 192.93 850.43 234.81 841.04 225.47 819.1 280.77 801.01 258.98 780.99 298.5 754.25 264.39 724.1 294.23 710.94 251.74 698.51 273.56 633.88 220.24 592.6 285.91 578.62 220.1 568.64 279.23 590.21 217.56 600.46 222.96 621.01 277.83 617.03 223.07 642.04"/><polyline class="cls-3" points="200.97 863.57 204 828.7 234.81 841.04 246.9 801.16 291.2 789.37 269.61 754.25 301.34 742.75 267.67 703.17"/><polyline class="cls-3" points="261.83 668.6 234.22 663.23 244.79 632.12 222.96 621.01 228.12 598.7 220.1 568.64 237.75 533.14 258.16 531.56 240.97 510.39 237.75 487.14 273.94 499.8 274.06 457.81 277.81 421.7 301.44 435.24 300.7 478.42 353.23 480.95 367.98 514.57 396 552.13"/><polyline class="cls-3" points="686.28 697.58 762.97 731.51 699.94 746.2 752.09 765.95 709.49 789.52 752.09 804.65 707.32 803.15 762.24 827.82 698.09 814.33 738.34 849.61 678.93 828.59 664.81 848.86 759.32 817.01 683.66 821.95"/><polyline class="cls-3" points="663.3 837.39 679.61 849.61 701.39 836.53 705.19 820.55 752.09 804.65 704.89 776.02 746.34 702.36 719.51 688.6 752.09 765.95"/><polyline class="cls-3" points="719.51 688.6 699.94 746.2 731.78 717.71 752.09 804.65 717.85 752.98"/><polyline class="cls-3" points="859.36 604.53 715.57 596.99 840.22 564.74 836.28 478.06 711.31 513.02 755.57 429.44 704.62 369.74 634.5 410.71 545.9 369.74"/><polyline class="cls-3" points="566.84 445.32 601.78 457.79 659.77 454.92 700.77 550.84 607.72 553.78 704.75 584.03 630.57 675.4"/><polyline class="cls-3" points="756 543.42 799.78 574.76 838.84 534.33 732.79 472.46 864.02 459.62 799.04 526.91 878.65 514.92 840.22 564.74 801.24 668.17 820.86 684.87 811.75 602.03"/><polyline class="cls-3" points="492.71 760.22 545.28 817.83 499.96 853.99 518.46 825.35 533.28 776.35 527.73 756.41 489.27 710.93 514.97 691.43 524.79 670.21 494.4 665.65 459.9 616.19 410.6 606.71 441.27 624.43 432.3 563.37"/><polyline class="cls-3" points="515.64 633.86 545.9 625.08 592.03 640.51 637.72 701.24 669.16 627.87 703.22 694.22 756.38 645.9 689.44 626.59 715.57 596.99 800.34 616.98 713.49 559.73 732.79 472.46 819.64 439.35"/><polyline class="cls-3" points="496.31 424.32 553.79 398.23 708.7 457.11 755.57 429.44 682.59 508.29 635 456.15 584.05 507.47 545.9 479.22 601.78 457.79 536.14 467.44 527.14 410.44"/><polyline class="cls-3" points="301.83 435.6 366.14 415.64 335.73 440.65 327.77 414.33"/><polyline class="cls-3" points="454.64 867.43 501.88 883.34 664.81 848.86 557.7 844.08 755.01 883.34 868.74 855.3 849.69 842.93 1014.35 851.6 839.39 883.34 789 852.59 663.3 880.52 543.51 855.3 575.25 883.34 499.59 857.41 399.16 883.34 267.67 868.67"/><polyline class="cls-3" points="390.33 867.11 340.46 883.34 399.16 898.01 296.44 883.34 149.7 868.67 308.98 849.98 325.79 868.67 237.75 898.01 267.67 868.67 391.17 846.05"/><polyline class="cls-3" points="347.8 858.37 382.6 857.41 325.79 868.67 470.99 898.01 575.25 883.34 696.14 898.01 663.3 880.52 755.01 883.34 780.69 898.01 815.35 868.67 824.82 898.01 971.46 883.34 868.74 855.3 839.39 853.99 821.51 855.3 839.39 883.34 750.14 855.3 626.41 857.75"/><polyline class="cls-3" points="117.21 861.82 149.7 868.67 138.27 884.08"/><polyline class="cls-3" points="195.62 904 237.75 898.01 305.91 913.39"/><polyline class="cls-3" points="377.52 907.55 399.16 898.01 444.32 901.41"/><polyline class="cls-3" points="557.45 893.35 575.25 883.34 588.6 893.35"/><polyline class="cls-3" points="699.94 913.57 696.14 898.01 760.82 905.79"/><polyline class="cls-3" points="830.5 908.89 824.82 898.01 876.76 907.31"/><polyline class="cls-3" points="991.52 891.66 971.46 883.34 1064.45 887.5"/><polyline class="cls-3" points="1016.55 868.67 1014.35 851.6 1094.79 872.17"/><circle class="cls-4" cx="501.29" cy="883.34" r="2.83"/><circle class="cls-3" cx="1014.35" cy="852.75" r="2.83"/><circle class="cls-3" cx="919.4" cy="869.34" r="2.83"/><circle class="cls-4" cx="308.74" cy="849.61" r="2.83"/><circle class="cls-4" cx="269.55" cy="868.18" r="2.83"/><circle class="cls-4" cx="470.99" cy="898.01" r="2.83"/><polyline class="cls-3" points="195.01 859.9 204 828.7 211.14 849.9 225.47 819.1 258.88 820.07 246.9 801.16 261.07 807.45 273.29 794.13 278.09 768.05 298.5 765.95"/><polyline class="cls-3" points="170.81 657.02 185.88 669.73 210.69 656.19 223.7 665.42 227.16 649.47 209.36 666.91 182.2 659.47 168.98 662.47 177.04 667.46"/><polyline class="cls-3" points="197.17 663.57 197.17 657.56 209.36 666.91 216.26 660.14 233.26 661.06 259.28 648.93 271.61 639.65 247.72 638.07 227.16 649.47"/><line class="cls-3" x1="247.72" y1="638.07" x2="278.74" y2="601.24"/><polyline class="cls-7" points="392.82 482.66 384.58 508.39 396.1 551.97 392.82 583.44 358.82 604.38 329.03 601.43 305.96 588.22 304.71 583.61 295.4 576.72 286.01 578.47 279.32 590.05 277.93 616.88 273.65 633.73 286.22 679.36 294.32 710.79 298.5 730.84 301.44 742.83 298.5 754.25 298.5 765.95 294.13 775.05 291.2 789.37 280.77 801.01 234.81 841.04 211.14 849.9 200.97 863.57 195.01 859.9 192.93 850.43 187.43 845.63 183.09 831.36 188.71 826.05 204 828.7 225.47 819.1 246.9 801.16 268.4 765.23 270.76 743.69 264.49 723.94 246.93 687.02 223.16 641.89 223.05 620.86 217.65 600.3 220.34 592.45 220.19 568.48 231.52 531.01 237.84 486.98 258.32 442.96 269.1 430.68 277.9 421.55 294.26 413.61 304.74 393.12 333.24 376.82 374.26 376.82 396.1 386.18 410.87 387.5 424.84 379.63 440.01 376.82 467.8 384.76 546 369.59 634.04 361.32 704.71 369.59 755.51 388.26 771.78 401.73 789.27 407.35 817.41 434.78 819.74 439.2 854.16 454.38 864.11 459.46 870.69 474.42 878.75 514.77 859.45 604.38 820.11 686.48 819.9 721.77 832.58 751.12 839.48 771.01 841.84 802.25 844.68 828.65 846.9 843.93 839.48 853.84 821.61 855.14 807.59 853.29 789.09 852.43 774.96 855.14 760.21 856.2 754.17 855.63 748.97 853.84 740.68 852.97 738.43 849.45 738.01 841.45 743.21 835.26 765.13 826.55 778.98 813.68 787.04 807.3 785.08 796.91 774.96 781.73 774.68 763.98 761.19 726.1 756.7 707.1 746.43 702.21 727.27 692.58 719.61 688.44 703.31 694.06 662.28 702.22 637.82 701.09 569.21 681.41 546 671.04 531.32 668.87 516.65 672.81 501.98 675.99 494.5 672.81 492.83 685.35 478.79 726.19 472.63 774.52 480.34 800.36 489.28 821.35 497.53 831.1 500.68 843.93 499.69 857.26 484.37 865.3 454.06 866.96 428.6 868.18 401.45 866.95 390.42 866.96 384.58 863.78 382.69 857.26 385.5 850.58 391.26 845.9 405.1 843.55 413.93 838.21 419.5 831.89 432.22 823.14 432.39 812.36 427.4 793.3 421.27 786.51 414.72 769.69 414.72 703.35 409.11 651.67 410.7 606.56 392.82 583.44"/><polyline class="cls-7" points="394.68 449.4 398.21 431.65 399.26 416.72 418.1 403.83 445.82 398.94 496.4 424.17 516.65 449.4 521.5 477.9 507.27 491.8 499.14 502.08 487.3 528.37 476.22 531.01 464.93 531.01 452.13 536.03 439.43 551.98 432.39 563.21 422.59 564.9 414.73 569.23 407.98 569.23 394.3 569.23"/><polyline class="cls-7" points="494.5 672.81 494.5 665.5 505.77 641.52 511.43 619.05 526 589.7 521.5 572.95 500.05 540.36"/><polyline class="cls-7" points="539.37 670.06 539.37 690.22 534.99 696.6 534.99 714.58 539.37 740.8 537.18 760.66 533.12 775.64 543.48 798.18 544.29 807.99 545.37 817.68 554.29 829.23 557.8 843.93 553.35 851.31 543.61 855.14 523.61 854.64 506.89 853.84 500.05 853.84"/><polyline class="cls-7" points="490.88 824.49 497.15 814.98 494.01 796.15 481.7 771.01 475.21 754.25"/><polyline class="cls-7" points="738.43 849.45 722.09 849.45 702.42 847.96 690.48 847.96 678.21 849.45 664.91 848.7 661.63 845.67 663.39 837.24 671.37 829.23 679.03 828.43 683.75 821.8 698.19 814.17 707.41 803 709.58 789.37 704.98 775.87 702.42 762.6 700.03 746.05 686.37 697.43"/><polyline class="cls-7" points="762.33 827.66 759.41 816.86 756.03 810.84 752.19 804.49 752.19 787.26 752.19 765.79 757.26 744.92 763.07 731.36"/><polyline class="cls-7" points="305.96 588.22 306.17 612.01 302.61 637.86 293.33 663.07 269.1 701.93 233.45 731.15 223.16 734.81 211.9 734.81 210.16 728.2 223.16 723.29 237.84 710.92 249.5 701.65 262.43 683.38 274.79 659.69 273.65 633.73"/><polyline class="cls-7" points="875.05 496.25 883.5 502.89 884.93 508.14 889.61 508.14 892.42 514.32 906.47 535.3 917.52 549.54 925.39 580.45 930.26 621.28 935.5 640.02 935.5 655.38 939.63 664.75 939.63 672.81 946 686.1 949.74 692.42 948.24 697.43 944.12 695.09 939.63 688.35 927.53 663.07 919.39 619.05 912.4 578.95 898.18 556.84 883.5 538.86 873.63 538.55"/><polyline class="cls-7" points="227.16 649.47 210.78 656.04 182.29 659.32 170.86 656.86 169.07 662.32 177.04 667.46 185.98 669.58 224.22 665.21 233.26 661.06"/><path class="cls-4" d="M231.93,598.89a3.67,3.67,0,1,1-3.67-3.67A3.67,3.67,0,0,1,231.93,598.89Z"/><path class="cls-4" d="M265.2,584.28a3.67,3.67,0,1,1-3.67-3.67A3.67,3.67,0,0,1,265.2,584.28Z"/><path class="cls-4" d="M336.85,580.61a3.67,3.67,0,1,1-3.67-3.67A3.67,3.67,0,0,1,336.85,580.61Z"/><path class="cls-4" d="M550,549.75a3.67,3.67,0,1,1-3.67-3.67A3.67,3.67,0,0,1,550,549.75Z"/><path class="cls-4" d="M663.52,394.24a3.67,3.67,0,1,1-3.67-3.67A3.67,3.67,0,0,1,663.52,394.24Z"/><path class="cls-4" d="M711,421.7a3.67,3.67,0,1,1-3.67-3.67A3.67,3.67,0,0,1,711,421.7Z"/><path class="cls-4" d="M508.76,407.51a3.67,3.67,0,1,1-3.67-3.67A3.66,3.66,0,0,1,508.76,407.51Z"/><path class="cls-4" d="M755,804a3.67,3.67,0,1,1-3.67-3.67A3.66,3.66,0,0,1,755,804Z"/><path class="cls-4" d="M796.27,746.62A3.67,3.67,0,1,1,792.6,743,3.67,3.67,0,0,1,796.27,746.62Z"/><path class="cls-4" d="M396.41,482.55a3.67,3.67,0,1,1-3.67-3.66A3.67,3.67,0,0,1,396.41,482.55Z"/><path class="cls-4" d="M397.88,449a3.67,3.67,0,1,1-3.67-3.66A3.67,3.67,0,0,1,397.88,449Z"/><path class="cls-4" d="M369.81,415.64a3.67,3.67,0,1,1-3.67-3.67A3.67,3.67,0,0,1,369.81,415.64Z"/><path class="cls-4" d="M383.3,431.12a3.67,3.67,0,1,1-3.67-3.67A3.67,3.67,0,0,1,383.3,431.12Z"/><path class="cls-4" d="M366.14,434.05a3.67,3.67,0,1,1-3.66-3.67A3.66,3.66,0,0,1,366.14,434.05Z"/><path class="cls-4" d="M379.63,451.19a3.67,3.67,0,1,1-3.67-3.67A3.66,3.66,0,0,1,379.63,451.19Z"/><circle class="cls-4" cx="399.16" cy="417.43" r="3.67"/><path class="cls-4" d="M557.7,603.07A3.67,3.67,0,1,1,554,599.4,3.67,3.67,0,0,1,557.7,603.07Z"/><path class="cls-4" d="M331.44,414.33a3.67,3.67,0,1,1-3.67-3.67A3.67,3.67,0,0,1,331.44,414.33Z"/><path class="cls-4" d="M256.09,697.58a3.67,3.67,0,1,1-3.67-3.67A3.67,3.67,0,0,1,256.09,697.58Z"/><path class="cls-4" d="M638.81,501.18a3.67,3.67,0,1,1-3.67-3.67A3.67,3.67,0,0,1,638.81,501.18Z"/><path class="cls-4" d="M619.86,623.58a3.67,3.67,0,1,1-3.67-3.67A3.67,3.67,0,0,1,619.86,623.58Z"/><path class="cls-4" d="M803.53,574.51a3.67,3.67,0,1,1-3.67-3.66A3.67,3.67,0,0,1,803.53,574.51Z"/><path class="cls-4" d="M899.63,537.42a3.67,3.67,0,1,1-3.67-3.67A3.67,3.67,0,0,1,899.63,537.42Z"/><path class="cls-4" d="M932.63,619.2a3.67,3.67,0,1,1-3.67-3.66A3.67,3.67,0,0,1,932.63,619.2Z"/><path class="cls-4" d="M721.7,753.6a3.67,3.67,0,1,1-3.67-3.67A3.67,3.67,0,0,1,721.7,753.6Z"/><path class="cls-4" d="M213.74,728.49a3.67,3.67,0,1,1-3.67-3.67A3.67,3.67,0,0,1,213.74,728.49Z"/><circle class="cls-4" cx="243.57" cy="632.62" r="2.93"/><path class="cls-4" d="M276.49,498.88a2.94,2.94,0,1,1-2.93-2.94A2.93,2.93,0,0,1,276.49,498.88Z"/><path class="cls-4" d="M286.62,534.25a2.94,2.94,0,1,1-2.93-2.94A2.93,2.93,0,0,1,286.62,534.25Z"/><circle class="cls-4" cx="301.44" cy="742.83" r="2.93"/><circle class="cls-4" cx="197.17" cy="663.23" r="2.93"/><path class="cls-4" d="M237.32,661.67a2.94,2.94,0,1,1-2.93-2.94A2.93,2.93,0,0,1,237.32,661.67Z"/><path class="cls-4" d="M297.07,710.93a2.94,2.94,0,1,1-2.94-2.93A2.94,2.94,0,0,1,297.07,710.93Z"/><circle class="cls-4" cx="443.18" cy="798.34" r="2.93"/><circle class="cls-4" cx="479.82" cy="576.24" r="2.93"/><circle class="cls-4" cx="301.83" cy="435.6" r="2.93"/><circle class="cls-4" cx="335.73" cy="440.66" r="2.93"/><circle class="cls-4" cx="352.94" cy="481.09" r="2.93"/><circle class="cls-4" cx="331.44" cy="426.24" r="2.93"/><circle class="cls-4" cx="348.39" cy="421.1" r="2.93"/><circle class="cls-4" cx="445.55" cy="845.26" r="2.93"/><circle class="cls-4" cx="277.92" cy="768.2" r="2.93"/><path class="cls-4" d="M221,834.38a2.94,2.94,0,1,1-2.94-2.94A2.94,2.94,0,0,1,221,834.38Z"/><path class="cls-4" d="M191.65,826.42a2.94,2.94,0,1,1-2.94-2.93A2.94,2.94,0,0,1,191.65,826.42Z"/><path class="cls-4" d="M585.28,434.05a2.94,2.94,0,1,1-2.94-2.93A2.94,2.94,0,0,1,585.28,434.05Z"/><path class="cls-4" d="M814.21,602.09a2.94,2.94,0,1,1-2.94-2.94A2.94,2.94,0,0,1,814.21,602.09Z"/><circle class="cls-4" cx="817.14" cy="650.7" r="2.93"/><circle class="cls-4" cx="716.43" cy="641.87" r="2.93"/><circle class="cls-4" cx="592.03" cy="640.26" r="2.93"/><path class="cls-4" d="M581.12,609.67a2.94,2.94,0,1,1-2.93-2.93A2.94,2.94,0,0,1,581.12,609.67Z"/><circle class="cls-4" cx="596.08" cy="603.07" r="2.93"/><path class="cls-4" d="M915.28,579.05a2.94,2.94,0,1,1-2.93-2.94A2.93,2.93,0,0,1,915.28,579.05Z"/><circle class="cls-4" cx="859.35" cy="604.53" r="2.93"/><path class="cls-4" d="M843.32,564.63a2.94,2.94,0,1,1-2.93-2.94A2.93,2.93,0,0,1,843.32,564.63Z"/><circle class="cls-4" cx="689.71" cy="626.52" r="2.93"/><path class="cls-4" d="M823.79,792.1a2.94,2.94,0,1,1-2.93-2.93A2.93,2.93,0,0,1,823.79,792.1Z"/><circle class="cls-4" cx="713.89" cy="560.07" r="2.93"/><circle class="cls-4" cx="648.62" cy="603.36" r="2.93"/><path class="cls-4" d="M707.69,584.11a2.94,2.94,0,1,1-2.94-2.93A2.94,2.94,0,0,1,707.69,584.11Z"/><circle class="cls-4" cx="629.35" cy="675.4" r="2.93"/><circle class="cls-4" cx="637.43" cy="700.52" r="2.93"/><path class="cls-4" d="M451.42,688.6a2.94,2.94,0,1,1-2.94-2.94A2.94,2.94,0,0,1,451.42,688.6Z"/><path class="cls-4" d="M512.12,743.69a2.94,2.94,0,1,1-2.94-2.94A2.94,2.94,0,0,1,512.12,743.69Z"/><path class="cls-4" d="M530.66,823a2.94,2.94,0,1,1-2.93-2.94A2.93,2.93,0,0,1,530.66,823Z"/><circle class="cls-4" cx="633.95" cy="410.44" r="2.93"/><path class="cls-4" d="M735.73,472.46a2.94,2.94,0,1,1-2.94-2.93A2.94,2.94,0,0,1,735.73,472.46Z"/><path class="cls-4" d="M282.75,617.23a5.14,5.14,0,1,1-5.13-5.14A5.13,5.13,0,0,1,282.75,617.23Z"/><path class="cls-4" d="M282.75,735a5.14,5.14,0,1,1-5.13-5.14A5.14,5.14,0,0,1,282.75,735Z"/><path class="cls-4" d="M511.38,481.49a5.14,5.14,0,1,1-5.13-5.13A5.14,5.14,0,0,1,511.38,481.49Z"/><path class="cls-4" d="M399.34,569.38a5.14,5.14,0,1,1-5.13-5.14A5.13,5.13,0,0,1,399.34,569.38Z"/><path class="cls-4" d="M499.54,673a5.14,5.14,0,1,1-5.14-5.13A5.14,5.14,0,0,1,499.54,673Z"/><circle class="cls-4" cx="525.91" cy="589.86" r="5.14"/><circle class="cls-4" cx="818.87" cy="721.92" r="5.14"/><circle class="cls-4" cx="696.14" cy="661.67" r="5.14"/><circle class="cls-4" cx="793.44" cy="832.27" r="5.14"/><circle class="cls-4" cx="609.41" cy="554.94" r="5.14"/><circle class="cls-4" cx="756.48" cy="520.26" r="5.14"/><path class="cls-4" d="M824,440.18a5.14,5.14,0,1,1-5.14-5.13A5.14,5.14,0,0,1,824,440.18Z"/><circle class="cls-4" cx="774.68" cy="647" r="5.14"/><path class="cls-4" d="M437.32,823a5.14,5.14,0,1,1-5.13-5.14A5.13,5.13,0,0,1,437.32,823Z"/><circle class="cls-4" cx="411.53" cy="652.14" r="5.14"/><circle class="cls-4" cx="545.9" cy="369.74" r="5.14"/><path class="cls-4" d="M577.11,305.66a5.14,5.14,0,1,1-5.14-5.14A5.14,5.14,0,0,1,577.11,305.66Z"/><circle class="cls-4" cx="476.12" cy="751.27" r="5.14"/><path class="cls-4" d="M540.94,714.73a5.14,5.14,0,1,1-5.14-5.14A5.14,5.14,0,0,1,540.94,714.73Z"/><circle class="cls-4" cx="437.32" cy="716.79" r="5.14"/><circle class="cls-4" cx="443.35" cy="399.09" r="5.14"/><circle class="cls-4" cx="408.7" cy="463.52" r="5.14"/><circle class="cls-4" cx="358.73" cy="452.65" r="5.14"/><circle class="cls-4" cx="659.85" cy="454.48" r="5.14"/><circle class="cls-4" cx="237.74" cy="534.25" r="5.14"/><circle class="cls-4" cx="195.62" cy="473.93" r="5.14"/><circle class="cls-4" cx="585.28" cy="506.95" r="5.14"/><circle class="cls-4" cx="854.06" cy="519.24" r="5.14"/><circle class="cls-4" cx="355.14" cy="519.24" r="5.14"/><circle class="cls-4" cx="299.77" cy="478.89" r="5.14"/></g></g></svg>