<svg xmlns="http://www.w3.org/2000/svg" viewBox="0 0 1160.7 1160.7"><defs><style>.cls-1,.cls-3,.cls-5,.cls-6,.cls-7{fill:none;}.cls-2{fill:#c6d2c4;}.cls-3,.cls-5,.cls-6,.cls-7{stroke:#688c61;}.cls-3,.cls-5,.cls-6{stroke-linecap:round;stroke-linejoin:round;}.cls-3{stroke-width:0.5px;}.cls-4{fill:#688c61;}.cls-5{stroke-width:2px;}.cls-7{stroke-miterlimit:10;}</style></defs><title>Asset 71</title><g id="Layer_2" data-name="Layer 2"><g id="SVGs_Himpanzee_colours" data-name="SVGs + Himpanzee colours"><rect class="cls-1" width="1160.7" height="1160.7"/><path class="cls-2" d="M862,448.63a17.16,17.16,0,0,0-.14-4.36,19.58,19.58,0,0,0-.91-3.62,15.6,15.6,0,0,0-1.51-2.6,10.9,10.9,0,0,1-2.26-6c0-1.11,0-2.23,0-3.35a11.59,11.59,0,0,0-.54-3c-.11-.46-.09-.9-.21-1.36a7.45,7.45,0,0,0-.54-1.27,15.61,15.61,0,0,0-1.8-2.79c-.38-.49-.64-1-1-1.54-.58-.83-1.34-1.53-2-2.33a47,47,0,0,0-4.45-4.36,24.42,24.42,0,0,1-5.11-7.16,6.78,6.78,0,0,1-.71-1.75,14.43,14.43,0,0,1,0-2.18,6.9,6.9,0,0,1,.56-1.91,3.74,3.74,0,0,1,.22-1c.23-.42.62-.76.87-1.18a17.92,17.92,0,0,1,2.81-3.27,7.16,7.16,0,0,0,1.74-3.55,14.31,14.31,0,0,0,.75-3.63c0-.5,0-1,0-1.49a10.06,10.06,0,0,0-.32-1.9c-.12-.84.1-1.28-.27-2.12-.3-.67-.52-1.34-.79-2a20.62,20.62,0,0,0-3-4.92,42.4,42.4,0,0,0-3.86-3.61,30.3,30.3,0,0,0-3.61-3.38,27.78,27.78,0,0,1-3.24-3.18c-1.05-1.06-2.32-1.75-3.39-2.65s-2.36-1-3.46-1.57a54.06,54.06,0,0,0-5-2.12,62.65,62.65,0,0,0-8.26-3.09c-.64-.17-1.27-.43-1.91-.62a14.6,14.6,0,0,0-2.18-.2,25.42,25.42,0,0,0-3.71-.62,11,11,0,0,0-3.67.39c-1.71.55-3.48.27-5.19.67-2.09.49-4.31-.17-6.36.46-1.13.34-2.32.66-3.47,1a8.59,8.59,0,0,1-2,.45c-.48,0-1,.4-1.49.3l-2.12,1.51c-.76-.15-1.58.73-2.11,1.19a12.38,12.38,0,0,0-1.37,1.76,6.75,6.75,0,0,0-1.13,1.79,23.19,23.19,0,0,0-.82,7.57c0,2.58,1.48,4.62,2.11,7.08a12.63,12.63,0,0,1,.61,3.23,8.24,8.24,0,0,1-.43,2.38.6.6,0,0,1-.08-.08,3.9,3.9,0,0,1-.18-1.18c-.06-.38-.13-.78-.22-1.16a3.31,3.31,0,0,0-1.74-2.34,1.48,1.48,0,0,0-1.73.24,6.45,6.45,0,0,0-1.14,1.61,3,3,0,0,0,0,2.14,5.89,5.89,0,0,0,1.84,2.35l-.18,0a2.18,2.18,0,0,0-1,.12l.21,1.47c-.39,0-.78-.05-1.14-.05h-.31c-.57-.19-1.14-.33-1.71-.52a13.39,13.39,0,0,1-1.76-.92,5.41,5.41,0,0,1-1.56-1c-.21-.22-.4-.44-.62-.64a6.39,6.39,0,0,1-.74-.62c-.38-.5-.49-1.07-1.06-1.44A1.63,1.63,0,0,0,762,381c-1,1.13-.17,2.42.63,3.34a7.58,7.58,0,0,0,2.7,2.39c.32.13.63.16,1,.26a3.19,3.19,0,0,1,.78.49,6.74,6.74,0,0,0,2.13,1,6.74,6.74,0,0,0-.92.4,9.69,9.69,0,0,1-2.36.81l-.62.15c-.11-.11-.32-.27-.36-.31a3.31,3.31,0,0,0-1.73-1.07l-2-.5-.94-.25a8.69,8.69,0,0,0-1.87-2c-.49-.32-1-.59-1.48-.93a4.55,4.55,0,0,0-1.35-.74,1.46,1.46,0,0,0-1.74,1.78,5.82,5.82,0,0,0,.54,2,3.2,3.2,0,0,0,1.93,1.38l.42.11s.21.06.31.07.25.26.3.31a3.46,3.46,0,0,0,1.43.65,1.41,1.41,0,0,0-.27,1.21,8.33,8.33,0,0,0-1.18.53h0a8.37,8.37,0,0,1-2.29.16c-.87-.06-1.61-.54-2.46-.66a2.22,2.22,0,0,0-.27-.19l-.07-.06A2.86,2.86,0,0,0,751.1,390a5.38,5.38,0,0,1-.94-1c-.09-.1-.19-.19-.28-.28a3.16,3.16,0,0,0-2.16-1.64,1.47,1.47,0,0,0-1.62.66,6.57,6.57,0,0,0-.69,1.85,3,3,0,0,0,.54,2.07,5.25,5.25,0,0,0,1.78,1.5c.71.64,1.46,1.22,2.23,1.79l-.61.14a16.29,16.29,0,0,0-2.71.44l-.31.07c-.6,0-1.18,0-1.78-.07a13,13,0,0,1-1.94-.45,5.44,5.44,0,0,1-1.76-.58c-.25-.15-.5-.32-.76-.46a6.35,6.35,0,0,1-.87-.42c-.5-.39-.74-.91-1.39-1.12a1.62,1.62,0,0,0-2,.72c-.71,1.35.44,2.38,1.44,3.08a7.62,7.62,0,0,0,3.22,1.63c.33,0,.64,0,1,0a2.8,2.8,0,0,1,.88.27,6.49,6.49,0,0,0,2.31.4,9.62,9.62,0,0,0-.8.63,10.37,10.37,0,0,1-2.07,1.38l-.57.29-.42-.21a3.38,3.38,0,0,0-1.95-.6l-2.08,0c-.31,0-.64,0-1,0a8.74,8.74,0,0,0-2.32-1.48c-.55-.19-1.12-.32-1.66-.53a4.3,4.3,0,0,0-1.49-.37,1.44,1.44,0,0,0-1.24,2.15,5.71,5.71,0,0,0,1,1.81,3.16,3.16,0,0,0,2.21.85h.75c.1.07.31.18.37.22a3.49,3.49,0,0,0,1.54.28,1.51,1.51,0,0,0,.67,1.91l-.19.15c-.3.2-.61.38-.9.58a15.08,15.08,0,0,1-4,.59,1.5,1.5,0,0,0-.37.05l-.14-.07a5.07,5.07,0,0,0-.54-.36,2.62,2.62,0,0,0-.52-.22l-.08,0a2.94,2.94,0,0,0-1.4-.92,5.21,5.21,0,0,1-1.15-.69,4.1,4.1,0,0,0-.94-.46,2.43,2.43,0,0,0-.89-.32,1.45,1.45,0,0,0-1.61.66l-.12.25a2,2,0,0,0-.62,2,.32.32,0,0,0,0,.09,3.05,3.05,0,0,0,.56,1.58,7.48,7.48,0,0,0,3.45,2.29l.48.21-2.25,1.16c-.34.06-.68.13-1,.22l-.31.06c-.59,0-1.18,0-1.78-.06a14.76,14.76,0,0,1-1.94-.46,5.44,5.44,0,0,1-1.76-.58c-.25-.15-.5-.32-.76-.46a5.37,5.37,0,0,1-.87-.42c-.49-.39-.74-.9-1.39-1.12a1.63,1.63,0,0,0-2,.72c-.71,1.35.44,2.38,1.45,3.08a7.52,7.52,0,0,0,3.21,1.63c.34.05.65,0,1,0a3,3,0,0,1,.88.27,6.73,6.73,0,0,0,2.31.41,7.68,7.68,0,0,0-.79.62,10.44,10.44,0,0,1-2.08,1.38l-.57.29-.42-.21a3.37,3.37,0,0,0-1.94-.6l-2.08,0h-1a8.68,8.68,0,0,0-2.31-1.48c-.55-.19-1.13-.32-1.67-.53a4.3,4.3,0,0,0-1.49-.37,1.44,1.44,0,0,0-1.24,2.15,6.3,6.3,0,0,0,1,1.82,3.21,3.21,0,0,0,2.21.84h.75c.1.07.31.19.37.22a3.53,3.53,0,0,0,1.55.28,1.51,1.51,0,0,0,.67,1.91l-.19.15-.91.58c-.28.08-.57.15-.86.21-.13-.06-.25-.13-.39-.18a18,18,0,0,0-2.51-.57,6.31,6.31,0,0,1-2.06-1,18.8,18.8,0,0,0-5.38-1.87c-1.87-.47-3.74-.93-5.63-1.36a7,7,0,0,0,.56-.68,68.57,68.57,0,0,0-34.75,3.41l-2.58,2.1c-.47.16-.94.32-1.41.5a27.21,27.21,0,0,0-5.86,3,40.23,40.23,0,0,1-5.86,3.08c-.94.42-2,.67-2.9,1a10.63,10.63,0,0,0-2.12,1.11c-.62.45-1,.73-1,.73a5.91,5.91,0,0,1-2,1.39c-1.21.43-2.43.69-3.6,1.22s-1.91,1.16-2.91,1.71a8.7,8.7,0,0,1-2.5.8,61,61,0,0,1-6.42.65,62.06,62.06,0,0,0-11.26,1.9,4.89,4.89,0,0,0-.66,0c-.58.05-1.16.25-1.72.34a11.53,11.53,0,0,0-2.15.49c-2.87,1.06-4.14,4-4.68,6.1a12.57,12.57,0,0,0-.39,2.3,5.69,5.69,0,0,0-1.52,2.94c-.13.72-.13,1.4-.26,2.09a7.79,7.79,0,0,1-1.45.93,5.44,5.44,0,0,1-.73.2l-.08-.1a4.23,4.23,0,0,0-.32-.42,4.44,4.44,0,0,0-1.81-1.17c-3.21-1.2-7,1.08-8.09,3.79a6.81,6.81,0,0,0-.31,2.77,5.91,5.91,0,0,1-.23,2.48v0a.8.8,0,0,1-.09.14l-.06,0s0,0,0,0h0c-.11,0-.48.12-.15.05l-.12,0-.5,0-.17,0-.32-.08c-.26-.06-.51-.14-.76-.21l-1.73-.58a9.35,9.35,0,0,0-7.47.75,4.33,4.33,0,0,0-2.29,4.35,19.42,19.42,0,0,0,1.4,4.27c.12.31.23.62.32.93l.09.41v.14s0,.11,0,.18-.06.19-.09.3l-.33.25-.16,0h-.39c-.24,0-.48,0-.71-.06a21.89,21.89,0,0,1-3-.6c-1.94-.48-4.19-1.28-6.48-.63a2.21,2.21,0,0,0-1.4,1.22,12.1,12.1,0,0,0-1,5.71,8.22,8.22,0,0,0,.84,2.78c.19.41.39.81.55,1.23l-.89.86a9.37,9.37,0,0,1-7.23-.23,6.52,6.52,0,0,0-5.13-.89,6.12,6.12,0,0,0-4.21,3.43,3.93,3.93,0,0,0-.28,1.46c-1.1,1-2.12,2.06-3.11,3.09-.88,0-1.76,0-2.65-.11a19.89,19.89,0,0,1-4.11-1l-.3-.29-.1-.09,0,0a1.84,1.84,0,0,1-.17-.22s0,0,0,0l0,0s0-.06,0-.1c0-.29.06-.58.1-.86s.25-.75.36-1.32a2.87,2.87,0,0,0-.56-2.26,5.71,5.71,0,0,0-2.89-2,4.61,4.61,0,0,0-4.36,1.37c-.53.47-1,1-1.49,1.51l-.68.7-.38.37-.15.14-.07.06c-.24.18-.5.35-.76.51l-.17.08h0l-.41.11h-.24l-.1,0-.17-.05-.43-.23s-.36-.28-.42-.33l-.24-.21-.23-.22a5.56,5.56,0,0,1-.86-1.15l-.12-.3,0-.09s0,0,0-.05c-.06-.23-.1-.46-.14-.69-.1-.56-.14-1.12-.24-1.68A7.23,7.23,0,0,0,513,476c-2.9-.59-4.77,1.58-6.11,3.43a15.61,15.61,0,0,1-2.28,2.84,2.38,2.38,0,0,1-1,.53h-.15a1,1,0,0,1-.37-.05l-.19-.06-.22-.11-.14-.13a.75.75,0,0,1-.13-.18s-.21-.45-.24-.53c-.14-.38-.25-.89-.39-1.43a7.8,7.8,0,0,0-1.75-3.58c-1.69-1.82-3.9-3.19-6.23-2.63-1.84.43-3.14,1.85-4.27,3.15-.56.65-1.1,1.32-1.69,1.94-.2.22-.42.43-.65.64l-.28.21a2.54,2.54,0,0,1-.46.26,1.64,1.64,0,0,1-1.07.08,2.28,2.28,0,0,1-1-.51,4.66,4.66,0,0,1-1.69-2.39s0-.2,0-.24-.05-.26-.07-.4,0-.46,0-.69c0-.67,0-1.34,0-2a4.14,4.14,0,0,0-2.15-3.36,5.78,5.78,0,0,0-7.73,1.31,20.2,20.2,0,0,0-1.84,3.43c-.22.49-.46,1-.71,1.45a1.45,1.45,0,0,0-.1.18c-.09.12-.18.25-.28.37-.32.41-.7.78-1,1.19-.09.11-.17.24-.26.36-.38-.14-.75-.3-1.15-.48a9,9,0,0,0-1.76-.61,7.89,7.89,0,0,0-.92-.46c-1-.42-2.08-.76-3.11-1.19a22.55,22.55,0,0,0-6.37-1.74,9.75,9.75,0,0,0-4.27.43,1.48,1.48,0,0,0-1.2-.06l-.29,0a12.08,12.08,0,0,0-2.3-.25h-.17l-11.12-3.35a1.83,1.83,0,0,0-1.76-1.37,9.4,9.4,0,0,0-1.59.14l-.36-.32a1.67,1.67,0,0,0-.66-1.4,4.21,4.21,0,0,0-6.28.92,6.64,6.64,0,0,0-1.43-1.36,15.07,15.07,0,0,0-3.21-1.84c-.62-.28-1.25-.55-1.9-.79-.42-.27-.84-.52-1.26-.76a9.13,9.13,0,0,0-.84-.49c-.18-.08-.37-.17-.56-.24a7.18,7.18,0,0,0-3.43-.8c-.87.07-1.86.35-2.16,1.11-1.18,1.36-.7,3.72.64,5.29a9.44,9.44,0,0,0,4.84,2.63c.46.12.92.23,1.39.32a8.78,8.78,0,0,0,.79.44,9.8,9.8,0,0,0,4.9,1.47,3.56,3.56,0,0,0-.12,5.18,14.81,14.81,0,0,0,3,2.6,7.32,7.32,0,0,0,3.87,1.37,38.92,38.92,0,0,1,5.23.73l-.22,0a26.45,26.45,0,0,0-3.47.94,8.41,8.41,0,0,0-2.57,1.3,10.7,10.7,0,0,1-2.46,1.59,23.51,23.51,0,0,1-5,1.26c.83.73,1.68,1.49,2.55,2.29a6.2,6.2,0,0,1-1.77,1.11c-1.29.48-2.7.85-4,1.23a3.47,3.47,0,0,1-2.47-.12,15,15,0,0,1-5.7-3.63,75.39,75.39,0,0,0-6-5.88,16.43,16.43,0,0,0-8.41-3.53c-3-.3-5.44.81-6.29,3.82a26.16,26.16,0,0,0-.54,3.53,29.17,29.17,0,0,0-.36,5c.18,5.05.64,10.26,3.25,14.7a22.71,22.71,0,0,0,2.85,3.78c-.75,1.14-1.75,2.07-2.45,3.25a5.12,5.12,0,0,0-.73,3.71,6.53,6.53,0,0,0,2.05,3.12,10.89,10.89,0,0,1,1,1.27h0a26.38,26.38,0,0,1,8.07.58c0,.78.08,1.57.12,2.34a26.28,26.28,0,0,0,.44,4.24c.87,4.18,2,8.47,4.65,11.82a19.6,19.6,0,0,0,2.77,2.77c-.42,1.05-1.06,2-1.44,3a4.66,4.66,0,0,0,0,3.19,5.58,5.58,0,0,0,2.05,2.33,13.13,13.13,0,0,1,3,3.86,16,16,0,0,1,1,2.44,17.3,17.3,0,0,1,1.16,3.18c.26,2,.46,4.11.61,6.14a16.26,16.26,0,0,1,0,3,25.62,25.62,0,0,0-.06,3.28,27.22,27.22,0,0,1-.36,3,30.11,30.11,0,0,0-.13,3.68,68.69,68.69,0,0,1,0,7,29.43,29.43,0,0,0-.13,3.25c.05,1.18.48,2.28.49,3.45s-.16,2.3-.09,3.46.25,2.4.36,3.61c.21,2.4.1,4.78.41,7.18a26.75,26.75,0,0,1,.29,3.22,26.43,26.43,0,0,0,.17,3.77c.33,2,.58,4.08.92,6.12.18,1,.11,2.1.26,3.15s.21,1.93.28,2.92.31,2.13.39,3.19c.1,1.24.1,2.47.09,3.7a21.44,21.44,0,0,0,.26,3c-.28,1.35-.55,2.7-.73,4.07-.07.58-.14,1.15-.2,1.72a1.7,1.7,0,0,0-.6,1.06,3.15,3.15,0,0,1-.78,1.36,7.73,7.73,0,0,0-1.06,1.91,8,8,0,0,1-.65,1.53,17.15,17.15,0,0,1-1.38,1.45c-.83,1-1.5,2.05-2.29,3.05a18.91,18.91,0,0,0-1.92,2.95c-1.05,2-2,4.67-.43,6.72a16.63,16.63,0,0,0,3.2,2.54c-.2-.15.35.35.41.42a7.34,7.34,0,0,1,.51.6c.13.17.25.35.37.54l-.18.74c-.07.19-.11.38-.17.58,1,.78,2,1.55,3,2.31a47.62,47.62,0,0,1-8.11-1.11s-9,1.62-6.74,6.83a4.8,4.8,0,0,0-.35,1.85c1.11,6.73-2,36.82-7.68,58.4S382.2,794.17,382.15,801s-7.31,5-6.19,9.15a2.39,2.39,0,0,0,.11.32,18.25,18.25,0,0,0-2.4,2.87c-1.82,2.46-4,4.45-6,6.72a48.35,48.35,0,0,0-5.55,7.77,32.76,32.76,0,0,0-3.7,10.17c-.59,3.15-1.34,7.1,1.34,8.92a5.17,5.17,0,0,0,2.81.73c.35,0,.71,0,1.06.06l.36.09c.4.14.8.24,1.21.34a6.11,6.11,0,0,0,6.77-2.05c.38-.44.74-.91,1.1-1.38.75,0,1.51-.07,2.26,0a11.71,11.71,0,0,1,3.41.82c2.5.88,5,1.86,7.48,2.59a14.46,14.46,0,0,1,2.94,1.53c1.06.59,2.15,1.06,3.2,1.7,2.31,1.42,4.51,3.12,6.91,4.3a1.62,1.62,0,0,0,1.84-.33c.84.16,1.67.57,2.53.68a27.4,27.4,0,0,1,3.48.37c2.49.63,4.86,1.79,7.37,2.35,2.2.49,4.51.79,6.58,2s4.24,2.93,6.58,2.55a3,3,0,0,0,2.45-3.25c0-1.75-1.12-3.26-2.45-3.25h-.4l-.07,0c-1.73,0-3.46-1.65-5-2.46-2.32-1.21-4.82-1.48-7.25-2.08s-4.71-1.78-7.14-2.3c-1.31-.28-2.64-.18-3.94-.42-.71-.13-1.38-.39-2.06-.58a2.21,2.21,0,0,0-2.43-.89,2,2,0,0,0-.55.31c-1.6-1-3.14-2.18-4.76-3.11-1.07-.61-2.19-1.07-3.25-1.72l-.48-.29a16.78,16.78,0,0,1,2.53.3,82,82,0,0,0,11.46,2c1.84.13,3.64.53,5.48.76s3.71-.05,5.57,0c1.71.07,3.36.66,5.05.82a11.22,11.22,0,0,1,2,.46,1.93,1.93,0,0,0,1.2.41h.69a3.7,3.7,0,0,0,.94,0,1.65,1.65,0,0,0,.44-.1,1.9,1.9,0,0,0,2-.71h0a2.16,2.16,0,0,0,1.09-.34,104.32,104.32,0,0,1,10.41,3.11c2.27.71,4.52,1.56,6.79,2.23,1.76.51,3.74.63,5.31,1.88,2.45,2,4.8-2.43,3-5.11a4.6,4.6,0,0,0-2.11-1.71,1.79,1.79,0,0,0-.82-.16,36.68,36.68,0,0,0-3.54-1c-2.45-.65-4.86-1.61-7.29-2.36-5.15-1.6-10.34-3.72-15.65-3.8-.11,0-.21,0-.32,0-.28-.11-.56-.23-.87-.34-1.43-.52-2.89-.28-4.33-.61a46,46,0,0,1-4.44-1.69,28.13,28.13,0,0,0-4.79-.78c-.88-.16-1.74-.31-2.6-.44.75.05,1.52.08,2.29.08,8.38,0,16.76-.34,25.14-.21,1.41.42,2.78,1,4.21,1.35a13.55,13.55,0,0,1,4.15,1.27c1.3.76,2.68,1.85,4.16,1.61a1.93,1.93,0,0,0,1.55-2.06,2.1,2.1,0,0,0-.08-.56h.16c1.7-.17,3.5,1.28,5.1,2,1.94.84,3.91,1.59,5.89,2.24s3.84,1.27,5.72,2.08a10,10,0,0,1,3.36,2.38c2.34,2.8,5.82-1.78,3.47-4.59-3-3.57-7.08-4.78-10.87-6-2.11-.69-4.2-1.47-6.27-2.37l-.75-.35a4.28,4.28,0,0,0-.36-1.26l.35.11c1.43.45,2.85,1,4.29,1.41a8.85,8.85,0,0,1,3.35,1.18c1.54,1.24,3-1.53,1.87-3.22a2.91,2.91,0,0,0-1.33-1.08,1.29,1.29,0,0,0-.52-.1,21.84,21.84,0,0,0-2.23-.65c-1.55-.41-3.07-1-4.61-1.49-3.24-1-6.52-2.35-9.87-2.4a1.2,1.2,0,0,0-.2,0l-.56-.22a21.09,21.09,0,0,0-2.73-.38,29.8,29.8,0,0,1-2.8-1.07,17.55,17.55,0,0,0-3-.49c-.55-.1-1.09-.2-1.64-.28.48,0,1,0,1.45,0,5.69,0,11.38-.25,17.07-.11,2.21.05-4.52-4.12-7.39-4.12s-5.68,0-8.52.11a28.74,28.74,0,0,1-4.84-.29c0-.16-.05-.33-.08-.5l.18,0a22.59,22.59,0,0,1,2.88-.75,18.88,18.88,0,0,1,3.19,0c.86,0,1.37-.76,1.47-1.7.35.05.71.09,1.06.11a1.26,1.26,0,0,0,.28,0h.25c2,0,2-4,0-4.1-2.61-.08-5.15-1-7.77-1-1.51,0-3,0-4.52,0a2.26,2.26,0,0,0-.78-.66c-.41-.21-.84-.33-1.27-.5-.06-.94-.09-1.9-.07-2.86a25.23,25.23,0,0,0-2.77-1.18c-2-6-3.17-2.36,11.1-31.19,16.46-33.26,20.14-66.42,27-78.06s16.41-14.18,12.54-25.39c-3.47-10.07-1.79-13-6.92-11a11.62,11.62,0,0,0-2.17-7.8c0-1-.09-2-.13-3.06v0a6.55,6.55,0,0,0,.11-2.57c0-.34-.1-.65-.16-1,0-1,0-2,0-3s-.06-2.17-.13-3.26,0-2.17,0-3.26a12.66,12.66,0,0,0-.64-3,12.74,12.74,0,0,1-.16-3c-.1-2.14-1-4-1.52-6-.64-2.28-1.22-4.58-1.93-6.82s-1.5-4.11-2-6.32-.88-4.34-1.46-6.47l-1.92-7a133.86,133.86,0,0,0-4.36-13.23c-1.72-4.39-3.53-8.72-5.56-12.87-1.82-3.71-3.85-7.31-5.51-11.15a10.55,10.55,0,0,0-.9-2.26c.6-2.38,1.23-4.73,1.95-7.06,1-3.23,2.24-6.36,3.38-9.52,0-.08.05-.16.08-.23,4.6.48,9.23-1.06,11.88-7.58.94-2.87,1.94-5.71,3.08-8.51s1.14-14.84,1.07-21.34c1.25-.39,2.48-.82,3.75-1.18a12.87,12.87,0,0,1,3.54-.4c1.22,0,2.45.05,3.68.07a1.79,1.79,0,0,0,.42,0c1.21.47,2.56.08,3.82.07a15,15,0,0,0,3.16-.24,4.05,4.05,0,0,0,2.5-1.89,2.36,2.36,0,0,1,1.65-1.06,2.91,2.91,0,0,1,1.73.47c1.64.91,2.79,2.57,4.41,3.58a4.24,4.24,0,0,0,5.36-.44c.54-.5,1-1.1,1.47-1.62a1.82,1.82,0,0,1,.62-.49c.17-.09.06-.07.27-.1-.08,0,.17,0,.26,0l.05,0,.25.14a8.9,8.9,0,0,1,1,.76,14.8,14.8,0,0,1,1.69,1.65c1.24,1.44,1.69,3.24,2.86,4.72a7,7,0,0,0,2.74,2.15c1.51.63,2.44-.41,3.41-1.15s1.83-1.29,2.63-2c.53-.49.95-1.24,1.65-1.54a1.73,1.73,0,0,1,1.56.22,12,12,0,0,1,2,1.28c1.43,1.1,2.72,2.34,4,3.54,1.5,1.35,3,3,5,3.57a4.45,4.45,0,0,0,3.42-.31,6.7,6.7,0,0,0,1.84-1.95,4.36,4.36,0,0,1,1.7-1.34,2.5,2.5,0,0,1,.45-.12h.3s0,0,0,0l.29.08a6.28,6.28,0,0,1,.57.31l.3.2.47.36.22.18c4.3-2,10-4.51,14.5-8.41,1.68,6.28.5,13.38-.29,18.61l.1,0c-.22,1.61-.44,3.21-.65,4.82v.08a6.58,6.58,0,0,1-.22,1.54c-.06.47-.12.94-.19,1.4a41.62,41.62,0,0,1-1.88,6.6c-.36,1.11-.67,2.22-1.15,3.33s-.94,2-1.39,3a31.23,31.23,0,0,0-1.77,6.35,33.43,33.43,0,0,0-1,6.71,47.49,47.49,0,0,0,1.41,13.14,14.64,14.64,0,0,1,.21,1.62c0,.45-.21.89,0,1.33a1.06,1.06,0,0,0,.3.4,1.28,1.28,0,0,0,0,.27,1.83,1.83,0,0,0,2.36.71l.33-.14a2.67,2.67,0,0,0,1.33-1.12,4.51,4.51,0,0,0,1.38-1.44,6.62,6.62,0,0,0,.8-3.28,26.4,26.4,0,0,0-.59-3.07c-.12-1.09-.44-2.12-.57-3.2-.06-.53-.23-1-.31-1.55s-.1-1.28-.16-1.91c0-.26,0-.52,0-.78.24-1.62.65-3.22,1-4.85q.35-1.49.66-3l.34-.68a17,17,0,0,0,.67-1.6,8.8,8.8,0,0,0,.61-1.38,27,27,0,0,1,1.14-3.1c.89-2.37,1.61-4.75,2.52-7.12a35.3,35.3,0,0,0,2.07-7.2c.07-.45.15-.91.23-1.38,0-.26.11-.52.17-.78a31.19,31.19,0,0,0,.59-4.68c.18-1.57.41-3.14.5-4.71l0-.58s0-.06,0-.08a2.52,2.52,0,0,0,0-.67c0-.22,0-.45,0-.67.1.37.22.75.34,1.12.85,2.55.72,5.35.75,8.08a31.1,31.1,0,0,0,.31,4c.08.57.16,1.16.19,1.75s-.24,1.15-.32,1.72-.15,1.15-.22,1.73c-.28.85-.6,1.69-.87,2.54-.44,1.36-.82,2.72-1.25,4.08-1.69,5.46-3.5,11-3.54,16.42-.05,6.3,2.63,11.93,4.66,17.66.27.77,1.16.95,2,.75a3.17,3.17,0,0,0,2.16,1.26c1.81.27,3.29-.55,3.67-2.06.67-2.68-1.46-4.84-2.59-7a25.72,25.72,0,0,1-1.72-3.34,12.25,12.25,0,0,1-.61-3.77c-.09-2.59-.2-5.17-.08-7.79s.68-5.37.89-8,1.74-5.12,1.82-7.65a4.91,4.91,0,0,1,.39-1.44,10.38,10.38,0,0,0,.28-2c.08-.61,0-1.23.14-1.85s.31-1.24.42-1.85.21-1.12.33-1.67a16.89,16.89,0,0,0,.26-2c.15-1.31.55-2.63.64-3.94s0-2.55.07-3.83a31,31,0,0,0,.16-4.07c-.09-1.33-.29-2.66-.46-4a29.41,29.41,0,0,0-.84-3.51l2.19-1.87c.14,1,.32,1.92.44,2.89.42,3.59,2,6.9,3.17,10.27.67,1.91,1.37,3.8,2,5.73a12.79,12.79,0,0,0,1.29,5.43c.57,2.84,1.46,5.55,1.49,8.53a33.86,33.86,0,0,1-1.78,10.21c-.52,1.72-1.18,3.39-1.88,5.1a14.13,14.13,0,0,0-1,5.08c0,1.75,0,3.48,0,5.23a22.79,22.79,0,0,0,.45,5.3c.83,3.32,3.64,5.9,6.26,8.31.32.3.64.59,1,.87a12.27,12.27,0,0,0,.87,1.3,15.82,15.82,0,0,1,1.43,2c.29.54.48,1.11.79,1.65a6.56,6.56,0,0,0,8.24,3.07,2.5,2.5,0,0,0,.92-.52,4.26,4.26,0,0,0,1.88,1,16.76,16.76,0,0,1,2.82.49,12.65,12.65,0,0,1,1.73,1.09c.24.15.5.29.76.42a7.81,7.81,0,0,0,1.41,1.18,22.21,22.21,0,0,0,6.28,2.39c2.24.59,4.32,1.6,6.88,1.6a4.75,4.75,0,0,0,3.69.12c.16-.07.3-.15.43-.22a2.62,2.62,0,0,0,.38-.09l.8-.22a2.69,2.69,0,0,0,.34-.12,21.36,21.36,0,0,1,3.11.08c1,.13,2,.33,3,.39.7,0,1.42,0,2.15,0,.86.41,1.8.75,2.72,1.09a15.2,15.2,0,0,1,1.78.79h0c1.06,1.17,2.85,3,5.16,2.6.59-.1,1.16-.43,1.7-.52s1.34,0,2-.09a10,10,0,0,0,4.31-1.81,8.27,8.27,0,0,0,1.5-1.45c.34-.41.57-.93.95-1.33a2.17,2.17,0,0,0,.29-.24,10.78,10.78,0,0,1,3.39-1,2.45,2.45,0,0,0,1.91-1.34l0-.14c1.52-.4,3.06-.73,4.59-1.09a10.12,10.12,0,0,0,1.91.75,11.18,11.18,0,0,0,2,.25,7,7,0,0,0,1.83.68,6.39,6.39,0,0,0,2.44.49,12.75,12.75,0,0,0,2.23-.76c.7.48,1.26,1.11,2,1.54a1.84,1.84,0,0,0,.92.21c.06.12.1.25.16.37,11.47-6.46,28.56-15.08,41.32-17.21,2-1,3-2.11,2.29-4.28-.22-.75-.37-2-1.05-2.49-.92-.75-3.06-.74-4.28-1.19-2.88-1.07-5.67-2-6.57-4.44a2,2,0,0,1-.11-.26l.26-.3c1.37-1.54,2.29-3.25,3.52-4.84s2.92-3.3,4.27-5a39.53,39.53,0,0,0,3.47-5,22,22,0,0,1,1.44-2.47,13.91,13.91,0,0,0,1.81-2.78c.34-.79.58-1.56,1-2.35s1-1.86,1.48-2.8a31.65,31.65,0,0,0,1.28-3.1c1.27,3.51,3.5,9.69,3.56,10.15.22,1.8.23,3.43.35,5.19.07,1.1.4,2.28.57,3.35.32,2,.36,3.92.62,5.89.22,1.76.2,3.25.28,5,.07,1.46.6,2.74.56,4.26-.06,3.3.91,6.33,1,9.6,0,1.47-.26,3-.3,4.46a24.24,24.24,0,0,0,.6,3.92c.42,3.31-.44,7.32-.62,10.66s-.35,6.44-.53,9.65c-.23,4.21-.48,8.43-.71,12.64,0,.1-.05.21-.08.31A15.47,15.47,0,0,0,727,624c0,.68-.07,1.36-.1,2a27.52,27.52,0,0,1-1,5.07c-.36,1.64-.2,3.13-.69,4.76-.74,2.44-.78,5-1.44,7.46-.5,1.92-.45,3.69-2.73,4-1.5.19-2.73-.52-4.1-.87-1.14-.29-2.18-.13-3.32-.31-1.58-.25-2.39-1.33-3.92-.6-4.84,2.29.71,10.72,4.49,11.77a3.58,3.58,0,0,0-.09.35,27.87,27.87,0,0,0-1,5.94c-.16,5.31.83,10.54.65,15.82-.18,5.56,0,11,.26,16.57.19,5,.87,9.92.9,14.94,0,2.36-.53,4.54-.32,7s0,4.49.1,6.75c.06,1.94.59,3.73.59,5.66a43.29,43.29,0,0,0,.38,7.28c.6,3.75,1,7.5,1.51,11.27a69.44,69.44,0,0,0,1.2,7c.11.43.22.85.34,1.26l.06.61c0,.65-.07,1.27,0,1.93.16,1.26,0,2.48.11,3.74.06.86.16,1.68.21,2.52,0,.17,0,.34,0,.51l0,.49c0,.65,0,11,.09,11.68.05,1,.09,1.93.1,2.9a2,2,0,0,1-.23.17,11.16,11.16,0,0,0-1.61,1.1c-.41.42-.84.82-1.26,1.24a3.77,3.77,0,0,0-.73,1.42,3.89,3.89,0,0,0-.29,1.5,1.24,1.24,0,0,0,.07.5,2.55,2.55,0,0,0,.37.59c.31.41.73.73,1,1.13s.48.71.72,1.06a1.88,1.88,0,0,0,.31.32,4,4,0,0,1,.84,1.25c.08.2.14.4.2.6.07.61.13,1.23.2,1.84a1.51,1.51,0,0,0-.41,1.37c.25,1.41.44,2.84.72,4.25a12.66,12.66,0,0,0,1,3.75,1.59,1.59,0,0,0,2.45.45c1-1,.62-2.15.29-3.36l0-.14a29.74,29.74,0,0,0,3.77,3.76,1.43,1.43,0,0,0,1.33,1c.15,0,.3,0,.44.06a4.05,4.05,0,0,0,1,.18,18.19,18.19,0,0,1,2.66.92,2.9,2.9,0,0,0-.9,2.29c-.05,3.82,7.81,4.87,10.87,5.53,3.56.77,5.85,5.8,7.95,9.32a12.12,12.12,0,0,1,1.14,4.6,1.88,1.88,0,0,0-1,1.6,5.6,5.6,0,0,1-1.55-1,5.21,5.21,0,0,1-1.66-2,12.29,12.29,0,0,1-.84-2.73c-.29-1.68,0-4.37-1.62-5.6a2.45,2.45,0,0,0-.9-.4,4.77,4.77,0,0,0-.94-.34,3.89,3.89,0,0,0-3.77.66,9.23,9.23,0,0,0-2,2.23,4.4,4.4,0,0,0-.28,2.79v.06a3.33,3.33,0,0,0-.82,5,3.23,3.23,0,0,0,1.47,2.65c.64.5,1.17,1.07,1.85,1.53a20,20,0,0,0,2.43,1.4c.29.15.56.32.84.49a1.7,1.7,0,0,0,.73,1.65,2.45,2.45,0,0,0,.72.53,11.33,11.33,0,0,0,4.36,2,19.36,19.36,0,0,1,2.32.4,12.91,12.91,0,0,0,2.31.5,51,51,0,0,1,1.39,5.85c.52,2,1.06,4.41,1.7,6.63h0a5,5,0,0,1-1.59-.56c-.83-.35-1.67-.66-2.47-1.05a25.56,25.56,0,0,0-2.44-1.1c-1.88-.66-3.68.53-3.66,2a5.79,5.79,0,0,1-1.67-1.07,5.71,5.71,0,0,1-1.81-2.12,13.4,13.4,0,0,1-.9-3c-.31-1.81,0-4.73-1.75-6.06a2.7,2.7,0,0,0-1-.42,5.13,5.13,0,0,0-1-.38,4.24,4.24,0,0,0-4.07.72,9.94,9.94,0,0,0-2.19,2.41,4.77,4.77,0,0,0-.3,3v.07A3.5,3.5,0,0,0,730,845.8a3.71,3.71,0,0,0,.28,4.21,3.48,3.48,0,0,0,1.6,2.87c.69.54,1.26,1.16,2,1.66a26.1,26.1,0,0,0,2.63,1.52c.32.16.61.34.91.52a1.84,1.84,0,0,0,.79,1.79,3.08,3.08,0,0,0,.78.57,12.09,12.09,0,0,0,4.72,2.14,19.09,19.09,0,0,1,2.51.44,11.47,11.47,0,0,0,3.15.58c2.08,0,4.22-.28,6.3-.43.87-.07,1.75-.13,2.62-.18l.7,0c1.05.05,2.1.07,3.15.15a5.93,5.93,0,0,0,3.41-.26,2.06,2.06,0,0,0,.46-.31,29,29,0,0,1,5.05.94c6.7,0,14.52-1.77,18.46-8.77-.72-.58-1.42-1.18-2.09-1.8s-1.08-1-1.62-1.43c-.81-.7-1.63-1.39-2.48-2.06s-1.81-1.79-2.79-2.59a8.32,8.32,0,0,0-.1-1.72c-.57-2.7-2.9-4.63-3.41-7.44-.42-2.33.44-4.78,1-7.07.13-.51.23-1,.37-1.38A2.37,2.37,0,0,0,780,827a3.33,3.33,0,0,1,.58.28,34.29,34.29,0,0,1,3.22,3.48c.39.43.84.84,1.24,1.26,2.31,2.42,5,5,7.57,7.36,1.71,1.54,3.06,3.72,5.13,4.83a18.44,18.44,0,0,1,3,1.57c.91.71,1.57,2,3,1.19,2.22-1.31,0-4-.48-5.44-.72-2.16-1.14-4.89-2.59-6.88-2.7-3.75-4.85-8.08-7.61-11.95a29.22,29.22,0,0,1-3.83-7.09,22.35,22.35,0,0,0-1.43-3.15,4.19,4.19,0,0,0-.88-1.16c-.28-.22-.58-.33-.75-.67s-.16-1-.68-1.26h0a27.55,27.55,0,0,1-1-3.88c-.33-3-1.73-6-2.41-9.06-1.08-4.94,1.91-11.84,3.84-16.18,2.66-6,3.89-22,5.35-28.49.71-3.16,1.58-6.32,2.17-9.51a40.41,40.41,0,0,0,.15-5c.12-2,1.11-3.88,1.28-5.87.53-6.36.76-13.43-.27-19.79-1.07-6.63-2.21-13.07-2.8-19.78-.48-5.43-2-11.21-3.24-16.52-.9-3.84-.71-7.32-2-11.13-1.12-3.39-1.21-6.92-2.31-10.33a86,86,0,0,1-2.94-11c-.57-3.2-2.49-6.38-3.85-9.38-1.47-3.25-2.89-6.58-4.45-9.64-.1-.18-.19-.38-.29-.58-.24-1.55-.54-3.25-.88-5.11,0,0-16.32-158.11-39.28-173.43-1.07-1.28-2.13-2.57-3.28-3.81s-2.81-2.22-4.14-3.46a5.79,5.79,0,0,0,3-3.28,2.4,2.4,0,0,0,1-.59,3.61,3.61,0,0,0,.66-3.07,9.67,9.67,0,0,0-.4-1.69c0-.05-.07-.22-.12-.4a7.2,7.2,0,0,1,.78.16,20.43,20.43,0,0,1,2.64.88c.7.28,1.51.26,2.19.57a1.46,1.46,0,0,0,2.1-.85,4.29,4.29,0,0,0-.34-3,5.79,5.79,0,0,1-.27-1.05c.87-.66,6.36-1.32,6.91-2.27,0,0,1.31-5.84,5-3.05a2.85,2.85,0,0,0,.81-1.75h.36a2.18,2.18,0,0,0,.8.14A1.88,1.88,0,0,0,751,418a2.38,2.38,0,0,0,1.35-.65,3.66,3.66,0,0,0,.66-3.08,9,9,0,0,0-.41-1.68c0-.05-.06-.22-.12-.4a6.71,6.71,0,0,1,.78.15,22.28,22.28,0,0,1,2.65.89c.7.28,1.51.26,2.19.57a1.46,1.46,0,0,0,2.1-.85,4.29,4.29,0,0,0-.35-3,6.71,6.71,0,0,1-.26-1.05c.87-.66,5.91-1.65,7.85.82a2.88,2.88,0,0,0,1.22-1.49l.35.1a2.49,2.49,0,0,0,.74.34,1.82,1.82,0,0,0,.8,0,2.45,2.45,0,0,0,1.47-.3,3.61,3.61,0,0,0,1.41-2.81,9.1,9.1,0,0,0,0-1.73s0-.22,0-.42a6.82,6.82,0,0,1,.72.35,22.16,22.16,0,0,1,2.33,1.52,1.05,1.05,0,0,1,.11.07,16.48,16.48,0,0,0,2.42,5.18,26.82,26.82,0,0,0,1.91,2.1,26,26,0,0,0,2.84,2.71c1.05.89,2.13,1.82,3.26,2.6s2.56,1.43,3.75,2.31,2.43,1.73,3.62,2.64a26.7,26.7,0,0,1,3.87,3.94,18.44,18.44,0,0,1,2.34,3.84c.32.61.4,1.27.66,1.88s.44,1.32.66,2a17.22,17.22,0,0,1,.88,2.23,14.48,14.48,0,0,0,1,2.4c.66,1.68,1,3.28,2.27,4.6,1,1.09,1.28,2.52,2.49,3.47.12.1.41.31.52.38a3.94,3.94,0,0,0,.65.32,15,15,0,0,1,2.43,1.15c.38.26.67.63,1.07.88s.66.25,1,.44c.72.4,1.44.72,2.17,1.11a13.84,13.84,0,0,1,1.81,1.3c.65.5,1.32.83,2,1.27a28.38,28.38,0,0,1,3.6,2.73,4.84,4.84,0,0,1,1.11,1.41,4.71,4.71,0,0,0,.73,1.29,3.25,3.25,0,0,1,.73.91c.11.23.14.7.27,1s.4.64.55.93c.29.53.71.93,1,1.46.38.72.47,1.57.89,2.29s.74,1.35,1.14,2a34.79,34.79,0,0,0,2.42,4.25c1.06,1.33,1.7,2.65,3.38,3.22a28.89,28.89,0,0,1,3.63,2c.59.29.94.07,1.53.19.14,0,.26.24.34.25a4.15,4.15,0,0,0,1.17.07c1.4,0,2.07-.84,3-1.81s1.14-2.47,2.07-3.33a10.56,10.56,0,0,1,1.7-.9c.36-.21.67-.46,1-.67a19.14,19.14,0,0,1,2-1,6.13,6.13,0,0,0,2.16-1.59,38.68,38.68,0,0,0,3.65-4.24,13.24,13.24,0,0,0,1.11-2.19,9.74,9.74,0,0,0,1.07-2.11c.13-.55.23-1.17.31-1.75.11-.86.39-1.65.53-2.51a34.13,34.13,0,0,0,.05-4.05C861.41,450.9,861.92,449.8,862,448.63Zm-435.91,30.1.26-.05c0,.11.06.22.1.33ZM400.57,736.51c2.51-15,10-41.94,12.78-49,.08-.2.14-.39.2-.58a12,12,0,0,1,.8,5.79c-.7,11.84-13.6,72.7-18.44,88-2,6.38-4.44,5.13-6.33,11C393.19,773.21,398.7,747.66,400.57,736.51Zm-2.67,79.07c-.66-.33-1.34-.52-2-.78-.08-1.2-.12-2.43-.11-3.66,3.06-.25,5.33-1.9,3.87-5.57-2.78-7-6.88.84,7-30.69s15.08-61.44,21-72.61c2.46-4.6,5.47-7.88,7.84-10.81a337.7,337.7,0,0,1-9.7,40.45C418.39,755.2,409,793.46,408.36,801s-7.72,4.6-6.94,9.37,8.32.35,11.08-4.78a8.86,8.86,0,0,0,.19,3.85c-1,1.19-2.07,2.24-3.08,3.4a30.4,30.4,0,0,0-2.78,3.71l-.54,0c-2.39,0-4.77.06-7.16.07A3.67,3.67,0,0,0,397.9,815.58ZM447.48,830a1.4,1.4,0,0,0,.69-.21c.53.1,1.07.23,1.6.38L447.4,830l.07-.06Zm-7.78-.55a8.89,8.89,0,0,1,1.45.21c-.79,0-1.58-.1-2.37-.13l-1.28,0C438.23,829.44,439,829.39,439.7,829.42Zm10.42-145.58c-1.67,13.09-19.58,79.16-25.68,95.61-2.53,6.83-5.52,6-7.89,12.34,5.13-20.21,13.4-48.84,16.18-61,3.75-16.39,13.45-45.39,16.81-52.89.1-.21.18-.42.26-.62A15.14,15.14,0,0,1,450.12,683.84ZM440.57,580a8.86,8.86,0,0,0,1,2.14,4.26,4.26,0,0,0,.89.86c.07.06.09.06.09,0,.05.15.08.38.12.51a8.72,8.72,0,0,0,1.17,2.32c.67,2.07,1.35,4.14,2.17,6.12a21.88,21.88,0,0,1,1.48,5.57,57.5,57.5,0,0,0,1.15,6.49c.23.92.49,1.84.63,2.79s.23,2.1.33,3.15a46.85,46.85,0,0,0,1.17,6c.2.83.4,1.65.65,2.45s.68,1.74.93,2.66c.48,1.75.58,3.66,1.11,5.39a13.56,13.56,0,0,1,.87,2.61,28.45,28.45,0,0,0,.52,3.47c.47,2,.88,4,1.19,6a26.53,26.53,0,0,0-.26,4.62,18.5,18.5,0,0,0-2.2,2.73c-.75,1.07-1.51,2.14-2.17,3.31-1.37,2.44-2.48,5.51-1.64,8.56a7.9,7.9,0,0,0,1.54,3,42.61,42.61,0,0,1-5.17-1.68s-9.14.6-7.31,6.71a5.69,5.69,0,0,0-.5,2,58.27,58.27,0,0,1-.58,9.21c-3.44-7.47-2.47-10-6.78-8a6,6,0,0,0-.25-1.79,14.13,14.13,0,0,0-1.51-3c-.6-1-1.09-2-1.62-3.1-.24-.46-.5-.91-.77-1.34A13.65,13.65,0,0,1,426,657a10,10,0,0,1-.13-1.44c.17-.76.33-1.53.47-2.3a30.41,30.41,0,0,0,.41-3.32,14.09,14.09,0,0,1,.7-3.07c.63-2.07.59-4.2,1-6.3a43.2,43.2,0,0,0,.89-6.73c.11-2.29.08-4.6.2-6.89s.5-4.53.62-6.82.18-4.58.35-6.86a58.33,58.33,0,0,0-.08-6.87c-.09-2.15-.06-4.38,0-6.51.05-1.1.29-2.18.4-3.27s.17-2.44.2-3.67c.05-2.39.05-4.79.12-7.18a131.7,131.7,0,0,0-.41-13.9c0-.32-.06-.63-.08-.94a2.8,2.8,0,0,0,.31.09c.56.12,1.14-.08,1.69,0a5,5,0,0,1,1.4.72,10.92,10.92,0,0,1,1.66,1.11,9,9,0,0,1,1.06,1.48c.46.64,1,1.09,1.51,1.7a14.85,14.85,0,0,1,1.15,1.83A12.29,12.29,0,0,1,440.57,580Zm38.87-105.91h0Zm.26,0Zm18.15,26.2h0Zm55.38,5.92c-.15.09-.26,0,0,0Zm43.16-51.63c.1,0,.08.14,0,0h0Zm-10.93,7.32c0,.07-.08.16,0,0Zm-.19.19h0l0,0Zm16.34,61.44c-.16,1.49-.74,3-1,4.49a47.73,47.73,0,0,1-1.45,5.18c-.56,2-1,4-1.49,5.93L586.6,517a19.64,19.64,0,0,0-.59-4.85,15.1,15.1,0,0,1,.18-5.09,9.37,9.37,0,0,0-.77-5c-1.29-3.21-3.36-6.11-4.6-9.34l9.54-8.15.41-.11.23-.07a21.54,21.54,0,0,0,1.61,2.25,20,20,0,0,1,2.39,3.31c.7,1.23,1.11,2.57,1.81,3.81a12.4,12.4,0,0,1,1.57,3.76,27.88,27.88,0,0,0,1,4c.24.68.48,1.36.66,2.05s.22,1.42.36,2.13a13.07,13.07,0,0,1,.44,1.63,11.32,11.32,0,0,0,.26,1.94c.33,1.28,0,2.63.09,3.93.07.65.36,1.22.48,1.85a6.71,6.71,0,0,1-.14,1.88A52.14,52.14,0,0,0,601.61,523.56Zm16.71,61.34a6.42,6.42,0,0,1-4.62.37c-1.67-.54-2.65-1.81-3.8-2.83-.19-.16-.37-.33-.56-.51-.32-.36-.6-.75-.89-1.12s-.73-.92-1.09-1.39-.39-.91-.57-1.37a47.15,47.15,0,0,1-2-5.63,25.76,25.76,0,0,1-1-5.68,13.06,13.06,0,0,0-.61-3,4.67,4.67,0,0,1,.14-2.5c.57-2,1.4-3.93,1.83-5.91a27.12,27.12,0,0,0,.67-6.09,21.63,21.63,0,0,1,.91-5.82,50.17,50.17,0,0,0,.93-6.11c.27-2,1-3.9,1.1-5.86a44.3,44.3,0,0,1,.26-5.5c.35-2,1.06-3.91,1.29-5.86a28.56,28.56,0,0,0-.22-6.28c-.24-2.32-.62-4.62-.82-7a12,12,0,0,0-.09-4.52v0c0-.26,0-.53,0-.79a16.75,16.75,0,0,0-.19-6.48c-.58-1.89-1.51-3.66-2.21-5.51-.6-3.1-1.08-6.22-1.73-9.31-.3-1.43-.66-2.82-1.07-4.19l.09,0,.47.32a25.09,25.09,0,0,1,3.31,3c1.13,2.16,2.2,4.34,3.15,6.57.73,3.05,1.32,6.13,2.08,9.17,1.13,4.52,2,9.08,2.71,13.71.59,4.06,1.19,8.12,1.41,12.26a70.21,70.21,0,0,1-.5,7.88c-.41,3.58-1,7.17-1.33,10.74a64.14,64.14,0,0,0-.08,10.73c.12,1.37.27,2.75.46,4.12-.21,1.21-.43,2.42-.65,3.64a32.16,32.16,0,0,0-.34,6.69c.07,2.16-.25,4.46.41,6.49.73,2.22.94,4.59,1.72,6.79a30.43,30.43,0,0,0,3.06,6.05l.31.45A2.93,2.93,0,0,0,618.32,584.9Zm14.22-56.21c-.27,1.35-.49,2.69-.78,4a24.48,24.48,0,0,0-.61,4c-.06,1.35.05,2.68,0,4a21.33,21.33,0,0,0,0,2.52,56,56,0,0,0-.44,8.94,11.57,11.57,0,0,1-.19,2.74,13.86,13.86,0,0,0-.47,3.08c0,.78.45,1.4.29,2.2a7.66,7.66,0,0,0,.08,2.83c-.34-.87-.64-1.75-.9-2.65-.57-2-1-4.13-1.34-6.21s-.27-4.13-.75-6.12c-.18-.76-.37-1.52-.55-2.28l.09-.33a1.06,1.06,0,0,0-.45-1.27c-.1-.44-.18-.89-.26-1.33.06-1.24.25-2.49.27-3.72,0-1.75.09-3.51,0-5.23-.13-1.93-.48-3.81-.69-5.71-.18-1.69.07-3.52-.27-5.18,0-.46,0-.91,0-1.37.2-2.31.33-4.61.35-6.9s0-4.42-.11-6.62a41.7,41.7,0,0,0-.92-6.62c-.42-2.07-.66-4.17-1-6.26a43.43,43.43,0,0,0-1.34-5.28,1,1,0,0,0,.12-1.08,3.79,3.79,0,0,0-.2-.34h0l0,0a7.18,7.18,0,0,0-.65-.91,30.83,30.83,0,0,0-2.52-5.25c-.28-.46-.55-.92-.84-1.38a16.66,16.66,0,0,0-.52-2.45,16.77,16.77,0,0,1-.59-2.55h0c2.22-1.48,1.79-3.22,2.06-5,1,1.32,2.06,2.65,3,4l.28.51c.5.95,1,1.9,1.57,2.81.36.57.72,1.12,1,1.7.16.35.32.69.45,1.05l0,0c1.13,3.89,2.8,7.61,3.69,11.59.34,1.53.63,3.07.91,4.61a105.74,105.74,0,0,1,.79,12.37,61.25,61.25,0,0,0,.59,6.21c.09,1.05.17,2.1.18,3.17s-.15,2.13-.1,3.17a15.81,15.81,0,0,0,1.18,4.72C632.79,527.56,632.66,528.12,632.54,528.69ZM750.41,850Zm-35-398.62c-.37-.54-.75-1.07-1.1-1.61-1.6-2.5-3.05-5-4.47-7.62a15.06,15.06,0,0,0,1.73-3.54,7.79,7.79,0,0,1,.93-1.7,3.38,3.38,0,0,0,.44-.18C714.44,441.49,714.77,446.47,715.42,451.39ZM712.7,421l-.07.06S712.65,421,712.7,421ZM699,445.26a69.72,69.72,0,0,0,5.14,5.18c1.53,1.49,3.11,2.95,4.76,4.35a35.42,35.42,0,0,0,4.85,3.7,8.25,8.25,0,0,0,2,1.86h0c-.29,3.3-.86,6.66-1.21,9.88,0,.15,0,.31,0,.46a2.83,2.83,0,0,0-1.94-1,16,16,0,0,0-1.07-1.33,25.56,25.56,0,0,1-2.57-3.43c-.77-1.24-1.21-2.61-2-3.83s-1.88-2.34-2.71-3.58a28,28,0,0,1-2.1-3.73,82.17,82.17,0,0,1-3.21-8.27l-.33-.93C698.65,444.83,698.81,445.05,699,445.26Zm-18.71-8.2c1.27.22,2.4.69,3.65.95l.91.17c.2,1.21.9,2.25,1.14,3.47a35.93,35.93,0,0,0,1,4.49c1,3.06,2.1,6.1,3.31,9.08.63,1.54,1.31,3.06,2.07,4.54s1.66,2.61,2.43,3.94,1.43,3,2.37,4.36,1.92,2.52,2.9,3.77a45.42,45.42,0,0,0,3.31,3.94c1.21,1.23,2.69,2.25,3.54,3.7a1.79,1.79,0,0,0,1.65.49l.16,0a14,14,0,0,0,4.09,2.83c.2.08.4.18.59.27-.15,1.5-.33,3-.57,4.5-.3,1.82-.58,3.69-.89,5.58-1.17-.72-2.32-1.47-3.45-2.23l-1.35-.91a54.4,54.4,0,0,0-5-4.38c-1-.72-1.88-1.48-2.77-2.24-2.52-3.28-5-6.61-7.21-10a85,85,0,0,1-6.89-12.61c-1.93-4.44-3.51-9-5.11-13.57a64.32,64.32,0,0,1-2.47-7.65c-.2-.92-.36-1.85-.52-2.78C678.21,436.81,679.28,436.88,680.28,437.06Zm-18,1.56c1.54-.4,3-.86,4.54-1.12,1-.17,2-.26,3-.36a14,14,0,0,0,.48,5.7c.69,2.77,1.42,5.52,2,8.3,1.2,5.44,2,10.93,4,16.16a94,94,0,0,0,7.2,15.18,42,42,0,0,0,4.87,6.73c1.9,2.16,3.88,4.27,5.8,6.41,1.06,1.18,2.07,2.37,3.26,3.46s2.47,2.12,3.73,3.16,2.27,1.95,3.35,3a16.14,16.14,0,0,0,1.76,1.4,1.11,1.11,0,0,0,.34.25c.39.29.77.59,1.13.89a2.29,2.29,0,0,0,.27.27c-.41,1.38-.23,2.61-.66,4-.38,1.25-1.14,2.61-1.62,3.87a27.47,27.47,0,0,0-1.64,4.53,4.63,4.63,0,0,0-.56-.21c-1.77-.6-3.69-1-5.4-1.66a28.5,28.5,0,0,1-6.31-3.35c-.52-.6-1-1.24-1.46-1.84-.82-1-1.76-2-2.65-3a11.25,11.25,0,0,0-.51-1.48,13.64,13.64,0,0,0-1.33-2.09c-.53-.76-.95-1.57-1.46-2.34a26.7,26.7,0,0,1-2.74-4.05c-.56-1.33-.89-2.74-1.33-4.12,0-.16-.08-.32-.14-.48a35.1,35.1,0,0,1-2.17-11.62,19,19,0,0,0-.82-6c-.63-1.93-1.36-3.82-2-5.73A98.46,98.46,0,0,0,671,460.85c-1.78-3.69-3.89-7.2-5.37-11q-1.22-3.18-2.65-6.27a41.14,41.14,0,0,0-2.36-4.63A15.41,15.41,0,0,0,662.32,438.62ZM655.16,577a39,39,0,0,1-10.52-7.84c-.66-.86-1.27-1.74-1.85-2.64-1.37-2.15-3.11-4.22-4.08-6.54-.05-1.06-.06-2.12-.12-3.18s-.28-2.31-.27-3.49a11.83,11.83,0,0,0-.26-3.27,10.5,10.5,0,0,1,0-3.54c0-.15,0-.3.05-.45,0,.12.09.24.13.35.69,1.91,1.15,3.89,1.94,5.76a44.6,44.6,0,0,0,3.29,5.87c1.19,1.94,1.9,4.07,3.11,6s2.42,3.62,3.62,5.43a51.84,51.84,0,0,0,4.27,6.21c.58.65,1.21,1.28,1.84,1.9Zm24.18-1.9a6,6,0,0,0-.31.78l-1.89,1a55.74,55.74,0,0,1-5.89,2.94,1.15,1.15,0,0,0-.27-.27c-3.62-2.66-7.19-5.55-9.55-9-.74-1.1-1.4-2.23-2.08-3.35-1.71-3.64-4.07-7-6-10.58l-2.54-4.78c-.58-1.37-1.19-2.73-1.83-4.09a86,86,0,0,1-4.62-12.27c-1.26-4.2-2.12-8.51-3-12.82-.64-3.22-1.49-6.4-2.12-9.63,0-.06,0-.13,0-.2,0-1-.09-1.9-.15-2.85s0-2,0-3a8.92,8.92,0,0,0-.42-2.82c-.16-.41-.32-.8-.46-1.19-.21-1.9-.59-3.75-.78-5.65-.08-.73-.13-1.47-.18-2.2,0-.12,0-.24,0-.36s0-.1,0-.16c-.09-1.8-.12-3.61-.16-5.42.67,3.34,1.35,6.67,2.32,9.94,1.31,4.33,2.94,8.56,4.47,12.83s2.73,8.54,4.4,12.71,3.58,8.29,5.5,12.38a86.64,86.64,0,0,0,6.58,12c.67,1,1.42,1.93,2.08,2.93s1.29,2.11,2,3.15a24.87,24.87,0,0,0,5.22,5.23,64,64,0,0,1,5.32,5.22,34.71,34.71,0,0,0,2.55,2.44c.88.75,1.35,1.65,2.68,2a2.29,2.29,0,0,0,.64.07C679.92,571.69,680.09,573.37,679.34,575.05Zm9.81-17.75c-.16.22-.31.45-.46.67a10.18,10.18,0,0,0-2.76-1.48A42.66,42.66,0,0,1,681,554a20.85,20.85,0,0,1-5.13-4.14c-1.36-1.53-2.51-3.17-3.7-4.8s-2.63-3.49-3.76-5.33-2.06-3.61-3-5.43-2.24-3.78-3.21-5.72a36.05,36.05,0,0,1-2.2-5.75,14.59,14.59,0,0,0-1.13-3,31.8,31.8,0,0,1-1.61-2.75c-.82-2-1.4-4.09-2.09-6.12a86.47,86.47,0,0,1-3.37-12.78c-.37-2.16-.74-4.32-1.07-6.49a43.83,43.83,0,0,0-1.29-6.35c-1.3-4.19-2.91-8.29-4.38-12.43-.85-2.41-1.71-4.83-2.55-7.24l-.22-.66c0-2.37,0-4.73-.17-7.08a7.26,7.26,0,0,0,1.28-1.19,14,14,0,0,0,2-3.91,21.36,21.36,0,0,1,1.13-2.5,14,14,0,0,0,.8-1.6,25.88,25.88,0,0,0,1,4.38A52,52,0,0,1,650,458.8c.4,1.94.73,3.91,1.1,5.86,1.46,7.8,2.83,15.63,4.6,23.35.43,1.87.87,3.74,1.16,5.65a49.78,49.78,0,0,0,.91,5.87c.51,1.89,1.21,3.7,1.61,5.63s.66,3.76,1.07,5.62a97.65,97.65,0,0,0,3.7,11.27c.64,1.81,1.18,3.65,1.77,5.48a13,13,0,0,0,1,2.46,17.59,17.59,0,0,0,1.9,2.44c.68.85,1,1.89,1.58,2.76a22.3,22.3,0,0,0,2.29,2.49c.39.39.76.77,1.12,1.16s.52.72.76,1.1c.79,1.22,1.53,2.48,2.33,3.71a23.91,23.91,0,0,0,2.74,3.51c1,1.05,2.25,2,3.41,2.94a32.48,32.48,0,0,0,7.07,4.88l.65.31C690.26,555.94,689.67,556.59,689.15,557.3Zm-4.29-15.15c.17.26.33.51.51.76-.09-.08-.17-.17-.26-.26S685,542.32,684.86,542.15ZM700,533.43c-.62,2.74-1.93,5.31-2.63,8.06a48.08,48.08,0,0,1-1.6,5.85,14.36,14.36,0,0,1-3-1.86,25.06,25.06,0,0,1-4.44-5.21,58.44,58.44,0,0,1-3.3-5.86,67.12,67.12,0,0,1-2.91-6.27c-.86-2.29-1.6-4.62-2.58-6.87s-2-4.56-3-6.82a136.89,136.89,0,0,1-5.75-13.59c-.78-2.38-1.61-4.75-2.38-7.14a39.17,39.17,0,0,0-.41-4.85c0-.24-.09-.49-.14-.73,1.11,2.92,2.28,5.82,3.55,8.68a115.74,115.74,0,0,0,6.35,12.39c.27.54.55,1.08.86,1.61,1.93,3.33,3.87,6.66,6,9.91a14.62,14.62,0,0,0,3.27,4.13c.86.64,2,1.1,2.88,1.69s1.73,1.15,2.66,1.67,1.84.93,2.71,1.45a24.86,24.86,0,0,0,2.59,1.43,9.77,9.77,0,0,0,1.83.59C700.29,532.28,700.13,532.86,700,533.43Zm20.41-12.86c-1.31,3.31-2.4,6.68-4,10a73.77,73.77,0,0,1-5.56,9.22c-2.06,3-4.35,6-6.14,9.14a32.35,32.35,0,0,1-2.85,4.64c-.22.27-.46.54-.69.81,0-.12,0-.24,0-.36,0-.94.71-1.75,1-2.67s.08-1.77.29-2.65a27.29,27.29,0,0,1,1.06-3.67c1.25-3.15,4-6.19,5.2-9.38,1-2.73.79-5.1,2.74-7.75,2.23-3,2.61-6.32,4.17-9.48,2.73-5.56,4.08-11.09,6.21-16.7,1.26-3.32,3.28-7,3.52-10.26a14.31,14.31,0,0,1,1-3.9l.06,1.22a83.27,83.27,0,0,1-.5,11c-.09.88-.22,1.76-.24,2.63,0,.2,0,.39,0,.57-.18.77-.39,1.54-.6,2.31-.48,1.75-.83,3.49-1.26,5.24A80,80,0,0,1,720.41,520.57Zm6.72,224.88a33,33,0,0,1-3.26,7.09,8.57,8.57,0,0,0-.27-.86,7,7,0,0,0-.53-.87,1.47,1.47,0,0,1-.16-.54c-.12-1,.12-2-.09-2.95-.29-1.35-.64-2.7-1-4.05a27.84,27.84,0,0,1-.91-4.7c-.06-1.12.1-2.12.12-3.24a8.34,8.34,0,0,0-.49-2.46,41.42,41.42,0,0,1-.7-11.23c.13-2,.38-3.84.45-5.82.08-2.32-.13-4.68.11-7a27.32,27.32,0,0,0-.16-5.77c-.22-2.32.45-3.88.55-6.15a81.82,81.82,0,0,1,.64-8.42c.35-2.33-.39-4.5.06-6.87.76-3.91,1.09-7.71,2.08-11.66,1-4.12.74-8.42,1.47-12.58a1.7,1.7,0,0,0,0-.22,5.63,5.63,0,0,1,1.41.3h0a4.58,4.58,0,0,0,.15.49l-.13,0c-.61,1.15,1.45,3.92,1.94,5,1,2.13,2.29,4,3.17,6.16a39.4,39.4,0,0,1,2.57,7.85c.32,1.89.21,3.76.35,5.7s-.1,3.75.16,5.8a37.32,37.32,0,0,1-.09,6.52c-.09,2.3.42,4.76.47,7.06s-.15,4.31-.16,6.44c0,8.43-3.16,17.16-5.13,25.39C729,737.72,728.13,741.62,727.13,745.45Zm2.6,35.09-.12,0c1.27.15,2-10,2.09-12.23a15.51,15.51,0,0,1,.14-4c.84-3.34,1.59-6.7,2.39-10,.41-1.71.8-3.41,1.22-5.11.49-2,.26-3.81.58-5.81.29-1.82,1-3.61,1.35-5.42.41-2,.13-3.94.64-6a45.19,45.19,0,0,0,1.31-11.24c0-1.9.74-3.34.53-5.25a12.15,12.15,0,0,1,.21-4.92c1.2-5.21,1-10.48.87-15.78-.08-2.21.08-4.38-.16-6.57s-.68-4.26-.81-6.37,0-4.44-.29-6.58c-.35-2.74-1.29-5.44-1.35-8.22a24.4,24.4,0,0,0-1.08-5.82c-.28-1.12-.55-2.22-.78-3.31-.09-.43,0-1-.26-1.37s-.43-.27-.64-.43a2.7,2.7,0,0,1-.4-.54,5.57,5.57,0,0,0-1.29-1.07l-.32-.23a4,4,0,0,1,2.34-1c1.41,0,2.19,1.54,3.58,1.16.31-1.6.69-3.2,1.06-4.78.1.26.2.53.28.79.39,1.27.22,2.47.62,3.72.5,1.53,1.84,2.58,2.33,4.1a71.39,71.39,0,0,1,2.9,14.37c.35,3.44,2.3,7.18,2.08,10.54-.25,3.82-.59,7.63-.57,11.55,0,3.15-.41,6.71.07,9.8.52,3.4,1.58,6.47,1.66,9.88a27.42,27.42,0,0,0,1,5c.46,2.26.15,5.1.1,7.41a62.59,62.59,0,0,1-.28,7.25c-.24,1.78-1,3.35-1,5.16a82.91,82.91,0,0,1-.85,12,32.77,32.77,0,0,0,.07,4.54c0,2-1.25,4-1.45,6-.17,1.74.29,3.28,0,5-.38,2.38-.68,13.37-.56,15.64.15,2.93-1.2,6.51-1.87,9.37a39.34,39.34,0,0,0-.67,6.3,16.55,16.55,0,0,0-1.83,0,7.21,7.21,0,0,1-2.7-1c-2.38-1.13-4.07-3.19-5.9-5.11a4.66,4.66,0,0,1-1.66-4.18c.15-1.23,1-2.26.2-3.61-.43-.69-1-1.45-1.48-2.15A3.13,3.13,0,0,0,729.73,780.54Zm34.46,72.35c-1.1,0-2.21,0-3.32,0a4.63,4.63,0,0,1-.52-.07,105.78,105.78,0,0,1-2.55-13.33l1.6-.14,2.43-.17.64,0h.08a59.42,59.42,0,0,0,.41,6.39c.17,1.11.56,2.22.84,3.32a10.54,10.54,0,0,0,.69,1.71c.33.78.57,1.56,1,2.31ZM736.8,804.83a23,23,0,0,1-2.57-.9l1.06-.53c1.85-.85,2.42-.61,4.31-.67l.38,0,2.19,1.15a9.33,9.33,0,0,0,1,.44,5,5,0,0,0-.19,1.3,6.92,6.92,0,0,0,.06.74l-1.11-.25a30.48,30.48,0,0,0-4.85-1.18Zm7.21-3.56-.2-.09h0l.15-.1.1-.08A2.56,2.56,0,0,1,744,801.27Zm22.48,33.79h.06c0,.11.05.22.07.32a1.77,1.77,0,0,0-.17-.12C766.46,835.19,766.48,835.13,766.49,835.06Zm3.53,18a.76.76,0,0,0-.16,0c-.3,0-.61,0-.91-.06a4,4,0,0,0-.24-1.54,2.53,2.53,0,0,0-.4-.67c-.27-.33-.31-.28-.33-.78a16,16,0,0,0-.23-2.18c-.46-2.83-1.4-5.58-1.63-8.45a5.38,5.38,0,0,0,1.5,0c.08.28.17.56.26.84.16.73.31,1.47.52,2.19.29,1,.62,1.91,1,2.83a9.2,9.2,0,0,0,.74,1.47,1.85,1.85,0,0,1,.37.88,4.27,4.27,0,0,0,.91,1.36,1.81,1.81,0,0,1,.06.2,4.7,4.7,0,0,0,.33.77,14.61,14.61,0,0,0,2,3v0A24.33,24.33,0,0,0,770,853.09Zm13.43-40.37,0,.08c.12.59-.22,1.19,0,1.73.08.18.25.34.32.52s.05.7.18,1l.42,1.08c.46,1.15,1.06,2.26,1.57,3.36.39.85.68,1.76,1,2.63a21.3,21.3,0,0,0,2,3.41c.6.93,1.08,1.94,1.71,2.86.31.46.51,1,.8,1.44a11.26,11.26,0,0,0,.84,1.09c.68.92,1.53,1.65,2.3,2.51.24.27.7.69.13.83-1.22.3-2.34-1.34-3-2.1-1.51-1.81-3.25-3.45-4.86-5.18a18,18,0,0,0-2.35-2.5c-1.37-1-2.48-2.27-4.17-2.74a9.12,9.12,0,0,1-1-.35c-.11-.35-.21-.71-.32-1-.22-.64-.5-1.22-.75-1.84s-.33-1.22-.55-1.81a28.54,28.54,0,0,1-1.23-3.39c-.12-.53-.17-1.07-.24-1.62,0-.23-.13-.58-.18-.9a2.44,2.44,0,0,0,0-.27c.92.24,1.84.57,2.6.73A23.2,23.2,0,0,0,783.45,812.72ZM778.26,675c1.44,3.46,1,7.57,2.31,11.13a34,34,0,0,1,2.59,10.7c.23,3.47,1.06,6.85,1.28,10.31A64.53,64.53,0,0,1,783,723.88c-.56,2.81-.09,5.25-.76,8.1s-.31,5.7-.89,8.6c-1.08,5.39-2.14,11-3.62,16.24-.41,1.49-1.36,2.31-2,3.68-.5,1.16-.44,2.5-1,3.71-.45.95-1.16,2-1.71,2.92-.92,1.57-1.26,12.87-2.08,14.5-1.31,2.6-2.8,5.26-4.11,7.82s-1.65,5.06-2.26,7.77-1.38,5.42-1.85,8.14a15.69,15.69,0,0,0-.14,3.62c-.54-1.58-.69-3.25-1.58-4.6a5.27,5.27,0,0,0-4.59-2.48c-.35-2-.47-3.86.15-4.94,1.58-2.71,4.49-4.46,5.64-7.47,1.48-3.88,1.84-18.19,2-22.26.13-3.9.86-7.71.83-11.6,0-1.86.46-3.82.15-5.67a23.09,23.09,0,0,1-.5-5.32c.15-7.12.24-14.42-.08-21.81s1.45-15.45-.23-22.78c-.58-2.54-1.59-4.49-1.83-7.14-.17-1.91-.1-3.88-.21-5.67s-.92-3.61-.95-5.47a32.26,32.26,0,0,0-.51-5.46c-.4-2.2-1.5-4.47-1.71-6.67-.24-2.45,0-4.56-.61-7.07s-1.73-4.68-2.39-7.1c-.57-2.13-.63-4.24-1-6.39s-1.64-3.54-2.48-5.44-1.47-4.18-2.47-6.16c-2.11-4.22-4.88-8.18-5.95-12.8-.24-1-.46-2-.71-3a28.66,28.66,0,0,0,4.84,3.18,9.8,9.8,0,0,0,.9.39,10.7,10.7,0,0,0,.83,1,23.66,23.66,0,0,1,2.45,3.36c2.2,3.6,5.4,6.61,7.7,10.27,4.76,7.58,9,15.34,13.08,23.27C775.16,666.85,776.67,671.17,778.26,675Zm-22.67-88.54c-7,15.38-14.24,23-9.84,28.26l-3.25-.38c0-.87.09-1.75.14-2.63.14-2.6.27-5.21.44-7.81.19-2.76-.49-5.33-.32-8.11.2-3.38.78-7.12.6-10.51-.19-3.65-1.56-7.18-1.69-10.91s-1.41-7.27-1.65-11-1.66-7.61-2.38-11.25c-.43-2.17-.37-4.52-1.12-6.6-.46-1.27-1.12-2.16-1.52-3.43-1.15-3.71,1.78-15,2.1-21.27C745.12,536.11,762.25,571.77,755.59,586.48ZM735.85,404.85s0-.07.07-.06Z"/><polyline class="cls-3" points="192.73 866.82 356.36 859.63 295.39 881.84 369.72 871.79 383.59 950.71 689.6 850.31 662.3 923.98 773.16 875.73 779.61 903.53 967.98 875.46 805.76 867.93 914.01 851.79"/><polyline class="cls-3" points="466.53 850.31 689.6 850.31 447.7 874.71 549.38 947.07 697.7 854.9 782.69 950.71 743.79 871.79"/><polyline class="cls-3" points="876.98 930.46 779.61 903.53 662.3 923.98 500.56 912.33 329.34 932.22 295.39 881.84 236.18 863.86 350.27 842.59"/><line class="cls-3" x1="808.17" y1="854.9" x2="865.61" y2="859.01"/><circle class="cls-4" cx="295.45" cy="881.98" r="2.5"/><circle class="cls-4" cx="500.76" cy="912.15" r="2.5"/><circle class="cls-4" cx="732.25" cy="893.61" r="2.5"/><circle class="cls-4" cx="780.19" cy="903.69" r="2.5"/><polygon class="cls-5" points="813.05 482.52 823.79 489.61 833.1 489.61 840.8 486.07 853.76 486.07 867.33 481.11 872.8 468.35 872.8 462.27 875.03 458.42 877.46 449.51 874.62 433.11 866.52 418.52 856.8 413.66 850.52 409.41 849.1 397.87 850.93 391.39 854.98 385.11 854.98 377.21 845.25 367.49 839.79 354.53 832.5 347.84 827.63 339.54 825.21 337.92 815.28 331.84 809 331.84 801.91 325.77 799.48 321.51 797.05 316.65 790.78 313.41 787.33 310.98 778.62 302.48 764.65 292.96 758.37 291.95 753.11 289.11 742.98 292.35 737.71 296.2 735.28 302.27 727.79 304.1 709.97 319.29 680.67 345.89 646.64 389.36 635.03 405.83 567.79 441.48 508.66 449.58 463.02 443.64 411.71 444.99 375.26 469.29 347.45 518.57 335.4 578.02 335.4 624.29 341.78 631.18 341.37 645.35 347.45 670.47 356.76 691.95 352.31 710.55 346.23 727.05 347.85 737.22 344.61 769.65 346.64 817.5 356.36 859.63 369.72 871.79 398.48 875.73 447.7 874.71 478.68 864.69 479.9 859.76 466.53 850.31 462.48 841.4 448.3 828.44 452.76 804.54 459.24 756.54 454.49 725.96 445.47 711.27 452.76 696.8 469.77 666.01 475.04 633.2 481.11 624.29 490.83 626.72 501.77 636.44 538.63 646.16 565.36 650.22 589.26 649.81 599.39 646.57 606.43 647.78 619.24 642.92 645.97 627.94 671.49 602.42 694.98 587.43 703.08 584.19 707.54 590.27 693.77 616.51 677.97 641.71 675.94 657.1 680.4 683.83 691.94 741.63 707.13 771.12 716.04 797.25 715.03 806.77 717.87 815.68 715.84 828.44 720.9 836.74 728.6 858.61 743.79 871.79 773.16 875.73 791.79 874.01 805.76 867.93 808.39 855.98 802.93 829.65 799.89 824.79 802.12 814.26 800.5 788.34 800.7 771.33 804.75 763.43 806.77 748.24 809.88 745.4 811.23 741.35 813.53 737.84 813.26 676.54 808.39 645.35 805.97 614.57 808.8 598.37 812.85 588.24 813.66 563.94 813.26 523.43 809.21 495.49 807.59 484.95 813.05 482.52"/><path class="cls-5" d="M466.53,850.31l6.21-1.35,5.67-4.05v-3.78l-8.91-8.91-7.29-4.05-1.62-17.55,2.16-9.73,4.39-8.1L469.5,772l-1.62-27.54-4.32-15.13L464.91,718l4.59-7.56S480,675.6,480,674.79s1.35-30.52,1.35-30.52l-1.87-17.63"/><path class="cls-5" d="M726.66,853.11l-5.22,1.79H697.7l-8.1-4.59-9.18-14.85s8.1-30.79,8.1-31.6-1.62-30.78-1.62-30.78l-6.48-18.23-13.5-47.76-3.65-41.45,11.55-39,8-19.09-3.63-10"/><polyline class="cls-5" points="807.59 484.95 799.89 446.07 786.93 416.1 767.08 399.89 734.68 394.49 697.41 402.39 672.03 425.82"/><polyline class="cls-5" points="767.08 399.89 767.08 394.22 761.41 390.58 761.41 382.07 767.08 370.73 772.75 370.73 775.59 360.2 779.64 346.83 792.19 335.08 809 331.84"/><polyline class="cls-5" points="850.93 391.39 841.34 397.19 825.95 398.54 821.9 402.05 820.82 408.8 831.89 417.44 835.87 433.65 825.68 444.45 823.25 453.09 831.08 474.69 840.8 486.07"/><polyline class="cls-5" points="872.8 462.27 864.29 466.59 852.14 466.59 838.91 459.84 834.05 459.84"/><polygon class="cls-5" points="858.62 427.84 858.62 432.9 862.27 435.54 865.1 431.69 865.1 428.65 858.62 427.84"/><polygon class="cls-5" points="821.9 402.05 829.46 406.24 834.05 402.05 825.95 398.54 821.9 402.05"/><polyline class="cls-6" points="479.9 859.76 391.19 842.75 459.24 756.54 393.89 734.74 445.47 711.27 356.76 691.95 469.77 666.01 404.69 643.73 335.4 578.02 454.65 597.5 475.04 633.2 472.47 518.71 501.77 636.44 546.73 573.66 589.26 649.81 614.17 578.02 645.97 627.94 659.74 559.58 671.49 602.42 718.74 493.05 703.08 584.19 726.66 568.19 707.54 590.27 805.97 614.57 715.03 662.43 813.26 676.54 751.49 720.5 813.53 737.84 754.39 771.73 800.7 771.33 732.25 817.5 799.89 824.79 750.07 847.48 791.79 874.01"/><polyline class="cls-6" points="347.45 518.57 472.47 518.71 411.71 444.99 497.72 492.24 508.66 449.58 546.73 573.66 567.79 441.48 614.17 578.02 635.03 405.83 659.74 559.58 697.41 402.39 718.74 493.05 734.68 394.49 807.59 484.95 726.66 568.19 813.26 523.43 767.28 581.18 808.8 598.37"/><polyline class="cls-6" points="815.28 331.84 835.87 373.97 779.64 346.83 825.95 398.54 777.61 378.02 773.56 394.49 767.08 394.22 786.93 416.1 820.82 408.8 799.89 446.07 835.87 433.65 825.68 444.45 803.28 463.22 831.08 474.69 813.05 482.52"/><polyline class="cls-6" points="850.52 409.41 841.34 397.19 834.05 402.05 831.89 417.44 866.52 418.52 858.62 427.84 835.87 433.65 862.27 435.54 877.46 449.51 864.29 466.59 862.27 435.54 838.91 459.84 825.68 444.45 831.08 474.69 852.14 466.59 853.76 486.07 864.29 466.59 867.33 481.11"/><polyline class="cls-6" points="786.93 416.1 776.27 446.1 718.74 493.05 726.66 568.19 767.28 581.18 754.39 601.84 677.97 641.71 715.03 662.43 691.94 741.63 754.39 771.73 716.04 797.25 732.25 817.5 715.84 828.44 750.07 847.48 728.6 858.61"/><polyline class="cls-6" points="679.2 597.5 707.54 590.27 682.83 607.55 677.97 641.71 663.27 665.64 691.94 741.63 686.3 771.39 716.04 797.25 688.52 803.86 717.87 815.68 680.42 835.46 726.66 853.11"/><polyline class="cls-6" points="807.59 484.95 718.74 493.05 659.74 559.58 614.17 578.02 546.73 573.66 472.47 518.71 497.72 492.24 528.58 514.51 562.32 475.81 579.46 475.81 623.22 503.32 646.87 479.5 672.03 425.82 687.34 368.4 710 354.32 735.28 302.27 797.05 316.65 792.19 335.08 735.28 302.27 767.08 370.73 680.67 345.89 697.41 402.39"/><polyline class="cls-6" points="556.93 648.94 546.73 573.66 491.24 594.12 473.87 581.18 454.65 597.5 404.69 643.73 356.76 691.95 393.89 734.74 347.85 737.22 391.19 842.75 356.36 859.63 369.72 871.79 445.24 853.11 448.3 828.44 414.66 813.02 346.64 817.5 393.89 734.74"/><polyline class="cls-6" points="466.53 850.31 469.5 832.22 462.48 841.4 448.3 828.44 462.21 828.17 460.59 810.62 454.21 793.81 467.14 792.79 469.5 772 459.24 756.54 467.88 744.46 463.56 729.34 454.49 725.96 464.91 717.99 445.47 711.27 469.5 710.43 469.77 666.01 480.03 674.79 472.47 649.19 481.38 644.27"/><polyline class="cls-6" points="335.4 624.29 404.69 643.73 348.17 672.13"/><polyline class="cls-6" points="454.65 597.5 400.37 518.63 473.87 581.18"/><polyline class="cls-6" points="854.98 377.21 835.87 373.97 841.34 397.19 825.95 398.54"/><polyline class="cls-6" points="762.62 387.34 718.74 493.05 770.98 522.61 813.26 523.43"/><polygon class="cls-6" points="715.03 662.43 751.49 720.5 691.94 741.63 667.13 707.85 674.78 696.14 676.08 657.92 715.03 662.43"/><polyline class="cls-6" points="393.89 734.74 414.66 813.02 454.21 793.81"/><polyline class="cls-6" points="743.79 871.79 750.07 847.48 732.25 817.5 754.39 771.73 751.49 720.5 766 669.75 805.97 614.57"/><line class="cls-6" x1="715.03" y1="662.43" x2="754.39" y2="601.84"/><polyline class="cls-6" points="579.46 475.81 635.03 405.83 672.03 425.82"/><line class="cls-6" x1="445.24" y1="853.11" x2="447.7" y2="874.71"/><polyline class="cls-6" points="697.71 403.65 710 354.32 734.68 394.49 767.08 370.73 777.61 378.02 779.64 346.83"/><polyline class="cls-6" points="472.47 518.71 517.98 584.26 501.77 636.44 550.38 603.77 577.33 628.45 603.9 607.62 645.97 627.94 671.49 602.42 659.74 559.58"/><polyline class="cls-6" points="475.04 633.2 404.69 643.73 365.32 582.91 400.37 518.63 375.26 469.29"/><line class="cls-6" x1="614.17" y1="578.02" x2="562.32" y2="475.81"/><line class="cls-6" x1="400.37" y1="518.63" x2="411.71" y2="444.99"/><polyline class="cls-7" points="588.25 407.18 634.15 407.18 640.03 375.24"/><polyline class="cls-7" points="325.81 556.51 335.4 578.02 312.67 602.44"/><polyline class="cls-7" points="553.23 669.4 589.16 649.33 609.96 662.43"/><polyline class="cls-7" points="827.97 513.93 813 523.43 824 542.15"/><polyline class="cls-7" points="352.11 484.37 375.79 469.29 379.32 448.69"/><circle class="cls-4" cx="767.08" cy="394.92" r="3.53"/><circle class="cls-4" cx="589.16" cy="649.32" r="3.53"/><circle class="cls-4" cx="366.51" cy="783.41" r="3.53"/><circle class="cls-4" cx="445.47" cy="853.11" r="3.53"/><circle class="cls-4" cx="391.24" cy="842.59" r="3.53"/><circle class="cls-4" cx="754.39" cy="771.17" r="3.53"/><circle class="cls-4" cx="751.49" cy="720.49" r="3.53"/><circle class="cls-4" cx="813" cy="676.77" r="3.53"/><circle class="cls-4" cx="813" cy="523.43" r="3.53"/><circle class="cls-4" cx="807.59" cy="484.95" r="3.53"/><circle class="cls-4" cx="715.03" cy="662.43" r="3.53"/><circle class="cls-4" cx="707.65" cy="590.27" r="3.53"/><circle class="cls-4" cx="732.25" cy="817.1" r="3.53"/><circle class="cls-4" cx="734.71" cy="302.27" r="3.53"/><circle class="cls-4" cx="770.61" cy="522.05" r="3.53"/><circle class="cls-4" cx="647.12" cy="479.34" r="3.53"/><circle class="cls-4" cx="375.79" cy="469.29" r="3.53"/><circle class="cls-4" cx="445.47" cy="711.5" r="3.53"/><circle class="cls-4" cx="356.88" cy="691.94" r="3.53"/><circle class="cls-4" cx="716.31" cy="797.92" r="3.53"/><circle class="cls-4" cx="393.89" cy="734.74" r="3.53"/><circle class="cls-4" cx="414.41" cy="813.02" r="3.53"/><circle class="cls-4" cx="459.23" cy="757.05" r="3.53"/><circle class="cls-4" cx="659.74" cy="559.82" r="3.53"/><circle class="cls-4" cx="697.31" cy="402.39" r="3.53"/><circle class="cls-4" cx="710.17" cy="355" r="3.53"/><circle class="cls-4" cx="779.64" cy="346.83" r="3.53"/><circle class="cls-4" cx="454.21" cy="597.5" r="3.53"/><circle class="cls-4" cx="335.4" cy="578.02" r="3.53"/><circle class="cls-4" cx="579.45" cy="475.81" r="3.53"/><circle class="cls-4" cx="508.57" cy="450.15" r="3.53"/><circle class="cls-4" cx="835.87" cy="373.97" r="3.53"/><circle class="cls-4" cx="754.39" cy="601.84" r="3.53"/><circle class="cls-4" cx="799.39" cy="824.99" r="3.53"/><circle class="cls-4" cx="472.47" cy="518.63" r="3.53"/><circle class="cls-4" cx="497.54" cy="492.18" r="3.53"/><circle class="cls-4" cx="529.11" cy="514.21" r="3.53"/><circle class="cls-4" cx="614.17" cy="578.02" r="3.53"/><circle class="cls-4" cx="776.13" cy="446.52" r="3.53"/><circle class="cls-4" cx="623.8" cy="501.8" r="3.53"/><circle class="cls-4" cx="670.67" cy="601.84" r="3.53"/><circle class="cls-4" cx="634.15" cy="407.18" r="3.53"/><circle class="cls-4" cx="718.74" cy="492.09" r="6.18"/><circle class="cls-4" cx="404.69" cy="643.73" r="4.42"/><circle class="cls-4" cx="545.97" cy="573.66" r="4.42"/><circle class="cls-4" cx="400.37" cy="518.63" r="4.42"/><circle class="cls-4" cx="692.96" cy="741.63" r="4.42"/><circle class="cls-4" cx="490.62" cy="593.95" r="4.42"/><path class="cls-4" d="M556.16,669.4a2.94,2.94,0,1,1-2.93-2.94A2.93,2.93,0,0,1,556.16,669.4Z"/><path class="cls-4" d="M612.9,662.43A2.94,2.94,0,1,1,610,659.5,2.94,2.94,0,0,1,612.9,662.43Z"/><path class="cls-4" d="M830.91,513.93A2.94,2.94,0,1,1,828,511,2.94,2.94,0,0,1,830.91,513.93Z"/><path class="cls-4" d="M826.69,542.15a2.94,2.94,0,1,1-2.94-2.93A2.94,2.94,0,0,1,826.69,542.15Z"/><path class="cls-4" d="M591.18,407.18a2.94,2.94,0,1,1-2.93-2.93A2.94,2.94,0,0,1,591.18,407.18Z"/><path class="cls-4" d="M643,375.24a2.94,2.94,0,1,1-2.93-2.93A2.94,2.94,0,0,1,643,375.24Z"/><path class="cls-4" d="M382.26,448.69a2.94,2.94,0,1,1-2.94-2.93A2.94,2.94,0,0,1,382.26,448.69Z"/><path class="cls-4" d="M355,484.37a2.94,2.94,0,1,1-2.93-2.93A2.94,2.94,0,0,1,355,484.37Z"/><path class="cls-4" d="M329,556.51a2.94,2.94,0,1,1-2.93-2.93A2.94,2.94,0,0,1,329,556.51Z"/><path class="cls-4" d="M315.6,602.44a2.94,2.94,0,1,1-2.93-2.93A2.94,2.94,0,0,1,315.6,602.44Z"/></g></g></svg>