<svg xmlns="http://www.w3.org/2000/svg" viewBox="0 0 1160.7 1160.7"><defs><style>.cls-1,.cls-3,.cls-4{fill:none;}.cls-2{fill:#c6d2c4;}.cls-3,.cls-4{stroke:#688c61;stroke-linecap:round;stroke-linejoin:round;}.cls-3{stroke-width:2px;}.cls-5{fill:#688c61;}</style></defs><title>Asset 75</title><g id="Layer_2" data-name="Layer 2"><g id="SVGs_Himpanzee_colours" data-name="SVGs + Himpanzee colours"><rect class="cls-1" width="1160.7" height="1160.7"/><path class="cls-2" d="M202.72,441.65a75.5,75.5,0,0,0,26.89,47.71,75.53,75.53,0,0,1-6.15-21.95l10,2.86-.47-5.95a8,8,0,0,1,8.55,1.85l.81-8.79,6.21,1.39.55-7.64,4.29,2.12c2.28.69,3.72-2.42,3.63-4.7s-.09-5.28,2.2-6c1.33-.4,2.72.29,3.84,1.05,3.51,2.38,6.39,7.16,3.67,10.41-1,1.19-2.63,2-3.07,3.43-.56,1.82,1.05,3.55,1.34,5.42s-3,3.66-3.31,1.78a8.48,8.48,0,0,0,.8,7.64l-4.63-4.44a21.58,21.58,0,0,0,2.55,10.4l-4.5-2.12a27.19,27.19,0,0,0,1.62,12.44L253.71,487l.51,7.62a27.37,27.37,0,0,1-22.09-2.81c4.59,9.17,15.12,15.31,25.86,15.05a18.07,18.07,0,0,0,8.2-1.91,24.45,24.45,0,0,0,6.42-5.79c11.89-13.59,23.88-27.33,32.3-43.06A115.11,115.11,0,0,0,314,433.59c.5-1.75.89-3.8-.31-5.17-2.08-2.38-6.72-.48-9.14-2.55s.19-6.55,3.55-6.85,6.33,1.93,8.64,4.24c3.82-.56,5-7.41,8.65-6.41,1.28.35,2,1.58,2.65,2.67a42.06,42.06,0,0,0,25.64,18.94c-1.51-2,1.56-4.74,4.09-4.26s4.26,2.61,6.09,4.34,4.53,3.25,6.88,2.18c-2.76-1.92-.81-6.52,2.4-7.73s6.78-.35,10.2-.1,7.52-.5,9-3.47a78.72,78.72,0,0,0-33.19-23.89,22.2,22.2,0,0,0,1.65,16.08c-7-.7-11.58-6.77-16.6-11.36s-13.64-7.85-18.56-3.05a22.34,22.34,0,0,1,3.54-22.43,16.81,16.81,0,0,1-8.67-5.06c-6.3,8.59-19.06,9.38-30,9.52-19,.25-39.75,1.83-53.59,14.32-12.57,11.34-17.57,30.28-33.25,37.24Z"/><path class="cls-2" d="M359.75,434.76c-.35.07-.25-.65.1-.61s.53.46.53.82c0,2.51-4.09,4.31-2.91,6.53a4,4,0,0,0,2.15,1.45,12.5,12.5,0,0,1,6.11,5.7,9,9,0,0,1,2.81-7.06c.54-.51,1.32-1,2-.62a2.06,2.06,0,0,1,.77,1l2.11,4.41c-2.63,1.07-5.8,3.27-4.83,5.94a5.64,5.64,0,0,0,1.45,1.92l5.25,5.19a3.19,3.19,0,0,0,1,.79c1.43.58,2.85-1,3.11-2.54s-.05-3.14.55-4.56a3.73,3.73,0,1,1,6.09,4.08c-1.72,1.76-5.26,2.05-5.51,4.5-.14,1.28.83,2.39,1.72,3.32l8.23,8.52c1.08-1,.88-2.77,1.17-4.24a6.18,6.18,0,0,1,7.5-4.55c1.69,1.6,3.26,4.69,1.23,5.81a6.83,6.83,0,0,1-2.4.4,4.25,4.25,0,0,0-2.83,6.17c2.64,4.15,10.37,1.23,13.23,5.23.63.89.9,2,1.51,2.89a4.49,4.49,0,0,0,8.21-2.34,14.77,14.77,0,0,1,8.18.1c2.8-4.1,6.07-8.53,10.92-9.59,2.19-.47,4.55-.21,6.62-1.06a6.51,6.51,0,0,0-1.79-12.49c-4.21-.45-8.33,3.19-12.38,1.94-2.58-.8-4.58-3.49-7.27-3.26-1.08.1-2.33.62-3.12-.11a2.22,2.22,0,0,1-.42-2c.45-2.68,2.21-4.95,3-7.55s-.05-6.17-2.71-6.69-4.66,2.2-5.95,4.55l-2.64,4.82c-1.08,1.95-2.55,4.17-4.78,4.22-2.92.07-4.44-3.79-3.58-6.58s3.1-4.9,4.54-7.43c1.06-1.86,1.5-4.6-.25-5.82a3.59,3.59,0,0,0-4.25.57,12.33,12.33,0,0,0-2.54,3.82,46.55,46.55,0,0,1-4.66,7.22,3.07,3.07,0,0,1-1.26,1.09,2.46,2.46,0,0,1-2.16-.49c-2.53-1.78-3-5.49-2-8.42s3.18-5.28,5.25-7.59a3.35,3.35,0,0,0,1.14-2.28c-.11-1.42-2-2.07-3.32-1.52a8.3,8.3,0,0,0-3,2.92A25,25,0,0,1,378,439.59c-2.37-7,6.1-13.21,6.49-20.58a3.89,3.89,0,0,0-.19-1.63c-.72-1.84-3.42-2.06-5.08-1s-2.6,2.92-3.71,4.56-2.68,3.24-4.66,3.28c-3.1.06-6-3.75-8.7-2.24-2.06,1.14-1.67,4.24-.59,6.33s2.64,4.31,2,6.58"/><path class="cls-2" d="M421.91,461.62a37.76,37.76,0,0,1,10.92-15,42.43,42.43,0,0,1,22.65-9.21,48.16,48.16,0,0,1,17.84,1.5c5.42,1.51,10.72,4.1,14.39,8.36,5.33,6.2,6.51,14.93,10.69,21.95,2.32,3.92,5.73,7.87,5,12.36-.87,5.47-7.14,8-12.52,9.33-10,2.45-20.3,4.1-30.13,7.32s-19.38,8.19-26,16.1c-4,4.76-7.14,10.69-12.75,13.38a6,6,0,0,1-3.27.72c-4.71-.56-4.49-8.1-8.37-10.83-2.86-2-7.61-1.14-9.3-4.19-1.45-2.58.84-5.84,3.56-7s5.82-1.15,8.58-2.21,5.28-4.06,4.15-6.8c-.39-1-1.19-1.73-1.62-2.69a8.15,8.15,0,0,1-.24-4.47l1-7.3c1.08-7.95,2.51-16.62,8.48-22"/><path class="cls-2" d="M476.92,480.17q5.88-19.4,12.8-38.44c5.56,2.7,7.18,9.88,6.92,16.06s-1.71,12.55.31,18.38c2.51-12.36,10.4-35.21,14.82-34.52s-.77,22.28-3,33.18c4.82-12.32,19.13-32.71,21.82-32.22s-6,20.76-10.29,30.66c13-6.49,20.75-31,23.3-30.62s-2.81,18.06-7.75,27.82c13.17-5.09,17.65-27.36,21.2-25.07s-2.56,12.58-6.72,22.07c11.54-5.08,19.85-22.44,22.31-21.84s1.21,13.65-3.26,20.25c11-2.35,24.94-20.28,26.84-19.31s-6,13.62-10,19.93c2.8,1,5.67-1.49,7-4.14s1.93-5.74,3.92-7.93,6.29-2.66,7.5.05c-.42-2.66-.18-6,2.2-7.22s5.65.71,6.58,3.34.31,5.54-.33,8.26a4.49,4.49,0,0,0,5.17.37c-1.49-2.76-2-6.3-.39-9s5.58-4,8.07-2.08c1.76,1.37,2.28,3.76,3.2,5.8s3,4.06,5.09,3.38c3-.94,2.3-5.22,3.16-8.2a6.93,6.93,0,0,1,9.44-4c4.46,2.33,6.5,9.58,11.49,8.88,6.11-.86,4.78-12.09,10.64-14,3.28-1.1,6.65,1.68,8.25,4.75s2.25,6.64,4.38,9.38c4.52-.64,4.65-7.09,7-11,2.82-4.65,10.44-5.22,13.93-1.05s3.82,12.5,9.39,13c.87-3,1.82-6.23,4.1-8.41s6.36-2.84,8.48-.5c2.61,2.85.7,7.72,2.61,11.08,2.78,4.89,11.07,2.14,13.22-3.06.87-2.11,1.38-4.71,3.42-5.72,3.1-1.54,6.31,2,7.65,5.15s3,7.15,6.43,7.44c3.24.27,5.49-3,7.69-5.35s6.6-4,8.28-1.22c1.08,1.8.08,4.23.91,6.17,1.59,3.71,7.15,2.05,10.59-.07s9.29-3.29,10.36.61a22.09,22.09,0,0,1-7.44,8.27c2.84,3.57,8.24,4.26,11.07,7.84,4.15,5.26-.19,13.65-6.47,16s-13.25.56-19.71-1.23l10.72-14.29c-4.5-1.17-9.18,1.19-12.83,4.07s-6.92,6.43-11.19,8.28-10.12,1.32-12.49-2.69l16.35-19c-3.43-1.93-7.85-.33-10.84,2.23s-5.16,6-8.18,8.48c-7.61,6.34-18.64,5.72-28.5,4.76a92.21,92.21,0,0,0,20.18-13.51c-7.35.69-13,6.4-19.24,10.39s-15.54,5.9-20.15.14l16.36-11.61c1.14-.81,2.43-2,2.13-3.32-.4-1.81-3-1.88-4.74-1.26-6,2.14-10.64,7-16,10.58s-12.68,5.75-18,2.12c0-3.49,4.48-4.73,7.8-5.79s6.61-5.53,3.72-7.49c-2.18-1.47-4.87.8-6.68,2.71a40.7,40.7,0,0,1-14,9.57c-1.82.74-4.46,1.05-5.23-.76-1.57-3.66,7.74-6.68,4.83-9.41a39.93,39.93,0,0,0-11.12,3c.66,3.09-2.23,7-5.08,5.68-1.68-.8-2.22-2.85-3-4.52s-2.72-3.32-4.31-2.38-1.05,3.81-2.27,5.4c-1.74,2.26-5.37.43-7.26-1.71s-4.42-4.81-7-3.7a7.16,7.16,0,0,1-13.77-.11c-3,1.24-4.62,4.63-7.4,6.36s-7.92-.66-6.23-3.46a28.49,28.49,0,0,0-14.56,4.8c-4-.75-4.6-8.23-8.65-7.76-2.62.31-3.37,3.79-5.42,5.46-2.76,2.24-7.72-.46-7.34-4-2-1.71-5.08.73-6,3.24s-1.14,5.59-3.36,7.08c-5.18,3.46-12.41-6.38-17.44-2.7-2.18,1.6-3.16,5.45-5.84,5.12-1.64-.2-2.64-2-4.23-2.47-2.29-.66-4.24,1.72-6.48,2.56-4,1.52-8.59-3.85-6.42-7.58a53.6,53.6,0,0,0-7.53,9.38c-1.91-3.25-7-1.87-9.93.52s-6.07,5.62-9.77,4.86c-2.36-.49-4.09-2.52-6.32-3.43s-5.73.55-5,2.86c-2.39,0-3.77-3.6-2-5.17"/><path class="cls-2" d="M448.77,499.72A112.86,112.86,0,0,0,423,528c-1.56,2.45-3.06,5.06-3.35,8s.92,6.12,3.55,7.34a7.91,7.91,0,0,0,5.67,0c6.18-2,10.25-7.88,12.88-13.81s4.33-12.37,8.06-17.68c1-1.4,2.82-2.84,4.23-1.85a3.29,3.29,0,0,1,1,2.86c-.34,14.39-15,24.34-19.12,38.12,4.43.18,8.41-2.64,11.58-5.74a51.86,51.86,0,0,0,15.21-31c.49-4.3,1-9.49,4.84-11.41,3.2,4.33,3,10.19,2.7,15.57-.42,7.21-.89,14.6-3.77,21.23s-8.72,12.46-15.9,13.24c-1.74,3,.16,7.26,3.36,8.68s7.08.44,9.86-1.68,4.65-5.22,6.2-8.36a67.77,67.77,0,0,0,5.2-45.06c-.5-2.17-1.05-4.69.32-6.45,1.62-2.09,5.14-1.65,7,.22s2.53,4.61,3,7.22a142.5,142.5,0,0,1,1.63,37c-.25,3.24-.63,6.54-2.1,9.43s-4.28,5.3-7.52,5.41-6.53-2.76-6.1-6c-3.21,5.61,1.84,13.87,8.29,13.57,7.39-.35,11.27-8.88,12.65-16.15a98.13,98.13,0,0,0-2.36-46c-1.07-3.6-1.51-8.87,2.14-9.8,6.42,6.08,8.14,15.49,9.46,24.23,1.45,9.61,2.82,19.41,1.31,29s-6.32,19.15-14.7,24.1c4.72,4.2,12.68,2.23,16.87-2.5s5.58-11.25,6.66-17.47c2.54-14.7,4.26-29.89,1.06-44.46a36.67,36.67,0,0,0-4.24-11.36c-6.35-10.45-19.85-15-32-13.39s-23,8.5-32.12,16.6"/><path class="cls-2" d="M507.89,490.48a107.64,107.64,0,0,1,12.77,56c-.28,5.83-1.08,11.8-3.9,16.9s-8,9.23-13.86,9.36c2.47,5.87,10.61,7.63,16.37,4.9s9.36-8.61,11.63-14.56a56.85,56.85,0,0,0,2.2-33c-2.52-10.76-8.15-20.57-11.05-31.24-.93-3.4-.48-8.44,3-8.67,6.62,4.34,10.48,11.78,13.27,19.18a112.21,112.21,0,0,1,7,46.47c-.47,7.54-2.63,16.27-9.59,19.18-1.8.75-4,1.2-4.88,2.93-1.33,2.62,1.68,5.52,4.58,6,4.73.73,9.48-2,12.27-5.94s3.94-8.69,4.62-13.43c2.72-18.67-.82-37.76-6.58-55.72-2.25-7-4.88-14.29-3.7-21.57,3.9-.4,7.31,2.62,9.66,5.77,8.2,11,9.9,25.43,11,39.12s1.66,28.55-5.72,40.2c-3,4.71-7.34,9.22-7.16,14.79,5.84-.31,11.12-4,14.48-8.78s5-10.55,6.05-16.31c2.94-16.57,1-33.75-3.68-49.92-2.32-8-5.3-15.91-5.84-24.22-.06-1.05,0-2.27.81-2.92,1.32-1,3.17.29,4.22,1.59,6.66,8.23,9.33,18.89,11.52,29.24,2.4,11.34,4.43,22.94,3.23,34.47s-6,23.11-15.17,30.22c-2.05,1.59-4.59,3.77-3.73,6.22a4.87,4.87,0,0,0,2.77,2.51c6.52,2.94,14.58.49,19.67-4.54s7.61-12.14,8.77-19.2c2.27-13.89-.2-28.18-4.35-41.63s-10-26.33-14.61-39.62c-1.05-3-1.84-6.85.56-8.94,1.76-1.53,4.57-1.24,6.51.06a14.61,14.61,0,0,1,4.29,5.43c12.24,22.6,15.19,49.1,14.72,74.8-.12,6.76-.49,13.66-3,19.93s-7.59,11.89-14.19,13.38c-4.63,1-10.75.72-12.62,5.09,6.89,2.39,14.81.39,20.65-4s9.81-10.86,12.49-17.65c6.55-16.59,6-35.14,3.39-52.8a121,121,0,0,0-5.9-24.8c-2.11-5.64-4.9-11.33-4.53-17.34a3.37,3.37,0,0,1,.6-2c1.54-1.83,4.29.58,5.32,2.74a138.33,138.33,0,0,1,13.34,65.29c-.76,18-6.49,37.73-22.11,46.62-2.53,1.44-5.61,4.71-3.32,6.51,1.08.86,2.66.45,4-.06,17.24-6.82,28-24.91,30.9-43.22s-.87-37-5.29-55c-1.46-5.94-3-12-2.16-18.09a4.63,4.63,0,0,1,1.17-2.83c2.32-2.12,5.61,1.28,6.78,4.2a126.75,126.75,0,0,1-1.08,96.08c7.3-.82,10.74-9.27,12.48-16.41,5.52-22.6,9-46.69,2-68.89-1.6-5.1-3.75-10.13-4-15.47a3.68,3.68,0,0,1,.69-2.76c1.52-1.59,4.1.19,5.43,1.94,14.56,19.1,17.86,46.17,8.31,68.21-.87,2-1.19,5.26,1,5.51,1.21.14,2.17-1,2.82-2,7.58-11.82,6.83-25.11,7.55-38.49.68-12.56.31-24.84-5.2-36.55-4.45-9.46-13.12-17.63-23.53-18.47-2.2-.17-4.73.12-6.06,1.88-.64.86-.91,1.94-1.5,2.83-2.08,3.13-6.74,2.58-10.4,1.76a223.55,223.55,0,0,0-44.86-5.43c-5.22-.1-10.57,0-15.47,1.83-3.55,1.33-6.7,3.5-10,5.31-7.69,4.19-16.29,6.44-24.92,8-4.47.78-9.06,1.4-13.14,3.39s-7.64,5.7-8.1,10.22Z"/><path class="cls-2" d="M436.36,519.69c-5.82,2.68-9.43,9-10.2,15.32s.92,12.79,3.38,18.71c6.14,14.74,16.91,27,26.12,40s17.22,28.08,16.48,44c-.15,3.28-.66,6.67.42,9.77s4.47,5.72,7.54,4.57c2.46-3.69-.48-9.75,2.93-12.56,1.28-1.06,3.06-1.22,4.57-1.9,4.59-2,5.67-8.46,3.7-13.08s-6.06-7.93-9.77-11.32a110.24,110.24,0,0,1-35.37-75.84c-.22-5.15-.24-10.81-3.61-14.72s-11.45-3.41-12.16,1.7"/><path class="cls-2" d="M474.45,652.49c-2.66-1.92-2.71-6.32-.4-8.66s6.24-2.56,9.1-1c6.49,3.64,6,13,4.64,20.3-6.45,34.45-13.14,71.1-.18,103.67.82,2.07,1.74,4.25,1.39,6.45s-2.59,4.25-4.69,3.51c-5.39-15.1-10.84-30.44-11.83-46.43-.71-11.52.92-23,1.61-34.55a211.4,211.4,0,0,0-1.61-41.24"/><path class="cls-2" d="M473.09,642c-10.24,33.81-4.41,70.35-9.89,105.25-1.26,8.07-3.06,16.7.36,24.11a21.93,21.93,0,0,1,14.59,4.19c4.22-4.66.64-11.87-1.92-17.62-4.3-9.7-5.11-20.59-4.87-31.2.6-27.39,7.68-54.48,6.56-81.85-.08-2-.29-4.12-1.71-5.47s-4.41-.94-4.63,1"/><path class="cls-2" d="M769.79,469.1a12.54,12.54,0,0,0-13,.52,7.64,7.64,0,0,0-2.09,10.51c2.1,3,6.35,4.86,7.8,8.11,2.91,6.57-6.81,11.67-12.19,17.09a4.16,4.16,0,0,0-1.56,3,4.6,4.6,0,0,0,1,2.16l20.36,28.69c6.44,9.07,13.32,18.51,24.27,23.94,7.48,3.71,16.27,5.21,24.95,6,12.8,1.22,26.66.86,37.27-5.12,4.4-2.48,8.3-6.6,7.16-10.87-1.2-4.54-7.34-6.88-12.86-7.95s-11.69-1.77-15.45-5.26C830.6,535.37,832,528,827.67,523c-2-2.3-5-3.83-7.75-5.5a55.25,55.25,0,0,1-16.44-15c-4.83-6.8-7.68-14.52-13.27-20.92s-15.27-11.44-24.5-9.29"/><path class="cls-2" d="M805.53,519.59c-3.67-.05-7.5,0-10.79,1.65s-5.85,5.34-5,8.91c1,4,5.57,6.11,7,10s-.8,8.17-3,11.74Q769,592,741.46,630.34c-4.29,6-8.87,13.15-6.69,20.18,1.67,5.39,7.14,9,12.73,9.74s11.25-.89,16.39-3.21c2.13-1,4.37-2.21,5.27-4.36,2.51-6-6.71-10.31-8.36-16.58-.95-3.61.8-7.31,2.49-10.63,13.56-26.51,28.2-54.25,53.24-70.35a19.63,19.63,0,0,0,5.18-4.11c3.69-4.73,1.75-11.58-.71-17-1.76-3.92-3.85-7.91-7.35-10.4s-8.8-3-11.87,0"/><path class="cls-2" d="M826.84,545.14c-2.84.33-5.8.76-8.17,2.36s-4,4.72-2.95,7.39c1.16,3,4.92,4.16,6.41,7s.2,6.4-1.14,9.38q-15.11,33.53-32.54,65.94c-2.72,5-5.53,11-3.14,16.27,1.83,4,6.42,6.23,10.82,6.25s8.61-1.82,12.35-4.14c1.55-1,3.15-2.14,3.63-3.89,1.34-4.88-6.23-7.3-8.13-12-1.09-2.69-.12-5.73.86-8.47,7.81-21.85,16.34-44.77,34.08-59.73a15.56,15.56,0,0,0,3.59-3.7c2.37-4,.19-9.13-2.26-13.1-1.76-2.86-3.78-5.73-6.73-7.3s-7.1-1.4-9.17,1.23"/><path class="cls-2" d="M785.17,646.6c-1.45,8-2.75,16.77,1.52,23.64a32.62,32.62,0,0,0,6.39,6.89q32,28.36,65.25,55.17c7.1,5.72,14.62,11.9,17.38,20.6,2.72,1.81,6.37-1.16,7.12-4.34s-.07-6.56.63-9.75c.57-2.56,2-5.39.59-7.56-1.09-1.62-3.27-2-5.16-2.46-6.67-1.8-11.6-7.27-16.13-12.49l-33-38c-5.06-5.83-10.43-12.48-10.12-20.19.11-2.75.91-5.73-.51-8.09-2.22-3.71-7.68-2.9-11.84-4.08-4.5-1.27-7.82-5.2-12.25-6.71s-11,2.13-9,6.38"/><path class="cls-2" d="M752.7,643.28c-4,5.81-8.26,12.36-7.35,19.39a28.65,28.65,0,0,0,2.6,7.8q15.19,34.17,32,67.57c3.59,7.13,7.34,14.78,6.39,22.71,1.52,2.42,5.5,1.38,7.25-.88s2.32-5.26,4-7.55c1.38-1.82,3.57-3.55,3.2-5.8-.27-1.69-1.9-2.74-3.21-3.83-4.67-3.85-6.62-10-8.34-15.79q-6.27-21.14-12.55-42.26c-1.92-6.48-3.79-13.72-.75-19.75,1.08-2.15,2.79-4.24,2.52-6.63-.43-3.76-5.07-5.1-8-7.53-3.13-2.65-4.35-7-7.33-9.79s-9.5-2.26-9.47,1.83"/><path class="cls-2" d="M752.73,810c-6.44.39-7.08-.38-12.62,2.94q-10.7,6.4-21.37,12.85c-.34.21-.71.45-.8.84-.19.79.86,1.25,1.67,1.35,6.32.79,12.7-.22,19-1.23l5.89-1L759,823.42c3.53-.58,7.9-2,8.22-5.56a7.42,7.42,0,0,0-1.53-4.51c-1.47-2.28-3.3-4.49-5.83-5.47S754,807.57,752.73,810Z"/><path class="cls-2" d="M873.35,752.94c.8-3.61,1.5-3.68,2.29-7.3a5.91,5.91,0,0,1,1.42-3.18c1.6-1.46,4.34-.61,5.68,1.09,2,2.5,1.77,6.08.89,9.14s-2.35,6-2.65,9.14c-.43,4.51,1.55,9.09.59,13.52-.84,3.84-3.72,6.85-5.61,10.29-3.85,7.07-3.33,15.66-5.64,23.37-.57,1.89-1.58,4-3.51,4.42-1.24.28-2.63-.21-3.76.38-1.55.82-2,3.4-3.78,3.41-2,0-2-3-1.43-4.83A448.13,448.13,0,0,0,873.35,752.94Z"/><path class="cls-2" d="M794.41,756.14c2.11-3.74,3-3.49,5.24-7.16a6.75,6.75,0,0,1,2.75-3c2.3-1,5,1,5.82,3.32,1.22,3.48-.33,7.33-2.44,10.36s-4.81,5.68-6.32,9c-2.16,4.79-1.7,10.56-4.41,15.06-2.35,3.9-6.64,6.12-10,9.2-6.86,6.31-9.51,15.93-14.92,23.53-1.33,1.86-3.22,3.78-5.5,3.54-1.46-.15-2.81-1.21-4.27-1-2,.31-3.5,3-5.43,2.32-2.17-.73-1.14-4,.25-5.83A522.06,522.06,0,0,0,794.41,756.14Z"/><path class="cls-2" d="M851.94,809.2c-3.06-2.57-7.77-1.68-11.29.22s-6.63,4.68-10.48,5.76c-4.23,1.18-9.26.3-12.64,3.11a2.54,2.54,0,0,0-1.08,1.87c0,1,1,1.71,1.84,2.24,3.1,1.91,6.58,3.9,10.17,3.28,2.8-.48,5.07-2.46,7.57-3.81,8.28-4.47,18.38-1.85,27.53.31a12.18,12.18,0,0,0,5.8.37c1.89-.49,3.62-2.19,3.45-4.14-.22-2.51-3.1-3.75-5.55-4.34C860.37,812.39,859,809,851.94,809.2Z"/><path class="cls-2" d="M411.11,523a11.62,11.62,0,0,0-12.25,19.41,24.52,24.52,0,0,1,3.3,2.87c1.35,1.69,1.68,4,2,6.09a93.94,93.94,0,0,0,16.25,39.17c5.1,7.12,11.21,13.54,15.62,21.11s7,16.82,4.28,25.14c-.78,2.4-2,4.74-2,7.26.11,5.89,8.93,9.2,12.89,4.83,1.26-4.86-4.73-11-1-14.28a17.62,17.62,0,0,1,2.89-1.6c3.6-2.15,3.81-7.56,1.78-11.23s-5.61-6.16-8.67-9c-10.13-9.47-14.95-23.36-17.18-37s-2.26-27.66-4.67-41.31c-.73-4.1-1.78-8.39-4.66-11.39s-8.16-4.08-11.19-1.22"/><path class="cls-2" d="M440,638.67c-1.13-2.63-5.61-1.4-6.53,1.32s.34,5.63,1.36,8.31c5.85,15.39,4,32.57.86,48.73-2.14,11-4.87,22-4.17,33.17.58,9.31,3.53,18.3,6.45,27.16a7.27,7.27,0,0,0,1.64,3.12c2.26,2.12,6.31.28,7.47-2.6s.4-6.13-.29-9.15a174.23,174.23,0,0,1-2.27-66.29c2.73-17.14,8-34.77,3.35-51.49a3.86,3.86,0,0,0-4.3,3.16"/><path class="cls-2" d="M461.55,614.53c-1.75-2.87-6.69-1.76-8.15,1.27s-.36,6.68,1.34,9.58,4,5.49,5.14,8.65c2.11,5.84-.09,12.25-2,18.17a184.39,184.39,0,0,0-8.4,67.13c.69,11.24,2.32,23-2.11,33.37-1.35,3.14-3.26,6.66-1.81,9.75,2.23,4.76,10.25,2.78,12.34-2s.41-10.33-.9-15.42a114.6,114.6,0,0,1-2.64-40.93c2.87-26.2,13.59-50.78,20.85-76.12,1.14-4,1.94-8.93-1.15-11.69-1.86-1.66-4.56-1.9-7.05-2.06l-9-.58"/><path class="cls-2" d="M438.43,755.79c-2.84,3.14-3.25,7.72-3.51,12l-2.13,34c-.07,1.26-.09,2.69.82,3.55,1.14,1.08,3.14.56,4.14-.64a8.71,8.71,0,0,0,1.5-4.39l3.86-25.78c.64-4.22,1.27-8.44,1.84-12.67.25-1.83.45-3.83-.55-5.38s-3.69-2-4.55-.38"/><path class="cls-2" d="M446.88,759.64c-5.59,13.56-5.18,25.23-5.09,40.66,0,2,.36,4.58,1.94,5.28s3.12-1.06,3.94-2.82c2-4.41,2.59-9.64,3.11-14.73q1-9.74,2-19.46c.25-2.55.48-5.31-.6-7.58s-4-3.36-5.27-1.35"/><path class="cls-2" d="M471.83,764c-5.59,13.56-5.17,25.23-5.08,40.66,0,2,.35,4.58,1.94,5.28s3.12-1.06,3.93-2.82c2-4.41,2.6-9.64,3.11-14.74q1-9.72,2-19.45c.26-2.55.48-5.31-.6-7.58s-4-3.36-5.27-1.35"/><path class="cls-2" d="M433.06,799.78a45.56,45.56,0,0,0-33.21,15c-1.17,1.31-2.06,3.73-.47,4.46a3,3,0,0,0,1.81,0c8.1-1.75,16.31-3.53,23.72-7.25a49.47,49.47,0,0,0,8.08-5.09,8.46,8.46,0,0,0,2.82-3.16,3.28,3.28,0,0,0-.8-3.88c-1.16-.82-3.2-.06-3.19,1.36"/><path class="cls-2" d="M432.2,804.72c-7.46,5.69-16.72,18.36-12.66,19.94,3.79,1.59,7.92-1.13,11.1-3.73,5-4,9.91-8.2,13.68-13.36,1-1.39,1.95-3.35.92-4.74-.74-1-2.15-1.16-3.39-1.12a19,19,0,0,0-9.65,3"/><path class="cls-2" d="M460.73,803.68c-7.46,5.69-16.72,18.36-12.65,19.94,3.79,1.59,7.91-1.13,11.1-3.72,4.95-4,9.9-8.21,13.68-13.37,1-1.39,1.95-3.35.91-4.74-.74-1-2.14-1.15-3.38-1.11a19.16,19.16,0,0,0-9.66,3"/><path class="cls-2" d="M807.15,469.54a13.12,13.12,0,0,0-13.77,7,5.44,5.44,0,0,0-.62,3.45c.46,2,2.71,3.17,4.76,3.09a12.58,12.58,0,0,0,5.7-2.14c2.07-1.21,4.2-2.58,5.28-4.71S809.14,471,807,470a3.52,3.52,0,0,0-4.44,1.5"/><path class="cls-2" d="M814.31,471.62a10.41,10.41,0,0,0-9.25,7.66,3,3,0,0,0,.37,2.77,3.1,3.1,0,0,0,2,.79,14.16,14.16,0,0,0,13-5.8c1.29-1.84,2-4.58.48-6.21a5.25,5.25,0,0,0-2.35-1.25,17,17,0,0,0-14,2.19"/><path class="cls-2" d="M816.62,480.66c0,8.75,9.55-.07,13.88,3,4-3.12,1.47-10.56-3.48-11.55s-9.85,3.52-10.4,8.53"/><path class="cls-2" d="M828.9,482.07c-10.27,5,.26,5.56,13.52,6.4,2.44.16,10.76,3.88,12.7,2.39,0-4.68-4.56-7.88-8.59-10.26-5.88-3.47-13.79-6.81-18.94-2.33"/><path class="cls-2" d="M849.66,489.11a29.4,29.4,0,0,0,10.63,12.4,4.25,4.25,0,0,0,3.07.95c2.73-.56,2.16-4.63.9-7.12s-2.5-4.87-4.73-6.34-5.67-1.47-7.18.74"/><path class="cls-2" d="M861,500.47a58.81,58.81,0,0,0,5.28,23.67c2.62-1.19,5.67-.43,8.53-.67s6.14-2.57,5.31-5.32c-1.21-4-7.86-1.8-11.21-4.35a6.53,6.53,0,0,1-2.17-5.11c-.07-2.43.53-5.1-.78-7.16s-5.59-1.49-5.07.89"/><path class="cls-2" d="M869.63,524.57a4.54,4.54,0,0,0-4.2,2.76l7.17,2.85.61,18.18c.06,1.59.17,3.32,1.25,4.49,1.73,1.87,1.67,3.68,3.86,2.38s11.8-3.74,10-5.72c-2.58-5.34-10.4-7.87-10.59-14.14-.07-2.26.36-4.53,0-6.77s-1.74-4.55-4-4.94"/><path class="cls-2" d="M877.94,554.84c-3.79-1-8.14,4.8-5.7,7.3s2.75-1.45,3.83-.37,1.32,2.72,1.5,4.24c.74,6.19,3.73,9.84.77,16.76-.31,1.7,1,3.88,6.85,2.55,1.8-.41,3.43-2.16,3-4-.51-2.06-3.2-2.77-4.23-4.63a6.66,6.66,0,0,1-.35-4.13c.87-6.87,5.6-17.12,2.6-20.61s-3.75-.58-5.07.68"/><path class="cls-2" d="M883.22,584.07c-3.84.52-7.74,1.66-5.62,5.2,1.2,1.8,3.18-.36,4.42,2.08a46.71,46.71,0,0,1-1.27,14.43c-2.07-.86-4.41,1.61-3.93,3.79s2.91,3.52,5.14,3.42a11,11,0,0,0,6-2.67,32.66,32.66,0,0,1,.13-22.21c.37-1,.79-2.14.29-3.08s-2.69-1.4-5.19-1"/><path class="cls-2" d="M881.93,612.44c-2.19.37-4.77,1.76-4.89,3.95s1.14,4.18,2.14,6.14a28.62,28.62,0,0,1,3,15.78l6.41-2.45c0-5.38-5.51-10.62-3-15.4,1.41-2.74,5.27-5.13,3.79-7.83-1.11-2-3.18-1.22-7.36-.19"/><path class="cls-2" d="M883.21,636a5.89,5.89,0,0,0-6.28,5c0,2.65,7.69,2.25,8,6.17S883,654.81,881,658.14a19.75,19.75,0,0,0,11.66-1.87c-5.34-4.18-5.87-13.18-1.06-17.95.75-1.6-1-4.6-8.35-2.28"/><path class="cls-2" d="M883.78,658.72a10.86,10.86,0,0,0-3.8.72,3.63,3.63,0,0,0-2.24,2.94,2.23,2.23,0,0,0,2.44,2.33c.61-.14,1.14-.6,1.76-.59,1,0,1.56,1.16,1.49,2.13a28.31,28.31,0,0,1-.7,2.82c-.66,3.8,3.64,7.27,2.71,11,2.1-1.49,4.88-1.44,7.46-1.34a19.47,19.47,0,0,1-3.24-9.07,4.72,4.72,0,0,1,.78-3.6c.78-.89,2-1.15,3-1.87a3.7,3.7,0,0,0-3.67-6.35"/><path class="cls-2" d="M886.9,680.48l-3.6,2.43c-.5.34-1,.77-1.06,1.37s.8,1.21,1.53,1.3a8.32,8.32,0,0,1,2.18.22c1.56.6,1.69,2.7,1.83,4.38.27,3.39,1.62,6.58,3,9.71.5,1.17,1.25,2.53,2.52,2.59a2.35,2.35,0,0,0,2.18-2,6.88,6.88,0,0,0-.3-3.14l-1.47-5.71c-.41-1.63-.67-3.73.73-4.66a10.84,10.84,0,0,1,1.24-.59c1.87-.94,2.33-3.67,1.22-5.45a6.11,6.11,0,0,0-5.42-2.58"/><path class="cls-2" d="M892.38,703.45a9.32,9.32,0,0,0-5.61,3.32,5.78,5.78,0,0,0,5.17.61c.74-.28,1.56-.71,2.27-.36s.85,1.27,1,2a13,13,0,0,0,4.46,7.67,1.77,1.77,0,0,0,.63.38c.68.17,1.32-.48,1.5-1.15.53-1.89-1.13-3.7-1.32-5.65s.94-3.6.73-5.43a3.75,3.75,0,0,0-6.09-2.49"/><path class="cls-2" d="M900.53,716.58c-1.53.55-2.54,2.95-3.73,4-.54.49-1.07,1.25-.72,1.89s1.55.55,2.33.16,1.81-.79,2.42-.17a2.07,2.07,0,0,1,.45,1,13.76,13.76,0,0,0,7.23,8.53c1-1.93,1.89-4.4.55-6.1-.7-.89-1.87-1.32-2.58-2.2-1-1.19-.87-2.91-.55-4.41a4.3,4.3,0,0,0,.14-2,2.59,2.59,0,0,0-2.49-1.72,6,6,0,0,0-3.05,1"/><path class="cls-2" d="M909,731.91c-1.71.25-2.77,1.91-3.61,3.42a1.44,1.44,0,0,0-.25.69c0,.66.85,1,1.49.84s1.2-.54,1.84-.65a3,3,0,0,1,2.56,1.16,19.85,19.85,0,0,1,1.54,2.49,11,11,0,0,0,7.65,5.09,1.07,1.07,0,0,0,.77-.09,1,1,0,0,0,.3-.51,4.9,4.9,0,0,0-1.36-5c-1.1-1-2.69-1.54-3.27-2.9-.52-1.19,0-2.57-.18-3.87a3.92,3.92,0,0,0-6.23-2.71"/><path class="cls-2" d="M921.42,744.64a12.65,12.65,0,0,0-2.47,4.84c-.29,1.15-.06,2.82,1.12,2.88s1.72-1.64,2.87-1.88a2,2,0,0,1,1.85.91c.42.58.66,1.28,1,1.9a9.48,9.48,0,0,0,3.75,3,25.44,25.44,0,0,0,6,2.66,1.07,1.07,0,0,0,1-.12,1.13,1.13,0,0,0,.23-.59l.83-4.94a2,2,0,0,0-.08-1.3,2,2,0,0,0-.92-.72l-11.28-5.64a2.43,2.43,0,0,0,1.52-2.3,2,2,0,0,0-1.92-1.84,1.69,1.69,0,0,0-1.56,2"/><path class="cls-2" d="M938.42,754.7l.08,2.89a6.14,6.14,0,0,0,.48,2.66,2.05,2.05,0,0,0,2.24,1.14c1.1-.36.32-2.25,1.1-3.11a2,2,0,0,1,1-.5,35.32,35.32,0,0,1,10.59-1.13,3.55,3.55,0,0,0,2-.27c1.39-.81,1-2.9.32-4.38a1.37,1.37,0,0,0-.6-.8,1.51,1.51,0,0,0-.79,0l-8.45,1.44a1.44,1.44,0,0,1-1.12-.11c-.43-.31-.38-1-.48-1.48a3.34,3.34,0,0,0-3.14-2.39,2.79,2.79,0,0,0-2,.46,1.45,1.45,0,0,0-.42,1.83"/><path class="cls-2" d="M956.83,755.35a7.09,7.09,0,0,0,1.23,4.3c.46.68,1.39,1.31,2,.8s.22-1.59.4-2.42c.27-1.2,1.8-1.63,3-1.44s2.39.76,3.61.63a6.4,6.4,0,0,0,2.88-1.34,4.87,4.87,0,0,0,2-2c.57-1.51-.6-3.25-2.11-3.81a7.52,7.52,0,0,0-4.75.2,17.2,17.2,0,0,1-4.71,1.07,1.26,1.26,0,0,1-.66-.13c-.4-.22-.49-.74-.73-1.12a1.55,1.55,0,0,0-2.77,1.34"/><path class="cls-2" d="M970.89,750.09a4,4,0,0,1-2-3.46,1.57,1.57,0,0,1,.22-.85c.42-.62,1.41-.49,2,0s1,1.13,1.58,1.61a1.51,1.51,0,0,0,2,.07,2.17,2.17,0,0,0,.33-1.19,24.32,24.32,0,0,1,1.65-6.19,3.82,3.82,0,0,1,.74-1.41,2.51,2.51,0,0,1,1.31-.65,3.73,3.73,0,0,1,3.9,2,4.17,4.17,0,0,1-.55,4.41c-1.51,1.85-4.57,2.59-4.93,5-.17,1.11.37,2.25.12,3.34a2.38,2.38,0,0,1-4.51.41"/><path class="cls-2" d="M978.47,738.45c-.49.29-1.11-.29-1.11-.86A3.48,3.48,0,0,1,978,736c1.4-2.68.4-5.92.26-8.95-.06-1.19.2-2.65,1.32-3.08a2.68,2.68,0,0,1,2.72,1c2.87,3,2.42,8.16.07,11.63"/><path class="cls-2" d="M978.35,723.76a17.7,17.7,0,0,1-1.31-8.2,2.23,2.23,0,0,1,.25-1c.65-1.08,2.36-.48,3.21.45a7.69,7.69,0,0,1,.7,9.23"/><path class="cls-2" d="M973.45,703.23c-.86-.56-2.07.31-2.24,1.32a4.68,4.68,0,0,0,.82,2.9c1.32,2.44,2.76,5,5.21,6.32a1.57,1.57,0,0,0,1.25.23c.84-.3.74-1.52.42-2.36a20.22,20.22,0,0,0-5.26-7.7"/><polygon class="cls-3" points="220.33 401.88 215.35 415.71 214.61 424.74 198.14 442.02 195.93 449.89 200.41 461.07 207.24 466.98 218.85 491.32 231.03 503.68 263.72 514.99 275.47 499.07 299.26 490.77 322.32 493.53 336.09 507.43 346.91 519.72 353.3 542.59 371 571.93 397.19 616.73 406.05 625.58 416.99 694.8 431.87 753.57 433.46 775.33 433.46 783.08 429.77 792.08 411.58 796.55 397.07 803.07 392.77 815.61 397.44 828.73 404.2 832.29 423.01 831.43 429.28 834.13 441.95 835 458.91 833.77 470.84 826.27 476.37 797.83 484.61 784.68 483.38 741.28 487.32 693.57 482.64 681.03 491.5 641.44 496.21 610.71 512.89 618.82 539.2 620.05 571.41 623 605.35 627.92 631.17 623 652.31 621.28 683.79 616.02 695.96 617.1 706.17 636.52 728.54 684.97 747.48 725.54 757.56 754.56 760.51 775.21 751.9 794.64 741.82 808.16 735.43 810.13 727.87 806.41 719.94 806.32 708.23 813.23 704.72 821.53 709.33 828.26 717.54 830.17 723.01 833 744.65 833.61 758.54 831.77 769.36 827.59 784.61 812.1 805.26 782.59 815.35 764.39 820.51 759.97 823.46 748.65 813.87 727.01 808.46 702.92 813.62 661.36 833.17 615.25 850.51 571.93 855.67 542.59 860.47 539.27 867.11 547.75 870.43 585.75 870.43 640.34 875.22 693.45 891.82 732.92 912.48 756.15 937.56 768.33 956 768.7 977.49 762.06 990.79 750.99 998.29 735.5 1000.38 718.29 994.73 703.41 981.08 693.94 968.29 691.61 962.02 696.4 962.52 707.84 970.75 717.79 973.21 727.01 970.14 737.22 959.32 743.74 941.37 743.24 926.62 734.27 913.58 712.14 905.65 679.8 904.91 631.85 904.85 585.87 900.43 545.54 891.33 513.82 873.62 487.26 841.16 464.89 788.73 446.32 716.43 436.18 619.61 431.75 533.48 425.85 489.59 417.74 452.7 400.21 393.69 378.45 336.33 360.93 299.26 353.74 284.33 351.9 270.68 356.88 261.46 358.54 250.94 356.51 245.23 358.72 243.38 362.59 244.86 368.31 243.01 374.58 229.92 388.41 220.33 401.88"/><polyline class="cls-3" points="472.69 816.74 483.11 809.94 491 787.75 496.88 773.18 495.65 729.78 502.68 684.23 500.84 670.21 512.89 618.82"/><polyline class="cls-3" points="812.59 721.3 818.17 736.72 831.58 750.62 845.59 772.51 848.3 790.26 845.16 805.62 840.67 807 833.11 803.28 825.18 803.19 813.47 810.1 809.97 818.4 814.58 825.13 822.78 827.04 828.25 829.87 849.89 830.48 863.79 828.64 874.61 824.46 883.42 808.97 890.84 777.54 897.97 758.36 901.85 744.2"/><polyline class="cls-3" points="243.01 374.58 254.82 363.08 261.46 358.54"/><polygon class="cls-3" points="207.24 466.98 213.51 458.74 213.51 449.89 204.78 456.65 207.24 466.98"/><polyline class="cls-3" points="207.71 467.96 216.34 482.84 222.48 482.84 237.48 477.92 250.76 467.96 263.06 464.64"/><polyline class="cls-3" points="299.26 490.77 305.9 481.73 322.81 473.74 336.33 460.46 336.33 433.41 326.25 410.05 319.49 401.81 320.35 387.18 309.28 366.56 293.42 354.23 284.08 355.83 276.46 361.98 272.15 377.96"/><polygon class="cls-3" points="233.61 430.28 232.32 421.98 241.91 412.39 244.67 412.39 243.01 416.26 233.61 430.28"/><polyline class="cls-3" points="496.21 610.71 500.84 589.8 493.46 544.43"/><polyline class="cls-4" points="397.44 828.73 423.38 824.59 392.77 815.61 476.37 797.83 429.77 792.08 484.61 784.68 431.87 753.57 483.38 741.28 446 714.23 487.32 693.57 416.99 694.8 482.64 681.03 406.05 625.58 500.84 589.8 353.3 542.59 446.5 473.74 346.91 519.72 423.87 434.89 336.33 433.41 336.33 360.93 272.15 377.96 244.67 412.39 220.33 401.88 232.32 421.98 214.61 424.74 243.01 446.44 237.48 477.92 207.24 466.98"/><polyline class="cls-4" points="243.01 374.58 272.15 377.96 261.46 358.54 276.46 361.98 284.33 351.9 284.08 355.83"/><polyline class="cls-4" points="305.9 481.73 423.87 434.89 322.32 493.53 373.18 490.77 371.1 508.55 353.3 542.59 431.04 526.29 482.79 551.26 481.22 583.52 448.86 609.42"/><polyline class="cls-4" points="336.33 360.93 423.87 434.89 452.7 400.21 446.5 473.74 489.59 417.74 520.39 548.49 583.09 452.59 628.46 571.93 708.13 466.43 721.04 580.58 813.62 661.36 781.16 514.93 850.51 571.93 788.73 446.32 855.67 542.59 849.28 491.69 860.47 539.27 877.07 517.75 867.23 549.16 885.43 544.56 869.32 573.11 888.87 573.82 870.43 586.61 904.9 618.82 870.56 641.83 905.65 679.8 875.22 693.45 913.29 710.95 891.82 732.92 926.62 734.27 912.48 756.15 941.37 743.24 937.56 768.33 959.32 743.74 977.49 762.06 970.14 737.22 990.79 750.99 974.2 726.03 994.73 703.41 962.02 696.4"/><polyline class="cls-4" points="708.23 813.23 723.01 833 735.43 810.13 758.54 831.77 751.9 794.64 775.26 805.03 760.51 775.21 801.08 757.26 747.48 725.54 793.89 703.96 813.62 661.36 752.89 678.33 695.96 617.1 721.04 580.58 683.79 616.02 628.46 571.93 605.35 627.92 520.39 548.49 500.84 589.8 512.89 618.82 490.6 645.44 500.84 670.21 482.64 681.03 500.84 696.17 484.76 724.55 495.69 731.43 483.86 757.99 496.88 773.18 484.61 784.68 483.11 809.94 476.37 797.83"/><polyline class="cls-4" points="489.59 417.74 583.09 452.59 604.52 430.72 708.13 466.43 788.73 446.32 849.28 491.69 873.62 487.26 877.07 517.75 891.33 513.82 885.43 544.56 901.85 558.54 888.87 573.82 904.9 618.82 891.38 664.35 875.22 693.45 902.52 694.68 913.29 710.95 913.94 733.78 912.48 756.15 939.71 754.2 945.81 759.01 956 768.7 969.48 753.98 972.17 744.1 976.66 741.57 977.8 731.46 998.29 735.5 986.09 712.93 970.75 717.79 969.4 697.98 981.08 693.94"/><polyline class="cls-4" points="781.16 514.93 788.73 446.32 708.13 466.43 781.16 514.93 721.04 580.58 628.46 571.93 520.39 548.49 512.89 618.82 571.66 596.43 612.98 609.42 631.17 623 660.38 597.37"/><polyline class="cls-4" points="813.47 810.1 827.42 816.21 828.25 829.87 855.91 814.84 848.3 790.26 863.05 799.06 883.42 808.97 890.59 775.89 874.87 757.78 883.73 745.51 866 721.3 875.22 693.45 859.61 683 871.08 647.62 863.08 606.46 843 590.69 858.07 583.94 867.23 549.16"/><polyline class="cls-4" points="814.58 825.13 840.67 807 874.61 824.46 863.05 799.06 890.59 775.89 845.59 772.51 901.85 744.2 830.36 749.36 866 721.3 808.46 702.92 859.61 683 813.62 661.36 871.08 647.62 831.66 618.82 870.43 603.57 850.51 571.93 802.72 612.14 773.01 625.92 752.89 678.33"/><polyline class="cls-4" points="773.01 625.92 781.16 514.93 752.89 455.26 716.43 436.18 708.13 466.43 583.09 452.59 509.83 503.68 446.5 473.74 500.84 589.8 447.35 655.48 467.16 684.28 465.92 693.95 421.54 712.78 446 714.23 431.87 753.57 483.86 757.99 465.74 773.55 433.46 782.1 429.77 792.08 411.58 796.55 431.2 807.44 458.91 833.77"/><polyline class="cls-4" points="849.28 491.69 838.42 517.78 827.37 524.89 781.16 514.93 716.96 544.43 628.46 571.93 542.49 514.69 509.83 503.68 482.79 551.26 419.96 563.92 397.19 616.73 448.86 609.42"/><polyline class="cls-4" points="218.85 491.32 222.48 482.84 231.03 503.68 237.48 477.92 275.47 499.07 263.06 464.64 305.9 481.73 275.84 457.26 336.33 460.46 313.46 449.89 326.25 410.05 281.25 446.44 310.01 367.92 243.01 446.44 275.84 457.26"/><polyline class="cls-4" points="214.61 424.74 213.51 449.89 243.01 446.44 233.61 430.28 254.81 432.61 244.67 412.39 281.25 446.44 278.96 404.31 272.15 377.96"/><polyline class="cls-4" points="716.96 544.43 656.26 535.13 583.09 452.59 501 466.18 467.59 446.32 452.7 400.21 390.07 406.33 336.33 433.41 313.46 449.89 275.84 457.26 281.25 446.44 319.49 401.81 326.25 410.05"/><polyline class="cls-4" points="721.04 580.58 719.94 642.89 747.48 725.54 752.89 678.33 793.89 703.96 823.46 748.65 801.08 757.26 815.35 764.39 775.26 805.03 769.36 827.59 741.82 808.16 744.65 833.61 723.01 833 719.94 806.32"/><polyline class="cls-4" points="470.84 826.27 431.2 807.44 423.38 824.59 429.28 834.13"/><polyline class="cls-4" points="416.99 694.8 447.35 655.48 448.86 609.42 419.96 563.92 446.5 473.74 423.87 434.89 336.33 460.46"/><polyline class="cls-4" points="232.32 825.13 392.77 815.61 272.15 868.33 404.2 832.29 431.92 901.53 709.33 828.26 723.38 877.18 828.25 829.87 846.06 858.57 1043.05 833 874.61 824.46 986.61 811.45"/><polyline class="cls-4" points="483.11 809.94 704.72 821.53 470.84 826.27 605.29 898.21 744.65 833.61 849.28 901.53 814.58 825.13"/><polyline class="cls-4" points="769.36 827.59 809.97 818.4 778.13 818.68"/><polyline class="cls-4" points="947.88 883.09 846.06 858.57 723.38 877.18 552.15 869.77 375.19 884.68 339.69 838.81 277.76 822.43 397.07 803.07"/><line class="cls-4" x1="883.42" y1="808.97" x2="941.37" y2="816.7"/><circle class="cls-5" cx="339.69" cy="838.81" r="2.27"/><circle class="cls-5" cx="552.15" cy="869.77" r="2.27"/><circle class="cls-5" cx="714.92" cy="847.68" r="2.27"/><circle class="cls-5" cx="846.23" cy="858.76" r="2.27"/><polyline class="cls-4" points="475.63 394.93 489.59 417.74 525.52 396.07"/><polyline class="cls-4" points="767.76 422.5 788.73 446.98 855.12 435.08"/><polyline class="cls-4" points="917.72 601.29 904.9 618.82 914.74 634.97"/><polyline class="cls-4" points="579.17 638.63 605.35 627.92 623.24 638.63"/><polyline class="cls-4" points="334.15 530.2 354.04 541.9 354.04 577.57"/><polyline class="cls-4" points="409.36 734.29 431.92 753.76 423.38 771.66"/><polyline class="cls-4" points="325.97 349.91 336.33 360.93 360.22 352.96"/><path class="cls-5" d="M472.13,394.93a3.5,3.5,0,1,0,3.5-3.5A3.5,3.5,0,0,0,472.13,394.93Z"/><path class="cls-5" d="M322.47,349.91a3.5,3.5,0,1,0,3.5-3.5A3.5,3.5,0,0,0,322.47,349.91Z"/><path class="cls-5" d="M356.72,352.85a3.5,3.5,0,1,0,3.5-3.5A3.49,3.49,0,0,0,356.72,352.85Z"/><path class="cls-5" d="M329.62,530.2a3.5,3.5,0,1,0,3.5-3.5A3.5,3.5,0,0,0,329.62,530.2Z"/><path class="cls-5" d="M350.54,577.57a3.5,3.5,0,1,0,3.5-3.5A3.5,3.5,0,0,0,350.54,577.57Z"/><path class="cls-5" d="M405.86,734.29a3.5,3.5,0,1,0,3.5-3.5A3.5,3.5,0,0,0,405.86,734.29Z"/><path class="cls-5" d="M419.73,771.66a3.5,3.5,0,1,0,3.5-3.5A3.5,3.5,0,0,0,419.73,771.66Z"/><path class="cls-5" d="M575.17,638.63a3.5,3.5,0,1,0,3.5-3.5A3.5,3.5,0,0,0,575.17,638.63Z"/><path class="cls-5" d="M619.74,638.63a3.5,3.5,0,1,0,3.5-3.5A3.5,3.5,0,0,0,619.74,638.63Z"/><path class="cls-5" d="M764.26,422.5a3.5,3.5,0,1,0,3.5-3.5A3.5,3.5,0,0,0,764.26,422.5Z"/><path class="cls-5" d="M851.62,434.74a3.5,3.5,0,1,0,3.5-3.5A3.5,3.5,0,0,0,851.62,434.74Z"/><path class="cls-5" d="M914.22,601.3a3.5,3.5,0,1,0,3.5-3.5A3.5,3.5,0,0,0,914.22,601.3Z"/><path class="cls-5" d="M911.31,635a3.5,3.5,0,1,0,3.5-3.5A3.5,3.5,0,0,0,911.31,635Z"/><path class="cls-5" d="M522,396a3.5,3.5,0,1,0,3.5-3.5A3.5,3.5,0,0,0,522,396Z"/><circle class="cls-5" cx="849.28" cy="491.69" r="3.22"/><circle class="cls-5" cx="605.29" cy="627.32" r="3.22"/><circle class="cls-5" cx="431.92" cy="753.76" r="3.22"/><circle class="cls-5" cx="476.37" cy="798.64" r="3.22"/><circle class="cls-5" cx="431.92" cy="808.23" r="3.22"/><circle class="cls-5" cx="793.88" cy="703.88" r="3.22"/><circle class="cls-5" cx="752.89" cy="677.86" r="3.22"/><circle class="cls-5" cx="719.94" cy="643.01" r="3.22"/><circle class="cls-5" cx="720.17" cy="580.79" r="3.22"/><circle class="cls-5" cx="800.31" cy="756.98" r="3.22"/><circle class="cls-5" cx="774.92" cy="804.55" r="3.22"/><circle class="cls-5" cx="756.1" cy="818.29" r="3.22"/><circle class="cls-5" cx="827.37" cy="816.7" r="3.22"/><circle class="cls-5" cx="864.03" cy="799.36" r="3.22"/><circle class="cls-5" cx="875.47" cy="757.95" r="3.22"/><circle class="cls-5" cx="913.02" cy="710.74" r="3.22"/><circle class="cls-5" cx="939.39" cy="754.74" r="3.22"/><circle class="cls-5" cx="970.56" cy="737.95" r="3.22"/><circle class="cls-5" cx="969.35" cy="698.53" r="3.22"/><circle class="cls-5" cx="891.33" cy="664.23" r="3.22"/><circle class="cls-5" cx="888.94" cy="574.23" r="3.22"/><circle class="cls-5" cx="877.17" cy="518.17" r="3.22"/><circle class="cls-5" cx="859.13" cy="683.05" r="3.22"/><circle class="cls-5" cx="336.33" cy="360.93" r="3.22"/><circle class="cls-5" cx="309.12" cy="367.92" r="3.22"/><circle class="cls-5" cx="278.59" cy="405.17" r="3.22"/><circle class="cls-5" cx="261.46" cy="358.53" r="3.22"/><circle class="cls-5" cx="827.37" cy="525.01" r="3.22"/><circle class="cls-5" cx="354.04" cy="541.9" r="3.22"/><circle class="cls-5" cx="482.79" cy="681.08" r="3.22"/><circle class="cls-5" cx="447.51" cy="654.95" r="3.22"/><circle class="cls-5" cx="512.89" cy="618.51" r="3.22"/><circle class="cls-5" cx="418.04" cy="694.8" r="3.22"/><circle class="cls-5" cx="445.64" cy="714.56" r="3.22"/><circle class="cls-5" cx="656.22" cy="534.66" r="3.22"/><circle class="cls-5" cx="708.63" cy="466.97" r="3.22"/><circle class="cls-5" cx="500.84" cy="589.25" r="3.22"/><circle class="cls-5" cx="397.19" cy="616.73" r="3.22"/><circle class="cls-5" cx="207.71" cy="466.98" r="3.22"/><circle class="cls-5" cx="275.37" cy="498.84" r="3.22"/><circle class="cls-5" cx="372.31" cy="491.69" r="3.22"/><circle class="cls-5" cx="281.25" cy="445.97" r="3.22"/><circle class="cls-5" cx="453.17" cy="400.99" r="3.22"/><circle class="cls-5" cx="773.05" cy="625.1" r="3.22"/><circle class="cls-5" cx="803.03" cy="611.74" r="3.22"/><circle class="cls-5" cx="509.67" cy="503.68" r="3.22"/><circle class="cls-5" cx="500.84" cy="466.05" r="3.22"/><circle class="cls-5" cx="467.64" cy="446.32" r="3.22"/><circle class="cls-5" cx="489.59" cy="417.74" r="3.22"/><circle class="cls-5" cx="628.59" cy="571.93" r="3.22"/><circle class="cls-5" cx="242.96" cy="446.37" r="3.22"/><circle class="cls-5" cx="788.73" cy="446.98" r="3.22"/><circle class="cls-5" cx="849.28" cy="571.93" r="3.22"/><circle class="cls-5" cx="716.95" cy="544.43" r="3.22"/><circle class="cls-5" cx="583.16" cy="452.2" r="3.22"/><circle class="cls-5" cx="446.41" cy="473.74" r="5.63"/><circle class="cls-5" cx="781.17" cy="514.95" r="5.63"/><circle class="cls-5" cx="336.33" cy="434.27" r="5.63"/><circle class="cls-5" cx="448.86" cy="609.42" r="4.02"/><circle class="cls-5" cx="542.89" cy="514.95" r="4.02"/><circle class="cls-5" cx="423.32" cy="435.08" r="4.02"/><circle class="cls-5" cx="420.37" cy="563.99" r="4.02"/><circle class="cls-5" cx="482.79" cy="551.31" r="4.02"/><circle class="cls-5" cx="431.36" cy="526.18" r="4.02"/><circle class="cls-5" cx="263.31" cy="464.74" r="4.02"/><circle class="cls-5" cx="521.5" cy="549.16" r="4.02"/><circle class="cls-5" cx="272.15" cy="377.96" r="4.02"/></g></g></svg>