<svg xmlns="http://www.w3.org/2000/svg" viewBox="0 0 320 100"><defs><style>.cls-1{fill:none;}.cls-2{fill:#505837;}</style></defs><title>Asset 12</title><g id="Layer_2" data-name="Layer 2"><g id="Artwork"><rect class="cls-1" width="320" height="100"/><path class="cls-2" d="M52.32,24.51a15.94,15.94,0,0,0-2.2.15l-1.67.27V37.76H37.05V28.43c0-1.56-.35-2.6-1.06-3.13a5.82,5.82,0,0,0-3.44-.79,15.65,15.65,0,0,0-2.15.15l-1.67.27V53.6a4,4,0,0,0,1,3.08,5.41,5.41,0,0,0,3.47.85,17.67,17.67,0,0,0,2.23-.14,10.88,10.88,0,0,0,1.64-.29V44.33h11.4V53.6a3.92,3.92,0,0,0,1,3.08,5.41,5.41,0,0,0,3.47.85,17.67,17.67,0,0,0,2.23-.14,10.88,10.88,0,0,0,1.64-.29V28.53c0-1.55-.35-2.61-1.06-3.18A5.48,5.48,0,0,0,52.32,24.51Z"/><path class="cls-2" d="M65.73,31.5a13.41,13.41,0,0,0-3.61.48V53.76c0,1.49.35,2.49,1,3a5.81,5.81,0,0,0,3.41.77,15.07,15.07,0,0,0,2.12-.14,8.9,8.9,0,0,0,1.49-.29V35.32a3.65,3.65,0,0,0-1-3A5.7,5.7,0,0,0,65.73,31.5Z"/><path class="cls-2" d="M66.15,20a4.35,4.35,0,0,0-3.26,1.27,4.49,4.49,0,0,0,0,6.2,4.79,4.79,0,0,0,6.52,0,4.47,4.47,0,0,0,0-6.2A4.35,4.35,0,0,0,66.15,20Z"/><path class="cls-2" d="M79.29,57.53a15.33,15.33,0,0,0,2.13-.14,9,9,0,0,0,1.48-.29V38.23a12.91,12.91,0,0,1,1.48-.66,5.63,5.63,0,0,1,2-.34,4.07,4.07,0,0,1,2.59.82,3,3,0,0,1,1.06,2.57V53.76c0,1.49.35,2.49,1,3a5.87,5.87,0,0,0,3.42.77,15.29,15.29,0,0,0,2.12-.14,10.78,10.78,0,0,0,1.53-.29V39.61c0-.18,0-.35,0-.53s0-.35-.08-.53a6.36,6.36,0,0,1,1.67-.95,5.26,5.26,0,0,1,2-.37,3.81,3.81,0,0,1,2.59.82,3.2,3.2,0,0,1,1,2.57V53.76c0,1.49.34,2.49,1,3a5.87,5.87,0,0,0,3.42.77,15.18,15.18,0,0,0,2.12-.14,11,11,0,0,0,1.54-.29V40.41A10.26,10.26,0,0,0,112.5,36a8.29,8.29,0,0,0-2.3-3,9.07,9.07,0,0,0-3.32-1.64,15,15,0,0,0-3.95-.5,14.26,14.26,0,0,0-4.77.71,16.33,16.33,0,0,0-3.6,1.78,11.44,11.44,0,0,0-3.63-1.89,14.52,14.52,0,0,0-4.21-.6,19.05,19.05,0,0,0-5.38.74,14.4,14.4,0,0,0-4.32,2,6.29,6.29,0,0,0-1.65,1.59,3.83,3.83,0,0,0-.58,2.22V53.76c0,1.49.35,2.49,1.06,3A6,6,0,0,0,79.29,57.53Z"/><path class="cls-2" d="M122.28,67.07a13.66,13.66,0,0,0,2.12-.16,12.24,12.24,0,0,0,1.48-.32V57.1a13.26,13.26,0,0,0,2.12.61,12.7,12.7,0,0,0,2.55.24,15,15,0,0,0,5.19-.87,11.55,11.55,0,0,0,4.14-2.6,12.05,12.05,0,0,0,2.73-4.29,16.64,16.64,0,0,0,1-5.91,16,16,0,0,0-1-6.05,11,11,0,0,0-2.89-4.18,11.58,11.58,0,0,0-4.42-2.42,19.8,19.8,0,0,0-5.65-.76,21.51,21.51,0,0,0-5.51.66A14.71,14.71,0,0,0,120,33.2a5.6,5.6,0,0,0-1.64,1.56,4,4,0,0,0-.59,2.25V63.25a3.61,3.61,0,0,0,1.06,3A5.84,5.84,0,0,0,122.28,67.07Zm3.55-28.89a11.21,11.21,0,0,1,1.64-.66,6.75,6.75,0,0,1,2.12-.29,5.43,5.43,0,0,1,4.22,1.64c1,1.09,1.51,2.9,1.51,5.41s-.52,4.25-1.57,5.45a5.5,5.5,0,0,1-4.42,1.81,7,7,0,0,1-1.91-.24,7.2,7.2,0,0,1-1.59-.66Z"/><path class="cls-2" d="M154.45,41.57q-4.5.48-6.68,2.39a7,7,0,0,0-2.17,5.56,7.11,7.11,0,0,0,3.23,6.39c2.16,1.4,5.06,2.09,8.7,2.09a24.58,24.58,0,0,0,5.4-.53,13,13,0,0,0,4-1.53,6.63,6.63,0,0,0,1.72-1.41,3.22,3.22,0,0,0,.72-2.2v-12a9.53,9.53,0,0,0-.88-4.24,7.9,7.9,0,0,0-2.46-3,10.91,10.91,0,0,0-3.84-1.72,21,21,0,0,0-5-.55,27.41,27.41,0,0,0-4,.29,16.47,16.47,0,0,0-3.58.87,3.45,3.45,0,0,0-2.44,3.34,4,4,0,0,0,.45,1.88,3.25,3.25,0,0,0,1.09,1.3,24.9,24.9,0,0,1,3.47-1.11,16.3,16.3,0,0,1,4-.48,8,8,0,0,1,4,.8,2.67,2.67,0,0,1,1.38,2.49v.58Zm7.1,4.72v4.88a5.42,5.42,0,0,1-1.72.61,11.88,11.88,0,0,1-2.3.23,5.13,5.13,0,0,1-3.13-.74,2.39,2.39,0,0,1-1-2,2,2,0,0,1,1-1.83,6.59,6.59,0,0,1,2.73-.77Z"/><path class="cls-2" d="M178.2,57.53a15.29,15.29,0,0,0,2.12-.14,9,9,0,0,0,1.48-.29V38.34a11.48,11.48,0,0,1,2-.8,8.23,8.23,0,0,1,2.34-.31,4.57,4.57,0,0,1,3,.9,3.31,3.31,0,0,1,1.12,2.75V53.76c0,1.49.34,2.49,1,3a5.87,5.87,0,0,0,3.42.77,15.18,15.18,0,0,0,2.12-.14,11,11,0,0,0,1.54-.29V40.67a8.81,8.81,0,0,0-3.16-7.26c-2.1-1.7-5.08-2.54-8.93-2.54a21.94,21.94,0,0,0-5.91.74,13.74,13.74,0,0,0-4.37,2,6.29,6.29,0,0,0-1.65,1.59,3.91,3.91,0,0,0-.58,2.22V53.76c0,1.49.36,2.49,1.06,3A6,6,0,0,0,178.2,57.53Z"/><path class="cls-2" d="M202.08,51.62a4.37,4.37,0,0,0-.45,1.93,4.5,4.5,0,0,0,.45,2,5.43,5.43,0,0,0,1.19,1.59h17.6a2.71,2.71,0,0,0,2-.75,3.22,3.22,0,0,0,.77-2.43,6,6,0,0,0-.26-1.75,5.08,5.08,0,0,0-.59-1.33H211.64L221.45,39a8.88,8.88,0,0,0,1.14-1.77,4.29,4.29,0,0,0,.45-1.88,4.33,4.33,0,0,0-.48-2.07,5.91,5.91,0,0,0-1.22-1.59H204.59a2.74,2.74,0,0,0-2,.74,3.26,3.26,0,0,0-.77,2.44,5.15,5.15,0,0,0,.29,1.78,11.12,11.12,0,0,0,.56,1.35h10.49l-10,11.87A9.24,9.24,0,0,0,202.08,51.62Z"/><path class="cls-2" d="M228.87,54.48a12.64,12.64,0,0,0,4.56,2.6,18.37,18.37,0,0,0,5.77.87,24.59,24.59,0,0,0,3.9-.29,12.11,12.11,0,0,0,3.07-.9,5.72,5.72,0,0,0,2-1.51,3.21,3.21,0,0,0,.75-2.12,3.49,3.49,0,0,0-.53-1.86,4.74,4.74,0,0,0-1.33-1.38,13.78,13.78,0,0,1-3.18,1.35,13.92,13.92,0,0,1-4.19.61,9.47,9.47,0,0,1-4.29-.92,5.17,5.17,0,0,1-2.6-3.16l13.78-2.06a4.71,4.71,0,0,0,2.55-1.12,3.32,3.32,0,0,0,.9-2.54,11.18,11.18,0,0,0-.9-4.51A10.45,10.45,0,0,0,246.65,34a11.5,11.5,0,0,0-3.87-2.3,14.28,14.28,0,0,0-4.95-.82,15.57,15.57,0,0,0-4.85.76,11.57,11.57,0,0,0-4.19,2.42,11.82,11.82,0,0,0-2.92,4.13,14.7,14.7,0,0,0-1.08,5.88,15.79,15.79,0,0,0,1.08,6.1A12,12,0,0,0,228.87,54.48Zm5.22-16.22a5.34,5.34,0,0,1,3.79-1.41,4.22,4.22,0,0,1,4.56,3.82l-10.13,1.64A6.16,6.16,0,0,1,234.09,38.26Z"/><path class="cls-2" d="M286,46.39c-6.08-3-8.75,1.75-12,3.53a14.11,14.11,0,0,1-7.11,1.93,8.86,8.86,0,0,1-4.29-.92,5.17,5.17,0,0,1-2.6-3.16l13.79-2.06a4.71,4.71,0,0,0,2.54-1.12,3.32,3.32,0,0,0,.9-2.54c0-.25,0-.5,0-.74h0c0-5.13-2.86-7.42-2.86-7.42-1-.54.38-1,1.79-.66a4.86,4.86,0,0,0,4.13-.94,1.71,1.71,0,0,0,.44-.56,1.79,1.79,0,0,0,.31-1.19.71.71,0,0,0-.39-.47,1.25,1.25,0,0,0-.15-.19c-1.88-1.79-.87-4.59-.87-4.59a1.61,1.61,0,0,0-1-1.6h0a5.21,5.21,0,0,0-4.12-2,4.82,4.82,0,0,0-4.66,2.88,3.11,3.11,0,0,1-2.3,2.07c-8.3,1.82-15.93,6-15.65,17.09,0,.12,0,.23,0,.34a15.79,15.79,0,0,0,1.08,6.1,12,12,0,0,0,3,4.32,12.64,12.64,0,0,0,4.56,2.6,18.39,18.39,0,0,0,5.78.87,14.88,14.88,0,0,0,7.08-1.58c3.67-1.9,4.23-2.82,6.9-4.45,4.66-2.84,10.89,7.4.95,20.46-14.65,19.24-70.07,7-123.83,0s-72.24-3.2-78.64-1.16-5.72,12.39,5.49,9.69,48.73-9.7,135.21,2.93S293.34,50,286,46.39Zm-17.61-8.32a4.35,4.35,0,0,1,1.22,2.6l-10.07,1.64a6.16,6.16,0,0,1,1.77-4.05,5.33,5.33,0,0,1,3.77-1.4A4.29,4.29,0,0,1,268.41,38.07Z"/></g></g></svg>